RecursiveSans-StrictExtraBold.ufo
<glyph name="quotesingle" format="1">
  <advance width="250"/>
  <unicode hex="0027"/>
  <outline>
    <contour>
      <point x="191" y="450" type="curve"/>
      <point x="214" y="737" type="line" smooth="yes"/>
      <point x="215" y="746"/>
      <point x="210" y="750"/>
      <point x="204" y="750" type="curve" smooth="yes"/>
      <point x="153" y="750"/>
      <point x="97" y="750"/>
      <point x="35" y="750" type="curve"/>
      <point x="38" y="714"/>
      <point x="40" y="683"/>
      <point x="43" y="648" type="curve" smooth="yes"/>
      <point x="58" y="461" type="line" smooth="yes"/>
      <point x="59" y="454"/>
      <point x="64" y="450"/>
      <point x="70" y="450" type="curve" smooth="yes"/>
      <point x="111" y="450"/>
      <point x="150" y="450"/>
    </contour>
  </outline>
</glyph>
<glyph name="comma" format="1">
  <advance width="350"/>
  <unicode hex="002C"/>
  <outline>
    <contour>
      <point x="180" y="-190" type="curve" smooth="yes"/>
      <point x="185" y="-190"/>
      <point x="188" y="-189"/>
      <point x="190" y="-183" type="curve"/>
      <point x="231" y="-74"/>
      <point x="279" y="54"/>
      <point x="312" y="140" type="curve"/>
      <point x="315" y="148"/>
      <point x="312" y="153"/>
      <point x="304" y="153" type="curve" smooth="yes"/>
      <point x="233" y="153"/>
      <point x="191" y="153"/>
      <point x="108" y="153" type="curve"/>
      <point x="84" y="39"/>
      <point x="60" y="-76"/>
      <point x="36" y="-190" type="curve"/>
      <point x="74" y="-190"/>
      <point x="117" y="-190"/>
    </contour>
  </outline>
</glyph>
<glyph name="semicolon" format="1">
  <advance width="350"/>
  <unicode hex="003B"/>
  <outline>
    <contour>
      <point x="275" y="350" type="curve"/>
      <point x="275" y="539" type="line" smooth="yes"/>
      <point x="275" y="545"/>
      <point x="270" y="550"/>
      <point x="264" y="550" type="curve" smooth="yes"/>
      <point x="201" y="550"/>
      <point x="138" y="550"/>
      <point x="75" y="550" type="curve"/>
      <point x="75" y="361" type="line" smooth="yes"/>
      <point x="75" y="355"/>
      <point x="80" y="350"/>
      <point x="86" y="350" type="curve" smooth="yes"/>
      <point x="149" y="350"/>
      <point x="212" y="350"/>
    </contour>
    <contour>
      <point x="160" y="-240" type="curve" smooth="yes"/>
      <point x="165" y="-240"/>
      <point x="168" y="-239"/>
      <point x="170" y="-233" type="curve"/>
      <point x="211" y="-124"/>
      <point x="259" y="4"/>
      <point x="292" y="90" type="curve"/>
      <point x="295" y="98"/>
      <point x="292" y="103"/>
      <point x="284" y="103" type="curve" smooth="yes"/>
      <point x="213" y="103"/>
      <point x="171" y="103"/>
      <point x="88" y="103" type="curve"/>
      <point x="64" y="-11"/>
      <point x="40" y="-126"/>
      <point x="16" y="-240" type="curve"/>
      <point x="54" y="-240"/>
      <point x="97" y="-240"/>
    </contour>
  </outline>
</glyph>
<glyph name="at" format="1">
  <advance width="600"/>
  <unicode hex="0040"/>
  <outline>
    <contour>
      <point x="441" y="500" type="curve" smooth="yes"/>
      <point x="426" y="522"/>
      <point x="388" y="550"/>
      <point x="340" y="550" type="curve" smooth="yes"/>
      <point x="308" y="550"/>
      <point x="282" y="540"/>
      <point x="263" y="521" type="curve" smooth="yes"/>
      <point x="240" y="498"/>
      <point x="254" y="482"/>
      <point x="353" y="399" type="curve"/>
      <point x="353" y="432"/>
      <point x="367" y="442"/>
      <point x="388" y="442" type="curve" smooth="yes"/>
      <point x="421" y="442"/>
      <point x="438" y="437"/>
      <point x="458" y="421" type="curve"/>
      <point x="458" y="464"/>
      <point x="449" y="488"/>
    </contour>
    <contour>
      <point x="467" y="176" type="curve"/>
      <point x="444" y="144"/>
      <point x="397" y="130"/>
      <point x="367" y="130" type="curve" smooth="yes"/>
      <point x="357" y="130"/>
      <point x="353" y="136"/>
      <point x="353" y="150" type="curve" smooth="yes"/>
      <point x="353" y="399" type="line" smooth="yes"/>
      <point x="353" y="435"/>
      <point x="360" y="459"/>
      <point x="388" y="487" type="curve"/>
      <point x="305" y="535"/>
      <point x="288" y="546"/>
      <point x="263" y="521" type="curve" smooth="yes"/>
      <point x="237" y="495"/>
      <point x="228" y="462"/>
      <point x="228" y="419" type="curve" smooth="yes"/>
      <point x="228" y="119" type="line" smooth="yes"/>
      <point x="228" y="51"/>
      <point x="271" y="10"/>
      <point x="333" y="10" type="curve" smooth="yes"/>
      <point x="384" y="10"/>
      <point x="425" y="33"/>
      <point x="466" y="101" type="curve" smooth="yes"/>
      <point x="472" y="111"/>
      <point x="473" y="120"/>
    </contour>
    <contour>
      <point x="545" y="20" type="line"/>
      <point x="545" y="56"/>
      <point x="545" y="92"/>
      <point x="545" y="128" type="curve"/>
      <point x="545" y="540" type="line" smooth="yes"/>
      <point x="545" y="669"/>
      <point x="449" y="760"/>
      <point x="301" y="760" type="curve" smooth="yes"/>
      <point x="284" y="760"/>
      <point x="276" y="741"/>
      <point x="301" y="668" type="curve"/>
      <point x="379" y="668"/>
      <point x="420" y="635"/>
      <point x="420" y="555" type="curve" smooth="yes"/>
      <point x="420" y="111" type="line" smooth="yes"/>
      <point x="420" y="107"/>
      <point x="490" y="20"/>
      <point x="500" y="20" type="curve" smooth="yes"/>
    </contour>
    <contour>
      <point x="55" y="530" type="curve" smooth="yes"/>
      <point x="55" y="108" type="line" smooth="yes"/>
      <point x="55" y="-3"/>
      <point x="79" y="-78"/>
      <point x="124" y="-123" type="curve" smooth="yes"/>
      <point x="156" y="-155"/>
      <point x="288" y="-158"/>
      <point x="330" y="-101" type="curve"/>
      <point x="200" y="-101"/>
      <point x="155" y="-50"/>
      <point x="155" y="83" type="curve" smooth="yes"/>
      <point x="155" y="510" type="line" smooth="yes"/>
      <point x="155" y="595"/>
      <point x="206" y="668"/>
      <point x="301" y="668" type="curve" smooth="yes"/>
      <point x="355" y="668"/>
      <point x="395" y="654"/>
      <point x="432" y="622" type="curve"/>
      <point x="445" y="632"/>
      <point x="449" y="636"/>
      <point x="449" y="660" type="curve" smooth="yes"/>
      <point x="449" y="719"/>
      <point x="388" y="760"/>
      <point x="301" y="760" type="curve" smooth="yes"/>
      <point x="159" y="760"/>
      <point x="55" y="660"/>
    </contour>
    <contour>
      <point x="315" y="-191" type="curve" smooth="yes"/>
      <point x="383" y="-191"/>
      <point x="461" y="-175"/>
      <point x="474" y="-162" type="curve" smooth="yes"/>
      <point x="476" y="-160"/>
      <point x="477" y="-157"/>
      <point x="477" y="-154" type="curve" smooth="yes"/>
      <point x="477" y="-75" type="line"/>
      <point x="457" y="-75" type="line"/>
      <point x="422" y="-92"/>
      <point x="376" y="-101"/>
      <point x="330" y="-101" type="curve" smooth="yes"/>
      <point x="228" y="-101"/>
      <point x="191" y="-75"/>
      <point x="137" y="-19" type="curve"/>
      <point x="101" y="-71"/>
      <point x="106" y="-105"/>
      <point x="124" y="-123" type="curve"/>
      <point x="168" y="-167"/>
      <point x="228" y="-191"/>
    </contour>
  </outline>
</glyph>
<glyph name="B" format="1">
  <advance width="600"/>
  <unicode hex="0042"/>
  <outline>
    <contour>
      <point x="230" y="11" type="curve"/>
      <point x="230" y="645" type="line" smooth="yes"/>
      <point x="230" y="654"/>
      <point x="172" y="660"/>
      <point x="75" y="660" type="curve"/>
      <point x="75" y="11" type="line"/>
      <point x="75" y="11"/>
      <point x="145" y="11"/>
    </contour>
    <contour>
      <point x="30" y="700" type="curve"/>
      <point x="30" y="666"/>
      <point x="30" y="615"/>
      <point x="30" y="569" type="curve" smooth="yes"/>
      <point x="30" y="566"/>
      <point x="31" y="563"/>
      <point x="33" y="561" type="curve" smooth="yes"/>
      <point x="35" y="559"/>
      <point x="38" y="558"/>
      <point x="41" y="558" type="curve" smooth="yes"/>
      <point x="57" y="558"/>
      <point x="84" y="558"/>
      <point x="100" y="558" type="curve" smooth="yes"/>
      <point x="172" y="558"/>
      <point x="245" y="558"/>
      <point x="315" y="558" type="curve" smooth="yes"/>
      <point x="397" y="558"/>
      <point x="413" y="558"/>
      <point x="461" y="558" type="curve"/>
      <point x="461" y="639"/>
      <point x="410" y="700"/>
      <point x="303" y="700" type="curve" smooth="yes"/>
      <point x="226" y="700"/>
      <point x="112" y="700"/>
    </contour>
    <contour>
      <point x="540" y="498" type="curve" smooth="yes"/>
      <point x="540" y="526" type="line" smooth="yes"/>
      <point x="540" y="607"/>
      <point x="484" y="700"/>
      <point x="303" y="700" type="curve" smooth="yes"/>
      <point x="283" y="700"/>
      <point x="284" y="683"/>
      <point x="315" y="558" type="curve"/>
      <point x="362" y="558"/>
      <point x="385" y="540"/>
      <point x="385" y="498" type="curve" smooth="yes"/>
      <point x="385" y="466" type="line" smooth="yes"/>
      <point x="385" y="425"/>
      <point x="362" y="404"/>
      <point x="316" y="404" type="curve" smooth="yes"/>
      <point x="265" y="404"/>
      <point x="236" y="404"/>
      <point x="187" y="404" type="curve"/>
      <point x="187" y="390"/>
      <point x="187" y="371"/>
      <point x="187" y="355" type="curve" smooth="yes"/>
      <point x="187" y="349"/>
      <point x="194" y="344"/>
      <point x="203" y="344" type="curve" smooth="yes"/>
      <point x="355" y="344" type="line" smooth="yes"/>
      <point x="463" y="344"/>
      <point x="540" y="408"/>
    </contour>
    <contour>
      <point x="540" y="179" type="curve" smooth="yes"/>
      <point x="540" y="214" type="line" smooth="yes"/>
      <point x="540" y="302"/>
      <point x="451" y="366"/>
      <point x="345" y="366" type="curve" smooth="yes"/>
      <point x="203" y="366" type="line" smooth="yes"/>
      <point x="197" y="366"/>
      <point x="187" y="361"/>
      <point x="187" y="356" type="curve"/>
      <point x="187" y="301" type="line"/>
      <point x="307" y="301" type="line"/>
      <point x="363" y="301"/>
      <point x="385" y="282"/>
      <point x="385" y="242" type="curve" smooth="yes"/>
      <point x="385" y="204" type="line" smooth="yes"/>
      <point x="385" y="166"/>
      <point x="363" y="142"/>
      <point x="314" y="142" type="curve" smooth="yes"/>
      <point x="273" y="142"/>
      <point x="211" y="142"/>
      <point x="150" y="142" type="curve"/>
      <point x="78" y="33"/>
      <point x="75" y="14"/>
      <point x="75" y="11" type="curve" smooth="yes"/>
      <point x="75" y="4"/>
      <point x="79" y="0"/>
      <point x="86" y="0" type="curve" smooth="yes"/>
      <point x="320" y="0" type="line" smooth="yes"/>
      <point x="453" y="0"/>
      <point x="540" y="58"/>
    </contour>
  </outline>
</glyph>
<glyph name="C" format="1">
  <advance width="600"/>
  <unicode hex="0043"/>
  <outline>
    <contour>
      <point x="328" y="577" type="curve" smooth="yes"/>
      <point x="391" y="577"/>
      <point x="429" y="556"/>
      <point x="465" y="527" type="curve"/>
      <point x="533" y="598"/>
      <point x="543" y="616"/>
      <point x="543" y="633" type="curve" smooth="yes"/>
      <point x="543" y="644"/>
      <point x="542" y="647"/>
      <point x="537" y="652" type="curve" smooth="yes"/>
      <point x="505" y="684"/>
      <point x="436" y="720"/>
      <point x="331" y="720" type="curve" smooth="yes"/>
      <point x="152" y="720"/>
      <point x="50" y="612"/>
      <point x="50" y="455" type="curve" smooth="yes"/>
      <point x="50" y="256" type="line" smooth="yes"/>
      <point x="50" y="168"/>
      <point x="111" y="110"/>
      <point x="210" y="111" type="curve"/>
      <point x="210" y="149"/>
      <point x="210" y="184"/>
      <point x="210" y="254" type="curve" smooth="yes"/>
      <point x="210" y="452" type="line" smooth="yes"/>
      <point x="210" y="540"/>
      <point x="256" y="577"/>
    </contour>
    <contour>
      <point x="340" y="-20" type="curve" smooth="yes"/>
      <point x="435" y="-20"/>
      <point x="521" y="4"/>
      <point x="547" y="30" type="curve" smooth="yes"/>
      <point x="549" y="32"/>
      <point x="550" y="35"/>
      <point x="550" y="38" type="curve" smooth="yes"/>
      <point x="550" y="84"/>
      <point x="550" y="131"/>
      <point x="550" y="177" type="curve"/>
      <point x="530" y="177" type="line"/>
      <point x="476" y="145"/>
      <point x="419" y="130"/>
      <point x="340" y="130" type="curve" smooth="yes"/>
      <point x="250" y="130"/>
      <point x="210" y="167"/>
      <point x="210" y="278" type="curve"/>
      <point x="105" y="279"/>
      <point x="50" y="269"/>
      <point x="50" y="256" type="curve" smooth="yes"/>
      <point x="50" y="80"/>
      <point x="142" y="-20"/>
    </contour>
    <contour>
      <point x="543" y="458" type="curve"/>
      <point x="543" y="633" type="line" smooth="yes"/>
      <point x="543" y="646"/>
      <point x="504" y="653"/>
      <point x="403" y="653" type="curve"/>
      <point x="403" y="638"/>
      <point x="403" y="616"/>
      <point x="403" y="603" type="curve" smooth="yes"/>
      <point x="403" y="469" type="line"/>
      <point x="403" y="466"/>
      <point x="404" y="463"/>
      <point x="406" y="461" type="curve" smooth="yes"/>
      <point x="408" y="459"/>
      <point x="411" y="458"/>
      <point x="414" y="458" type="curve"/>
      <point x="457" y="458"/>
      <point x="500" y="458"/>
    </contour>
    <contour>
      <point x="300" y="711" type="move" name="top"/>
    </contour>
    <contour>
      <point x="320" y="0" type="move" name="bottom"/>
    </contour>
  </outline>
</glyph>
<glyph name="D" format="1">
  <advance width="650"/>
  <unicode hex="0044"/>
  <outline>
    <contour>
      <point x="235" y="50" type="curve"/>
      <point x="235" y="639" type="line" smooth="yes"/>
      <point x="235" y="645"/>
      <point x="230" y="650"/>
      <point x="75" y="650" type="curve"/>
      <point x="75" y="61" type="line" smooth="yes"/>
      <point x="75" y="55"/>
      <point x="80" y="50"/>
    </contour>
    <contour>
      <point x="30" y="700" type="curve"/>
      <point x="30" y="657"/>
      <point x="30" y="612"/>
      <point x="30" y="569" type="curve"/>
      <point x="30" y="566"/>
      <point x="31" y="563"/>
      <point x="33" y="561" type="curve" smooth="yes"/>
      <point x="35" y="559"/>
      <point x="38" y="558"/>
      <point x="41" y="558" type="curve" smooth="yes"/>
      <point x="55" y="558"/>
      <point x="78" y="558"/>
      <point x="92" y="558" type="curve" smooth="yes"/>
      <point x="155" y="558"/>
      <point x="238" y="558"/>
      <point x="300" y="558" type="curve"/>
      <point x="366" y="558"/>
      <point x="389" y="558"/>
      <point x="426" y="558" type="curve"/>
      <point x="426" y="641"/>
      <point x="427" y="700"/>
      <point x="298" y="700" type="curve" smooth="yes"/>
      <point x="221" y="700"/>
      <point x="108" y="700"/>
    </contour>
    <contour>
      <point x="595" y="281" type="curve" smooth="yes"/>
      <point x="595" y="432" type="line" smooth="yes"/>
      <point x="595" y="614"/>
      <point x="484" y="700"/>
      <point x="298" y="700" type="curve" smooth="yes"/>
      <point x="287" y="700"/>
      <point x="276" y="691"/>
      <point x="300" y="558" type="curve"/>
      <point x="404" y="558"/>
      <point x="445" y="515"/>
      <point x="445" y="432" type="curve" smooth="yes"/>
      <point x="445" y="281" type="line" smooth="yes"/>
      <point x="445" y="190"/>
      <point x="391" y="142"/>
      <point x="310" y="142" type="curve" smooth="yes"/>
      <point x="261" y="142"/>
      <point x="116" y="142"/>
      <point x="75" y="142" type="curve"/>
      <point x="75" y="95"/>
      <point x="75" y="66"/>
      <point x="75" y="11" type="curve" smooth="yes"/>
      <point x="75" y="5"/>
      <point x="80" y="0"/>
      <point x="86" y="0" type="curve" smooth="yes"/>
      <point x="314" y="0" type="line" smooth="yes"/>
      <point x="488" y="0"/>
      <point x="595" y="106"/>
    </contour>
    <contour>
      <point x="312" y="711" type="move" name="top"/>
    </contour>
  </outline>
</glyph>
<glyph name="I" format="1">
  <advance width="500"/>
  <unicode hex="0049"/>
  <outline>
    <contour>
      <point x="330" y="50" type="curve"/>
      <point x="330" y="639" type="line" smooth="yes"/>
      <point x="330" y="645"/>
      <point x="325" y="650"/>
      <point x="170" y="650" type="curve"/>
      <point x="170" y="61" type="line" smooth="yes"/>
      <point x="170" y="55"/>
      <point x="175" y="50"/>
    </contour>
    <contour>
      <point x="70" y="700" type="line"/>
      <point x="70" y="657"/>
      <point x="70" y="612"/>
      <point x="70" y="569" type="curve"/>
      <point x="70" y="566"/>
      <point x="71" y="563"/>
      <point x="73" y="561" type="curve" smooth="yes"/>
      <point x="75" y="559"/>
      <point x="78" y="558"/>
      <point x="81" y="558" type="curve" smooth="yes"/>
      <point x="430" y="558" type="line"/>
      <point x="430" y="601"/>
      <point x="430" y="646"/>
      <point x="430" y="689" type="curve" smooth="yes"/>
      <point x="430" y="695"/>
      <point x="425" y="700"/>
      <point x="419" y="700" type="curve" smooth="yes"/>
    </contour>
    <contour>
      <point x="70" y="142" type="line"/>
      <point x="70" y="99"/>
      <point x="70" y="54"/>
      <point x="70" y="11" type="curve"/>
      <point x="70" y="8"/>
      <point x="71" y="5"/>
      <point x="73" y="3" type="curve" smooth="yes"/>
      <point x="75" y="1"/>
      <point x="78" y="0"/>
      <point x="81" y="0" type="curve" smooth="yes"/>
      <point x="430" y="0" type="line"/>
      <point x="430" y="43"/>
      <point x="430" y="88"/>
      <point x="430" y="131" type="curve" smooth="yes"/>
      <point x="430" y="137"/>
      <point x="425" y="142"/>
      <point x="419" y="142" type="curve" smooth="yes"/>
    </contour>
    <contour>
      <point x="250" y="711" type="move" name="top"/>
    </contour>
    <contour>
      <point x="431" y="0" type="move" name="ogonek"/>
    </contour>
    <contour>
      <point x="250" y="-1" type="move" name="bottom"/>
    </contour>
  </outline>
</glyph>
<glyph name="J" format="1">
  <advance width="500"/>
  <unicode hex="004A"/>
  <outline>
    <contour>
      <point x="91" y="700" type="line"/>
      <point x="91" y="657"/>
      <point x="91" y="612"/>
      <point x="91" y="569" type="curve" smooth="yes"/>
      <point x="91" y="566"/>
      <point x="92" y="563"/>
      <point x="94" y="561" type="curve" smooth="yes"/>
      <point x="96" y="559"/>
      <point x="99" y="558"/>
      <point x="102" y="558" type="curve" smooth="yes"/>
      <point x="390" y="558" type="line"/>
      <point x="390" y="614"/>
      <point x="368" y="700"/>
      <point x="315" y="700" type="curve"/>
    </contour>
    <contour>
      <point x="430" y="225" type="curve" smooth="yes"/>
      <point x="430" y="689" type="line" smooth="yes"/>
      <point x="430" y="695"/>
      <point x="425" y="700"/>
      <point x="419" y="700" type="curve" smooth="yes"/>
      <point x="280" y="700" type="line"/>
      <point x="280" y="226" type="line" smooth="yes"/>
      <point x="280" y="149"/>
      <point x="280" y="128"/>
      <point x="280" y="72" type="curve"/>
      <point x="354" y="72"/>
      <point x="430" y="116"/>
    </contour>
    <contour>
      <point x="189" y="130" type="curve" smooth="yes"/>
      <point x="143" y="130"/>
      <point x="104" y="141"/>
      <point x="60" y="160" type="curve"/>
      <point x="40" y="160" type="line"/>
      <point x="40" y="117"/>
      <point x="40" y="72"/>
      <point x="40" y="29" type="curve"/>
      <point x="40" y="26"/>
      <point x="41" y="23"/>
      <point x="43" y="21" type="curve" smooth="yes"/>
      <point x="57" y="7"/>
      <point x="124" y="-12"/>
      <point x="177" y="-12" type="curve" smooth="yes"/>
      <point x="201" y="-12" type="line" smooth="yes"/>
      <point x="351" y="-12"/>
      <point x="430" y="83"/>
      <point x="430" y="225" type="curve"/>
      <point x="430" y="235"/>
      <point x="420" y="242"/>
      <point x="280" y="226" type="curve"/>
      <point x="280" y="142"/>
      <point x="254" y="130"/>
    </contour>
    <contour>
      <point x="255" y="711" type="move" name="top"/>
    </contour>
  </outline>
</glyph>
<glyph name="L" format="1">
  <advance width="550"/>
  <unicode hex="004C"/>
  <outline>
    <contour>
      <point x="230" y="100" type="curve"/>
      <point x="230" y="689" type="line" smooth="yes"/>
      <point x="230" y="692"/>
      <point x="229" y="695"/>
      <point x="227" y="697" type="curve" smooth="yes"/>
      <point x="225" y="699"/>
      <point x="222" y="700"/>
      <point x="219" y="700" type="curve" smooth="yes"/>
      <point x="169" y="700"/>
      <point x="120" y="700"/>
      <point x="70" y="700" type="curve"/>
      <point x="70" y="667"/>
      <point x="70" y="633"/>
      <point x="70" y="600" type="curve" smooth="yes"/>
      <point x="70" y="111" type="line" smooth="yes"/>
      <point x="70" y="105"/>
      <point x="75" y="100"/>
    </contour>
    <contour>
      <point x="70" y="142" type="line"/>
      <point x="70" y="11" type="line" smooth="yes"/>
      <point x="70" y="5"/>
      <point x="75" y="0"/>
      <point x="81" y="0" type="curve" smooth="yes"/>
      <point x="500" y="0" type="line"/>
      <point x="500" y="43"/>
      <point x="500" y="88"/>
      <point x="500" y="131" type="curve" smooth="yes"/>
      <point x="500" y="137"/>
      <point x="495" y="142"/>
      <point x="489" y="142" type="curve" smooth="yes"/>
    </contour>
    <contour>
      <point x="415" y="550" type="move" name="caronslovak"/>
    </contour>
    <contour>
      <point x="150" y="711" type="move" name="top"/>
    </contour>
    <contour>
      <point x="435" y="400" type="move" name="dot"/>
    </contour>
    <contour>
      <point x="285" y="-1" type="move" name="bottom"/>
    </contour>
  </outline>
</glyph>
<glyph name="M" format="1">
  <advance width="800"/>
  <unicode hex="004D"/>
  <outline>
    <contour>
      <point x="216" y="0" type="curve"/>
      <point x="216" y="68"/>
      <point x="216" y="135"/>
      <point x="216" y="203" type="curve" smooth="yes"/>
      <point x="210" y="367"/>
      <point x="204" y="529"/>
      <point x="198" y="689" type="curve" smooth="yes"/>
      <point x="198" y="692"/>
      <point x="197" y="695"/>
      <point x="195" y="697" type="curve" smooth="yes"/>
      <point x="193" y="699"/>
      <point x="190" y="700"/>
      <point x="187" y="700" type="curve" smooth="yes"/>
      <point x="148" y="700"/>
      <point x="109" y="700"/>
      <point x="70" y="700" type="curve"/>
      <point x="70" y="662"/>
      <point x="70" y="625"/>
      <point x="70" y="587" type="curve" smooth="yes"/>
      <point x="70" y="395"/>
      <point x="70" y="203"/>
      <point x="70" y="11" type="curve" smooth="yes"/>
      <point x="70" y="8"/>
      <point x="71" y="5"/>
      <point x="73" y="3" type="curve" smooth="yes"/>
      <point x="75" y="1"/>
      <point x="78" y="0"/>
      <point x="81" y="0" type="curve" smooth="yes"/>
      <point x="126" y="0"/>
      <point x="171" y="0"/>
    </contour>
    <contour>
      <point x="730" y="0" type="curve"/>
      <point x="730" y="37"/>
      <point x="730" y="75"/>
      <point x="730" y="112" type="curve" smooth="yes"/>
      <point x="730" y="304"/>
      <point x="730" y="497"/>
      <point x="730" y="689" type="curve"/>
      <point x="730" y="692"/>
      <point x="729" y="695"/>
      <point x="727" y="697" type="curve" smooth="yes"/>
      <point x="725" y="699"/>
      <point x="722" y="700"/>
      <point x="719" y="700" type="curve" smooth="yes"/>
      <point x="601" y="700" type="line"/>
      <point x="601" y="683"/>
      <point x="601" y="665"/>
      <point x="600" y="648" type="curve"/>
      <point x="594" y="499"/>
      <point x="587" y="350"/>
      <point x="581" y="204" type="curve" smooth="yes"/>
      <point x="581" y="143"/>
      <point x="581" y="81"/>
      <point x="581" y="20" type="curve" smooth="yes"/>
      <point x="581" y="8"/>
      <point x="583" y="5"/>
      <point x="585" y="3" type="curve" smooth="yes"/>
      <point x="587" y="1"/>
      <point x="589" y="0"/>
      <point x="593" y="0" type="curve" smooth="yes"/>
      <point x="639" y="0"/>
      <point x="684" y="0"/>
    </contour>
    <contour>
      <point x="277" y="687" type="curve" smooth="yes"/>
      <point x="273" y="697"/>
      <point x="269" y="700"/>
      <point x="261" y="700" type="curve"/>
      <point x="129" y="700" type="line"/>
      <point x="139" y="673"/>
      <point x="155" y="648"/>
      <point x="165" y="621" type="curve" smooth="yes"/>
      <point x="222" y="463"/>
      <point x="279" y="305"/>
      <point x="336" y="147" type="curve"/>
      <point x="337" y="143"/>
      <point x="343" y="140"/>
      <point x="347" y="140" type="curve" smooth="yes"/>
      <point x="355" y="140"/>
      <point x="365" y="146"/>
      <point x="440" y="240" type="curve"/>
      <point x="386" y="389"/>
      <point x="331" y="538"/>
    </contour>
    <contour>
      <point x="528" y="700" type="curve"/>
      <point x="473" y="547"/>
      <point x="417" y="393"/>
      <point x="362" y="240" type="curve"/>
      <point x="338" y="158"/>
      <point x="351" y="146"/>
      <point x="347" y="140" type="curve"/>
      <point x="459" y="140" type="line"/>
      <point x="525" y="322"/>
      <point x="592" y="505"/>
      <point x="658" y="687" type="curve" smooth="yes"/>
      <point x="661" y="696"/>
      <point x="658" y="700"/>
      <point x="650" y="700" type="curve" smooth="yes"/>
      <point x="635" y="700"/>
      <point x="535" y="700"/>
    </contour>
  </outline>
</glyph>
<glyph name="N" format="1">
  <advance width="700"/>
  <unicode hex="004E"/>
  <outline>
    <contour>
      <point x="220" y="0" type="curve"/>
      <point x="220" y="163" type="line"/>
      <point x="202" y="534"/>
      <point x="192" y="692"/>
      <point x="187" y="697" type="curve" smooth="yes"/>
      <point x="185" y="699"/>
      <point x="182" y="700"/>
      <point x="179" y="700" type="curve"/>
      <point x="146" y="700"/>
      <point x="75" y="700"/>
      <point x="70" y="700" type="curve"/>
      <point x="70" y="653"/>
      <point x="70" y="607"/>
      <point x="70" y="560" type="curve" smooth="yes"/>
      <point x="70" y="11" type="line"/>
      <point x="70" y="5"/>
      <point x="75" y="0"/>
      <point x="81" y="0" type="curve"/>
      <point x="127" y="0"/>
      <point x="174" y="0"/>
    </contour>
    <contour>
      <point x="630" y="0" type="line"/>
      <point x="630" y="689" type="line"/>
      <point x="630" y="695"/>
      <point x="625" y="700"/>
      <point x="619" y="700" type="curve"/>
      <point x="480" y="700" type="line"/>
      <point x="480" y="494" type="line"/>
      <point x="502" y="194"/>
      <point x="519" y="5"/>
      <point x="521" y="3" type="curve" smooth="yes"/>
      <point x="523" y="1"/>
      <point x="526" y="0"/>
      <point x="529" y="0" type="curve"/>
    </contour>
    <contour>
      <point x="169" y="700" type="line"/>
      <point x="158" y="700"/>
      <point x="153" y="697"/>
      <point x="94" y="626" type="curve"/>
      <point x="226" y="420"/>
      <point x="357" y="214"/>
      <point x="489" y="8" type="curve"/>
      <point x="492" y="1"/>
      <point x="497" y="0"/>
      <point x="501" y="0" type="curve" smooth="yes"/>
      <point x="505" y="0"/>
      <point x="537" y="0"/>
      <point x="540" y="0" type="curve"/>
      <point x="555" y="0"/>
      <point x="570" y="100"/>
      <point x="570" y="155" type="curve"/>
      <point x="456" y="333"/>
      <point x="341" y="512"/>
      <point x="227" y="690" type="curve"/>
      <point x="222" y="699"/>
      <point x="220" y="700"/>
      <point x="209" y="700" type="curve"/>
    </contour>
    <contour>
      <point x="350" y="711" type="move" name="top"/>
    </contour>
    <contour>
      <point x="350" y="-1" type="move" name="bottom"/>
    </contour>
  </outline>
</glyph>
<glyph name="O" format="1">
  <advance width="650"/>
  <unicode hex="004F"/>
  <outline>
    <contour>
      <point x="325" y="720" type="curve" smooth="yes"/>
      <point x="169" y="720"/>
      <point x="55" y="592"/>
      <point x="55" y="434" type="curve" smooth="yes"/>
      <point x="55" y="258" type="line" smooth="yes"/>
      <point x="55" y="88"/>
      <point x="167" y="-20"/>
      <point x="325" y="-20" type="curve" smooth="yes"/>
      <point x="334" y="-20"/>
      <point x="342" y="-2"/>
      <point x="325" y="122" type="curve"/>
      <point x="248" y="122"/>
      <point x="205" y="175"/>
      <point x="205" y="258" type="curve" smooth="yes"/>
      <point x="205" y="434" type="line" smooth="yes"/>
      <point x="205" y="523"/>
      <point x="252" y="578"/>
      <point x="325" y="578" type="curve" smooth="yes"/>
      <point x="391" y="578"/>
      <point x="424" y="578"/>
      <point x="453" y="578" type="curve"/>
      <point x="453" y="639"/>
      <point x="438" y="720"/>
    </contour>
    <contour>
      <point x="325" y="-20" type="curve" smooth="yes"/>
      <point x="481" y="-20"/>
      <point x="595" y="108"/>
      <point x="595" y="266" type="curve" smooth="yes"/>
      <point x="595" y="442" type="line" smooth="yes"/>
      <point x="595" y="612"/>
      <point x="483" y="720"/>
      <point x="325" y="720" type="curve" smooth="yes"/>
      <point x="316" y="720"/>
      <point x="308" y="702"/>
      <point x="325" y="578" type="curve"/>
      <point x="402" y="578"/>
      <point x="445" y="525"/>
      <point x="445" y="442" type="curve" smooth="yes"/>
      <point x="445" y="266" type="line" smooth="yes"/>
      <point x="445" y="177"/>
      <point x="398" y="122"/>
      <point x="325" y="122" type="curve" smooth="yes"/>
      <point x="259" y="122"/>
      <point x="226" y="122"/>
      <point x="197" y="122" type="curve"/>
      <point x="197" y="61"/>
      <point x="212" y="-20"/>
    </contour>
    <contour>
      <point x="325" y="711" type="move" name="top"/>
    </contour>
    <contour>
      <point x="429" y="9" type="move" name="ogonek"/>
    </contour>
    <contour>
      <point x="325" y="-1" type="move" name="bottom"/>
    </contour>
  </outline>
</glyph>
<glyph name="Q" format="1">
  <advance width="650"/>
  <unicode hex="0051"/>
  <outline>
    <contour>
      <point x="325" y="720" type="curve" smooth="yes"/>
      <point x="169" y="720"/>
      <point x="55" y="592"/>
      <point x="55" y="434" type="curve" smooth="yes"/>
      <point x="55" y="258" type="line" smooth="yes"/>
      <point x="55" y="88"/>
      <point x="167" y="-20"/>
      <point x="325" y="-20" type="curve" smooth="yes"/>
      <point x="334" y="-20"/>
      <point x="342" y="-2"/>
      <point x="325" y="122" type="curve"/>
      <point x="248" y="122"/>
      <point x="205" y="175"/>
      <point x="205" y="258" type="curve" smooth="yes"/>
      <point x="205" y="434" type="line" smooth="yes"/>
      <point x="205" y="523"/>
      <point x="252" y="578"/>
      <point x="325" y="578" type="curve" smooth="yes"/>
      <point x="391" y="578"/>
      <point x="424" y="578"/>
      <point x="453" y="578" type="curve"/>
      <point x="453" y="639"/>
      <point x="438" y="720"/>
    </contour>
    <contour>
      <point x="325" y="-20" type="curve" smooth="yes"/>
      <point x="481" y="-20"/>
      <point x="595" y="108"/>
      <point x="595" y="266" type="curve" smooth="yes"/>
      <point x="595" y="442" type="line" smooth="yes"/>
      <point x="595" y="612"/>
      <point x="483" y="720"/>
      <point x="325" y="720" type="curve" smooth="yes"/>
      <point x="316" y="720"/>
      <point x="308" y="702"/>
      <point x="325" y="578" type="curve"/>
      <point x="402" y="578"/>
      <point x="445" y="525"/>
      <point x="445" y="442" type="curve" smooth="yes"/>
      <point x="445" y="266" type="line" smooth="yes"/>
      <point x="445" y="177"/>
      <point x="398" y="122"/>
      <point x="325" y="122" type="curve" smooth="yes"/>
      <point x="259" y="122"/>
      <point x="226" y="122"/>
      <point x="197" y="122" type="curve"/>
      <point x="197" y="61"/>
      <point x="212" y="-20"/>
    </contour>
    <contour>
      <point x="491" y="127" type="line"/>
      <point x="364" y="78"/>
      <point x="349" y="69"/>
      <point x="363" y="46" type="curve" smooth="yes"/>
      <point x="438" y="-77" type="line" smooth="yes"/>
      <point x="474" y="-137"/>
      <point x="503" y="-160"/>
      <point x="578" y="-160" type="curve" smooth="yes"/>
      <point x="609" y="-160" type="line" smooth="yes"/>
      <point x="616" y="-160"/>
      <point x="620" y="-156"/>
      <point x="620" y="-149" type="curve" smooth="yes"/>
      <point x="620" y="-100"/>
      <point x="620" y="-50"/>
      <point x="620" y="0" type="curve"/>
      <point x="615" y="0" type="line"/>
      <point x="609" y="0"/>
      <point x="606" y="0"/>
      <point x="600" y="0" type="curve" smooth="yes"/>
      <point x="570" y="0"/>
      <point x="560" y="3"/>
      <point x="547" y="27" type="curve" smooth="yes"/>
    </contour>
  </outline>
</glyph>
<glyph name="W" format="1">
  <advance width="900"/>
  <unicode hex="0057"/>
  <outline>
    <contour>
      <point x="26" y="700" type="curve"/>
      <point x="67" y="472"/>
      <point x="108" y="243"/>
      <point x="149" y="15" type="curve"/>
      <point x="150" y="5"/>
      <point x="160" y="0"/>
      <point x="170" y="0" type="curve"/>
      <point x="193" y="0" type="line" smooth="yes"/>
      <point x="224" y="0"/>
      <point x="280" y="20"/>
      <point x="292" y="35" type="curve"/>
      <point x="257" y="250"/>
      <point x="222" y="467"/>
      <point x="187" y="682" type="curve"/>
      <point x="186" y="692"/>
      <point x="185" y="695"/>
      <point x="183" y="697" type="curve" smooth="yes"/>
      <point x="181" y="699"/>
      <point x="178" y="700"/>
      <point x="174" y="700" type="curve"/>
      <point x="124" y="700"/>
      <point x="76" y="700"/>
    </contour>
    <contour>
      <point x="715" y="700" type="curve"/>
      <point x="683" y="501"/>
      <point x="650" y="300"/>
      <point x="618" y="101" type="curve"/>
      <point x="612" y="39"/>
      <point x="606" y="12"/>
      <point x="585" y="0" type="curve"/>
      <point x="749" y="0" type="line"/>
      <point x="790" y="229"/>
      <point x="831" y="458"/>
      <point x="872" y="687" type="curve" smooth="yes"/>
      <point x="873" y="693"/>
      <point x="872" y="695"/>
      <point x="870" y="697" type="curve" smooth="yes"/>
      <point x="868" y="699"/>
      <point x="867" y="700"/>
      <point x="863" y="700" type="curve"/>
      <point x="813" y="700"/>
      <point x="765" y="700"/>
    </contour>
    <contour>
      <point x="486" y="624" type="curve"/>
      <point x="375" y="624" type="line"/>
      <point x="333" y="450"/>
      <point x="291" y="275"/>
      <point x="249" y="101" type="curve"/>
      <point x="233" y="33"/>
      <point x="202" y="14"/>
      <point x="170" y="0" type="curve"/>
      <point x="355" y="0" type="line"/>
      <point x="403" y="201"/>
      <point x="451" y="404"/>
      <point x="499" y="605" type="curve" smooth="yes"/>
      <point x="502" y="616"/>
      <point x="497" y="624"/>
    </contour>
    <contour>
      <point x="512" y="624" type="curve"/>
      <point x="394" y="624" type="line"/>
      <point x="443" y="421"/>
      <point x="493" y="218"/>
      <point x="542" y="15" type="curve" smooth="yes"/>
      <point x="544" y="5"/>
      <point x="553" y="0"/>
      <point x="563" y="0" type="curve"/>
      <point x="633" y="0" type="line"/>
      <point x="645" y="0"/>
      <point x="673" y="10"/>
      <point x="669" y="24" type="curve"/>
      <point x="621" y="220"/>
      <point x="574" y="417"/>
      <point x="526" y="613" type="curve" smooth="yes"/>
      <point x="524" y="620"/>
      <point x="518" y="624"/>
    </contour>
    <contour>
      <point x="449" y="711" type="move" name="top"/>
    </contour>
  </outline>
</glyph>
<glyph name="X" format="1">
  <advance width="650"/>
  <unicode hex="0058"/>
  <outline>
    <contour>
      <point x="472" y="0" type="curve" smooth="yes"/>
      <point x="522" y="0"/>
      <point x="586" y="0"/>
      <point x="637" y="0" type="curve"/>
      <point x="557" y="128"/>
      <point x="476" y="257"/>
      <point x="396" y="385" type="curve" smooth="yes"/>
      <point x="381" y="410"/>
      <point x="363" y="419"/>
      <point x="350" y="441" type="curve" smooth="yes"/>
      <point x="301" y="525"/>
      <point x="253" y="607"/>
      <point x="204" y="690" type="curve" smooth="yes"/>
      <point x="200" y="697"/>
      <point x="194" y="700"/>
      <point x="185" y="700" type="curve" smooth="yes"/>
      <point x="23" y="700" type="line"/>
      <point x="98" y="573"/>
      <point x="173" y="446"/>
      <point x="248" y="319" type="curve" smooth="yes"/>
      <point x="261" y="296"/>
      <point x="284" y="283"/>
      <point x="298" y="260" type="curve" smooth="yes"/>
      <point x="349" y="177"/>
      <point x="402" y="92"/>
      <point x="453" y="10" type="curve" smooth="yes"/>
      <point x="458" y="2"/>
      <point x="464" y="0"/>
    </contour>
    <contour>
      <point x="611" y="700" type="curve" smooth="yes"/>
      <point x="463" y="700" type="line"/>
      <point x="403" y="595"/>
      <point x="344" y="489"/>
      <point x="284" y="384" type="curve"/>
      <point x="275" y="368"/>
      <point x="285" y="355"/>
      <point x="393" y="305" type="curve"/>
      <point x="469" y="430"/>
      <point x="544" y="555"/>
      <point x="620" y="681" type="curve"/>
      <point x="624" y="688"/>
      <point x="624" y="693"/>
      <point x="620" y="697" type="curve" smooth="yes"/>
      <point x="618" y="699"/>
      <point x="615" y="700"/>
    </contour>
    <contour>
      <point x="35" y="0" type="curve"/>
      <point x="186" y="0" type="line"/>
      <point x="248" y="106"/>
      <point x="310" y="211"/>
      <point x="370" y="317" type="curve"/>
      <point x="378" y="331"/>
      <point x="366" y="346"/>
      <point x="261" y="395" type="curve"/>
      <point x="183" y="270"/>
      <point x="104" y="144"/>
      <point x="26" y="19" type="curve" smooth="yes"/>
      <point x="22" y="13"/>
      <point x="22" y="7"/>
      <point x="26" y="3" type="curve" smooth="yes"/>
      <point x="28" y="1"/>
      <point x="31" y="0"/>
    </contour>
  </outline>
</glyph>
<glyph name="bracketleft" format="1">
  <advance width="400"/>
  <unicode hex="005B"/>
  <outline>
    <contour>
      <point x="42" y="643" type="curve" smooth="yes"/>
      <point x="42" y="11" type="line" smooth="yes"/>
      <point x="42" y="1"/>
      <point x="78" y="0"/>
      <point x="202" y="0" type="curve"/>
      <point x="202" y="739" type="line" smooth="yes"/>
      <point x="202" y="745"/>
      <point x="194" y="750"/>
      <point x="168" y="750" type="curve" smooth="yes"/>
      <point x="118" y="750"/>
      <point x="92" y="750"/>
      <point x="42" y="750" type="curve"/>
      <point x="42" y="714"/>
      <point x="42" y="679"/>
    </contour>
    <contour>
      <point x="358" y="608" type="line"/>
      <point x="358" y="654"/>
      <point x="358" y="693"/>
      <point x="358" y="739" type="curve" smooth="yes"/>
      <point x="358" y="742"/>
      <point x="356" y="745"/>
      <point x="354" y="747" type="curve" smooth="yes"/>
      <point x="352" y="749"/>
      <point x="350" y="750"/>
      <point x="346" y="750" type="curve" smooth="yes"/>
      <point x="168" y="750" type="line"/>
      <point x="168" y="612"/>
      <point x="174" y="608"/>
      <point x="178" y="608" type="curve"/>
    </contour>
    <contour>
      <point x="358" y="-130" type="line"/>
      <point x="358" y="-84"/>
      <point x="358" y="-45"/>
      <point x="358" y="1" type="curve" smooth="yes"/>
      <point x="358" y="7"/>
      <point x="352" y="12"/>
      <point x="346" y="12" type="curve" smooth="yes"/>
      <point x="42" y="12" type="line"/>
      <point x="42" y="-119" type="line" smooth="yes"/>
      <point x="42" y="-125"/>
      <point x="48" y="-130"/>
      <point x="54" y="-130" type="curve" smooth="yes"/>
    </contour>
  </outline>
</glyph>
<glyph name="bracketright" format="1">
  <advance width="400"/>
  <unicode hex="005D"/>
  <outline>
    <contour>
      <point x="358" y="-23" type="curve" smooth="yes"/>
      <point x="358" y="609" type="line" smooth="yes"/>
      <point x="358" y="619"/>
      <point x="322" y="620"/>
      <point x="198" y="620" type="curve"/>
      <point x="198" y="-119" type="line" smooth="yes"/>
      <point x="198" y="-125"/>
      <point x="206" y="-130"/>
      <point x="232" y="-130" type="curve" smooth="yes"/>
      <point x="282" y="-130"/>
      <point x="308" y="-130"/>
      <point x="358" y="-130" type="curve"/>
      <point x="358" y="-94"/>
      <point x="358" y="-59"/>
    </contour>
    <contour>
      <point x="42" y="12" type="line"/>
      <point x="42" y="-34"/>
      <point x="42" y="-73"/>
      <point x="42" y="-119" type="curve" smooth="yes"/>
      <point x="42" y="-122"/>
      <point x="44" y="-125"/>
      <point x="46" y="-127" type="curve" smooth="yes"/>
      <point x="48" y="-129"/>
      <point x="50" y="-130"/>
      <point x="54" y="-130" type="curve" smooth="yes"/>
      <point x="232" y="-130" type="line"/>
      <point x="232" y="8"/>
      <point x="226" y="12"/>
      <point x="222" y="12" type="curve"/>
    </contour>
    <contour>
      <point x="42" y="750" type="line"/>
      <point x="42" y="704"/>
      <point x="42" y="665"/>
      <point x="42" y="619" type="curve" smooth="yes"/>
      <point x="42" y="613"/>
      <point x="48" y="608"/>
      <point x="54" y="608" type="curve" smooth="yes"/>
      <point x="358" y="608" type="line"/>
      <point x="358" y="739" type="line" smooth="yes"/>
      <point x="358" y="745"/>
      <point x="352" y="750"/>
      <point x="346" y="750" type="curve" smooth="yes"/>
    </contour>
  </outline>
</glyph>
<glyph name="grave" format="1">
  <advance width="600"/>
  <unicode hex="0060"/>
  <outline>
    <contour>
      <point x="423" y="368" type="curve"/>
      <point x="399" y="482"/>
      <point x="375" y="597"/>
      <point x="351" y="711" type="curve"/>
      <point x="268" y="711"/>
      <point x="226" y="711"/>
      <point x="155" y="711" type="curve" smooth="yes"/>
      <point x="147" y="711"/>
      <point x="144" y="706"/>
      <point x="147" y="698" type="curve" smooth="yes"/>
      <point x="180" y="612"/>
      <point x="228" y="484"/>
      <point x="269" y="375" type="curve" smooth="yes"/>
      <point x="271" y="369"/>
      <point x="274" y="368"/>
      <point x="279" y="368" type="curve" smooth="yes"/>
      <point x="342" y="368"/>
      <point x="385" y="368"/>
    </contour>
  </outline>
</glyph>
<glyph name="c" format="1">
  <advance width="500"/>
  <unicode hex="0063"/>
  <outline>
    <contour>
      <point x="314" y="552" type="curve" smooth="yes"/>
      <point x="159" y="552"/>
      <point x="55" y="447"/>
      <point x="55" y="301" type="curve" smooth="yes"/>
      <point x="55" y="235" type="line" smooth="yes"/>
      <point x="55" y="79"/>
      <point x="152" y="-12"/>
      <point x="314" y="-12" type="curve" smooth="yes"/>
      <point x="348" y="-12"/>
      <point x="350" y="7"/>
      <point x="313" y="130" type="curve"/>
      <point x="245" y="130"/>
      <point x="210" y="167"/>
      <point x="210" y="243" type="curve" smooth="yes"/>
      <point x="210" y="299" type="line" smooth="yes"/>
      <point x="210" y="379"/>
      <point x="254" y="410"/>
      <point x="313" y="410" type="curve" smooth="yes"/>
      <point x="354" y="410"/>
      <point x="392" y="404"/>
      <point x="430" y="390" type="curve"/>
      <point x="450" y="390" type="line"/>
      <point x="450" y="435"/>
      <point x="450" y="474"/>
      <point x="450" y="519" type="curve"/>
      <point x="450" y="522"/>
      <point x="449" y="525"/>
      <point x="447" y="527" type="curve" smooth="yes"/>
      <point x="436" y="538"/>
      <point x="388" y="552"/>
    </contour>
    <contour>
      <point x="314" y="-12" type="curve" smooth="yes"/>
      <point x="388" y="-12"/>
      <point x="436" y="2"/>
      <point x="447" y="13" type="curve" smooth="yes"/>
      <point x="449" y="15"/>
      <point x="450" y="18"/>
      <point x="450" y="21" type="curve"/>
      <point x="450" y="63"/>
      <point x="450" y="107"/>
      <point x="450" y="150" type="curve"/>
      <point x="430" y="150" type="line"/>
      <point x="392" y="136"/>
      <point x="354" y="130"/>
      <point x="313" y="130" type="curve" smooth="yes"/>
      <point x="244" y="130"/>
      <point x="195" y="154"/>
      <point x="141" y="191" type="curve"/>
      <point x="109" y="95"/>
      <point x="154" y="-12"/>
    </contour>
    <contour>
      <point x="287" y="551" type="move" name="top"/>
    </contour>
    <contour>
      <point x="287" y="-1" type="move" name="bottom"/>
    </contour>
  </outline>
</glyph>
<glyph name="f" format="1">
  <advance width="400"/>
  <unicode hex="0066"/>
  <outline>
    <contour>
      <point x="236" y="0" type="curve"/>
      <point x="236" y="33"/>
      <point x="236" y="67"/>
      <point x="236" y="100" type="curve" smooth="yes"/>
      <point x="236" y="540" type="line" smooth="yes"/>
      <point x="236" y="552"/>
      <point x="236" y="564"/>
      <point x="236" y="582" type="curve" smooth="yes"/>
      <point x="236" y="622"/>
      <point x="260" y="639"/>
      <point x="296" y="639" type="curve"/>
      <point x="309" y="762"/>
      <point x="306" y="770"/>
      <point x="284" y="770" type="curve" smooth="yes"/>
      <point x="158" y="770"/>
      <point x="86" y="695"/>
      <point x="86" y="572" type="curve" smooth="yes"/>
      <point x="86" y="11" type="line" smooth="yes"/>
      <point x="86" y="5"/>
      <point x="91" y="0"/>
      <point x="97" y="0" type="curve" smooth="yes"/>
      <point x="145" y="0"/>
      <point x="192" y="0"/>
    </contour>
    <contour>
      <point x="196" y="639" type="curve"/>
      <point x="233" y="639"/>
      <point x="249" y="639"/>
      <point x="296" y="639" type="curve" smooth="yes"/>
      <point x="324" y="639"/>
      <point x="345" y="633"/>
      <point x="370" y="625" type="curve"/>
      <point x="390" y="625" type="line"/>
      <point x="390" y="666"/>
      <point x="390" y="700"/>
      <point x="390" y="741" type="curve"/>
      <point x="390" y="744"/>
      <point x="389" y="747"/>
      <point x="387" y="749" type="curve" smooth="yes"/>
      <point x="376" y="760"/>
      <point x="334" y="770"/>
      <point x="284" y="770" type="curve" smooth="yes"/>
      <point x="218" y="770"/>
      <point x="196" y="706"/>
    </contour>
    <contour>
      <point x="30" y="540" type="curve"/>
      <point x="30" y="495"/>
      <point x="30" y="456"/>
      <point x="30" y="411" type="curve" smooth="yes"/>
      <point x="30" y="408"/>
      <point x="31" y="405"/>
      <point x="33" y="403" type="curve" smooth="yes"/>
      <point x="35" y="401"/>
      <point x="38" y="400"/>
      <point x="41" y="400" type="curve" smooth="yes"/>
      <point x="151" y="400"/>
      <point x="252" y="400"/>
      <point x="361" y="400" type="curve"/>
      <point x="361" y="445"/>
      <point x="361" y="484"/>
      <point x="361" y="529" type="curve" smooth="yes"/>
      <point x="361" y="535"/>
      <point x="356" y="540"/>
      <point x="350" y="540" type="curve" smooth="yes"/>
      <point x="245" y="540"/>
      <point x="134" y="540"/>
    </contour>
  </outline>
</glyph>
<glyph name="i" format="1">
  <advance width="350"/>
  <unicode hex="0069"/>
  <outline>
    <contour>
      <point x="30" y="540" type="curve"/>
      <point x="30" y="499"/>
      <point x="30" y="457"/>
      <point x="30" y="417" type="curve" smooth="yes"/>
      <point x="30" y="411"/>
      <point x="35" y="406"/>
      <point x="41" y="406" type="curve" smooth="yes"/>
      <point x="78" y="406"/>
      <point x="113" y="406"/>
      <point x="150" y="406" type="curve"/>
      <point x="150" y="529"/>
      <point x="147" y="540"/>
      <point x="135" y="540" type="curve" smooth="yes"/>
      <point x="98" y="540"/>
      <point x="67" y="540"/>
    </contour>
    <contour>
      <point x="260" y="0" type="curve"/>
      <point x="260" y="36"/>
      <point x="260" y="71"/>
      <point x="260" y="107" type="curve" smooth="yes"/>
      <point x="260" y="529" type="line" smooth="yes"/>
      <point x="260" y="535"/>
      <point x="255" y="540"/>
      <point x="249" y="540" type="curve" smooth="yes"/>
      <point x="110" y="540" type="line"/>
      <point x="110" y="11" type="line" smooth="yes"/>
      <point x="110" y="5"/>
      <point x="115" y="0"/>
      <point x="121" y="0" type="curve" smooth="yes"/>
      <point x="171" y="0"/>
      <point x="210" y="0"/>
    </contour>
    <contour>
      <point x="269" y="650" type="curve"/>
      <point x="269" y="789" type="line" smooth="yes"/>
      <point x="269" y="795"/>
      <point x="264" y="800"/>
      <point x="258" y="800" type="curve" smooth="yes"/>
      <point x="202" y="800"/>
      <point x="145" y="800"/>
      <point x="89" y="800" type="curve"/>
      <point x="89" y="661" type="line" smooth="yes"/>
      <point x="89" y="655"/>
      <point x="94" y="650"/>
      <point x="100" y="650" type="curve" smooth="yes"/>
      <point x="156" y="650"/>
      <point x="213" y="650"/>
    </contour>
    <contour>
      <point x="261" y="0" type="move" name="ogonek"/>
    </contour>
    <contour>
      <point x="188" y="-1" type="move" name="bottom"/>
    </contour>
  </outline>
</glyph>
<glyph name="j" format="1">
  <advance width="350"/>
  <unicode hex="006A"/>
  <outline>
    <contour>
      <point x="46" y="540" type="curve"/>
      <point x="46" y="494"/>
      <point x="46" y="455"/>
      <point x="46" y="409" type="curve" smooth="yes"/>
      <point x="46" y="403"/>
      <point x="51" y="398"/>
      <point x="57" y="398" type="curve" smooth="yes"/>
      <point x="116" y="398"/>
      <point x="176" y="398"/>
      <point x="235" y="398" type="curve"/>
      <point x="235" y="457"/>
      <point x="213" y="540"/>
      <point x="160" y="540" type="curve" smooth="yes"/>
      <point x="122" y="540"/>
      <point x="84" y="540"/>
    </contour>
    <contour>
      <point x="275" y="-38" type="curve" smooth="yes"/>
      <point x="275" y="529" type="line" smooth="yes"/>
      <point x="275" y="532"/>
      <point x="274" y="535"/>
      <point x="272" y="537" type="curve" smooth="yes"/>
      <point x="270" y="539"/>
      <point x="267" y="540"/>
      <point x="264" y="540" type="curve" smooth="yes"/>
      <point x="125" y="540" type="line"/>
      <point x="125" y="-41" type="line" smooth="yes"/>
      <point x="125" y="-101"/>
      <point x="119" y="-144"/>
      <point x="85" y="-184" type="curve"/>
      <point x="155" y="-215"/>
      <point x="275" y="-160"/>
    </contour>
    <contour>
      <point x="66" y="-108" type="curve" smooth="yes"/>
      <point x="48" y="-108"/>
      <point x="33" y="-105"/>
      <point x="15" y="-98" type="curve"/>
      <point x="-5" y="-98" type="line"/>
      <point x="-5" y="-139"/>
      <point x="-5" y="-184"/>
      <point x="-5" y="-226" type="curve" smooth="yes"/>
      <point x="-5" y="-229"/>
      <point x="-4" y="-232"/>
      <point x="-2" y="-234" type="curve" smooth="yes"/>
      <point x="5" y="-241"/>
      <point x="32" y="-250"/>
      <point x="82" y="-250" type="curve" smooth="yes"/>
      <point x="193" y="-250"/>
      <point x="275" y="-188"/>
      <point x="275" y="-38" type="curve" smooth="yes"/>
      <point x="275" y="-24"/>
      <point x="267" y="-18"/>
      <point x="125" y="-41" type="curve"/>
      <point x="125" y="-91"/>
      <point x="105" y="-108"/>
    </contour>
    <contour>
      <point x="290" y="650" type="curve"/>
      <point x="290" y="789" type="line" smooth="yes"/>
      <point x="290" y="795"/>
      <point x="285" y="800"/>
      <point x="279" y="800" type="curve" smooth="yes"/>
      <point x="223" y="800"/>
      <point x="166" y="800"/>
      <point x="110" y="800" type="curve"/>
      <point x="110" y="661" type="line" smooth="yes"/>
      <point x="110" y="655"/>
      <point x="115" y="650"/>
      <point x="121" y="650" type="curve" smooth="yes"/>
      <point x="177" y="650"/>
      <point x="234" y="650"/>
    </contour>
  </outline>
</glyph>
<glyph name="l" format="1">
  <advance width="300"/>
  <unicode hex="006C"/>
  <outline>
    <contour>
      <point x="60" y="639" type="curve"/>
      <point x="60" y="146" type="line" smooth="yes"/>
      <point x="60" y="74"/>
      <point x="129" y="18"/>
      <point x="210" y="67" type="curve"/>
      <point x="210" y="98"/>
      <point x="210" y="131"/>
      <point x="210" y="162" type="curve" smooth="yes"/>
      <point x="210" y="739" type="line" smooth="yes"/>
      <point x="210" y="742"/>
      <point x="209" y="745"/>
      <point x="207" y="747" type="curve" smooth="yes"/>
      <point x="205" y="749"/>
      <point x="202" y="750"/>
      <point x="199" y="750" type="curve" smooth="yes"/>
      <point x="153" y="750"/>
      <point x="106" y="750"/>
      <point x="60" y="750" type="curve"/>
      <point x="60" y="713"/>
      <point x="60" y="676"/>
    </contour>
    <contour>
      <point x="285" y="142" type="curve"/>
      <point x="265" y="142" type="line"/>
      <point x="253" y="142"/>
      <point x="240" y="142"/>
      <point x="228" y="142" type="curve" smooth="yes"/>
      <point x="217" y="142"/>
      <point x="210" y="148"/>
      <point x="210" y="162" type="curve"/>
      <point x="89" y="161"/>
      <point x="60" y="152"/>
      <point x="60" y="146" type="curve" smooth="yes"/>
      <point x="60" y="40"/>
      <point x="124" y="0"/>
      <point x="198" y="0" type="curve" smooth="yes"/>
      <point x="274" y="0" type="line" smooth="yes"/>
      <point x="277" y="0"/>
      <point x="280" y="1"/>
      <point x="282" y="3" type="curve" smooth="yes"/>
      <point x="284" y="5"/>
      <point x="285" y="8"/>
      <point x="285" y="11" type="curve" smooth="yes"/>
      <point x="285" y="57"/>
      <point x="285" y="96"/>
    </contour>
    <contour>
      <point x="322" y="711" type="move" name="caronslovak"/>
    </contour>
    <contour>
      <point x="137" y="730" type="move" name="top"/>
    </contour>
    <contour>
      <point x="322" y="400" type="move" name="dot"/>
    </contour>
    <contour>
      <point x="172" y="-1" type="move" name="bottom"/>
    </contour>
  </outline>
</glyph>
<glyph name="m" format="1">
  <advance width="850"/>
  <unicode hex="006D"/>
  <outline>
    <contour>
      <point x="230" y="0" type="curve"/>
      <point x="230" y="529" type="line" smooth="yes"/>
      <point x="230" y="532"/>
      <point x="229" y="535"/>
      <point x="227" y="537" type="curve" smooth="yes"/>
      <point x="225" y="539"/>
      <point x="222" y="540"/>
      <point x="219" y="540" type="curve" smooth="yes"/>
      <point x="174" y="540"/>
      <point x="125" y="540"/>
      <point x="70" y="540" type="curve"/>
      <point x="70" y="512"/>
      <point x="70" y="478"/>
      <point x="70" y="442" type="curve" smooth="yes"/>
      <point x="70" y="11" type="line" smooth="yes"/>
      <point x="70" y="5"/>
      <point x="75" y="0"/>
      <point x="81" y="0" type="curve" smooth="yes"/>
      <point x="131" y="0"/>
      <point x="180" y="0"/>
    </contour>
    <contour>
      <point x="379" y="552" type="curve" smooth="yes"/>
      <point x="329" y="552"/>
      <point x="277" y="524"/>
      <point x="221" y="464" type="curve" smooth="yes"/>
      <point x="192" y="434"/>
      <point x="191" y="397"/>
      <point x="211" y="312" type="curve"/>
      <point x="258" y="388"/>
      <point x="291" y="404"/>
      <point x="316" y="404" type="curve" smooth="yes"/>
      <point x="334" y="404"/>
      <point x="345" y="392"/>
      <point x="345" y="371" type="curve"/>
      <point x="401" y="371"/>
      <point x="505" y="386"/>
      <point x="505" y="424" type="curve" smooth="yes"/>
      <point x="505" y="501"/>
      <point x="457" y="552"/>
    </contour>
    <contour>
      <point x="505" y="0" type="curve"/>
      <point x="505" y="424" type="line"/>
      <point x="505" y="430"/>
      <point x="485" y="441"/>
      <point x="345" y="441" type="curve"/>
      <point x="345" y="417"/>
      <point x="345" y="395"/>
      <point x="345" y="371" type="curve" smooth="yes"/>
      <point x="345" y="11" type="line" smooth="yes"/>
      <point x="345" y="5"/>
      <point x="350" y="0"/>
      <point x="356" y="0" type="curve" smooth="yes"/>
      <point x="406" y="0"/>
      <point x="455" y="0"/>
    </contour>
    <contour>
      <point x="652" y="552" type="curve" smooth="yes"/>
      <point x="600" y="552"/>
      <point x="543" y="521"/>
      <point x="488" y="461" type="curve" smooth="yes"/>
      <point x="461" y="432"/>
      <point x="454" y="400"/>
      <point x="474" y="312" type="curve"/>
      <point x="525" y="385"/>
      <point x="564" y="404"/>
      <point x="588" y="404" type="curve" smooth="yes"/>
      <point x="609" y="404"/>
      <point x="620" y="392"/>
      <point x="620" y="371" type="curve"/>
      <point x="674" y="371"/>
      <point x="780" y="392"/>
      <point x="780" y="422" type="curve" smooth="yes"/>
      <point x="780" y="500"/>
      <point x="728" y="552"/>
    </contour>
    <contour>
      <point x="780" y="0" type="curve"/>
      <point x="780" y="28"/>
      <point x="780" y="62"/>
      <point x="780" y="98" type="curve" smooth="yes"/>
      <point x="780" y="422" type="line"/>
      <point x="780" y="430"/>
      <point x="756" y="441"/>
      <point x="620" y="441" type="curve"/>
      <point x="620" y="418"/>
      <point x="620" y="394"/>
      <point x="620" y="371" type="curve" smooth="yes"/>
      <point x="620" y="11" type="line" smooth="yes"/>
      <point x="620" y="5"/>
      <point x="625" y="0"/>
      <point x="631" y="0" type="curve" smooth="yes"/>
      <point x="681" y="0"/>
      <point x="730" y="0"/>
    </contour>
  </outline>
</glyph>
<glyph name="t" format="1">
  <advance width="500"/>
  <unicode hex="0074"/>
  <outline>
    <contour>
      <point x="115" y="700" type="curve"/>
      <point x="115" y="220" type="line" smooth="yes"/>
      <point x="115" y="116"/>
      <point x="186" y="44"/>
      <point x="326" y="66" type="curve"/>
      <point x="281" y="112"/>
      <point x="265" y="162"/>
      <point x="265" y="232" type="curve" smooth="yes"/>
      <point x="265" y="689" type="line" smooth="yes"/>
      <point x="265" y="695"/>
      <point x="260" y="700"/>
      <point x="254" y="700" type="curve" smooth="yes"/>
      <point x="210" y="700"/>
      <point x="163" y="700"/>
    </contour>
    <contour>
      <point x="440" y="143" type="curve"/>
      <point x="420" y="143" type="line"/>
      <point x="382" y="143"/>
      <point x="396" y="143"/>
      <point x="349" y="143" type="curve" smooth="yes"/>
      <point x="289" y="143"/>
      <point x="265" y="162"/>
      <point x="265" y="232" type="curve"/>
      <point x="144" y="258"/>
      <point x="115" y="239"/>
      <point x="115" y="220" type="curve" smooth="yes"/>
      <point x="115" y="67"/>
      <point x="202" y="0"/>
      <point x="344" y="0" type="curve" smooth="yes"/>
      <point x="429" y="0" type="line" smooth="yes"/>
      <point x="432" y="0"/>
      <point x="435" y="1"/>
      <point x="437" y="3" type="curve" smooth="yes"/>
      <point x="439" y="5"/>
      <point x="440" y="8"/>
      <point x="440" y="11" type="curve" smooth="yes"/>
      <point x="440" y="57"/>
      <point x="440" y="97"/>
    </contour>
    <contour>
      <point x="40" y="540" type="line"/>
      <point x="40" y="494"/>
      <point x="40" y="457"/>
      <point x="40" y="411" type="curve" smooth="yes"/>
      <point x="40" y="408"/>
      <point x="41" y="405"/>
      <point x="43" y="403" type="curve" smooth="yes"/>
      <point x="45" y="401"/>
      <point x="48" y="400"/>
      <point x="51" y="400" type="curve"/>
      <point x="440" y="400" type="line"/>
      <point x="440" y="446"/>
      <point x="440" y="483"/>
      <point x="440" y="529" type="curve" smooth="yes"/>
      <point x="440" y="535"/>
      <point x="435" y="540"/>
      <point x="429" y="540" type="curve"/>
    </contour>
    <contour>
      <point x="395" y="711" type="move" name="caronslovak"/>
    </contour>
    <contour>
      <point x="285" y="-1" type="move" name="bottom"/>
    </contour>
  </outline>
</glyph>
<glyph name="braceleft" format="1">
  <advance width="500"/>
  <unicode hex="007B"/>
  <outline>
    <contour>
      <point x="351" y="618" type="curve" smooth="yes"/>
      <point x="423" y="618"/>
      <point x="392" y="618"/>
      <point x="450" y="618" type="curve"/>
      <point x="470" y="618" type="line"/>
      <point x="470" y="662"/>
      <point x="470" y="705"/>
      <point x="470" y="749" type="curve"/>
      <point x="470" y="756"/>
      <point x="466" y="760"/>
      <point x="459" y="760" type="curve" smooth="yes"/>
      <point x="282" y="760" type="line" smooth="yes"/>
      <point x="198" y="760"/>
      <point x="169" y="696"/>
      <point x="169" y="657" type="curve" smooth="yes"/>
      <point x="169" y="653" type="line" smooth="yes"/>
      <point x="169" y="645"/>
      <point x="176" y="638"/>
      <point x="319" y="590" type="curve"/>
      <point x="319" y="613"/>
      <point x="327" y="618"/>
    </contour>
    <contour>
      <point x="370" y="442" type="curve" smooth="yes"/>
      <point x="370" y="525"/>
      <point x="319" y="553"/>
      <point x="319" y="590" type="curve" smooth="yes"/>
      <point x="319" y="591"/>
      <point x="319" y="648"/>
      <point x="319" y="667" type="curve"/>
      <point x="173" y="667"/>
      <point x="169" y="663"/>
      <point x="169" y="657" type="curve" smooth="yes"/>
      <point x="169" y="616" type="line" smooth="yes"/>
      <point x="169" y="520"/>
      <point x="220" y="504"/>
      <point x="220" y="444" type="curve" smooth="yes"/>
      <point x="220" y="395"/>
      <point x="167" y="371"/>
      <point x="62" y="371" type="curve" smooth="yes"/>
      <point x="30" y="371" type="line"/>
      <point x="30" y="278" type="line" smooth="yes"/>
      <point x="30" y="270"/>
      <point x="34" y="267"/>
      <point x="41" y="267" type="curve" smooth="yes"/>
      <point x="62" y="267" type="line" smooth="yes"/>
      <point x="296" y="267"/>
      <point x="370" y="348"/>
    </contour>
    <contour>
      <point x="370" y="157" type="curve" smooth="yes"/>
      <point x="370" y="256"/>
      <point x="296" y="333"/>
      <point x="62" y="333" type="curve" smooth="yes"/>
      <point x="51" y="333"/>
      <point x="41" y="333"/>
      <point x="30" y="333" type="curve"/>
      <point x="30" y="240" type="line" smooth="yes"/>
      <point x="30" y="233"/>
      <point x="34" y="229"/>
      <point x="41" y="229" type="curve" smooth="yes"/>
      <point x="62" y="229" type="line" smooth="yes"/>
      <point x="167" y="229"/>
      <point x="220" y="201"/>
      <point x="220" y="155" type="curve" smooth="yes"/>
      <point x="220" y="95"/>
      <point x="169" y="79"/>
      <point x="169" y="-17" type="curve" smooth="yes"/>
      <point x="169" y="-58" type="line" smooth="yes"/>
      <point x="169" y="-64"/>
      <point x="173" y="-68"/>
      <point x="319" y="-68" type="curve"/>
      <point x="319" y="-42"/>
      <point x="319" y="-17"/>
      <point x="319" y="9" type="curve" smooth="yes"/>
      <point x="319" y="46"/>
      <point x="370" y="74"/>
    </contour>
    <contour>
      <point x="351" y="-19" type="curve" smooth="yes"/>
      <point x="327" y="-19"/>
      <point x="319" y="-14"/>
      <point x="319" y="9" type="curve"/>
      <point x="178" y="-39"/>
      <point x="169" y="-46"/>
      <point x="169" y="-54" type="curve" smooth="yes"/>
      <point x="169" y="-58" type="line" smooth="yes"/>
      <point x="169" y="-97"/>
      <point x="198" y="-161"/>
      <point x="282" y="-161" type="curve" smooth="yes"/>
      <point x="459" y="-161" type="line" smooth="yes"/>
      <point x="466" y="-161"/>
      <point x="470" y="-157"/>
      <point x="470" y="-150" type="curve"/>
      <point x="470" y="-19" type="line"/>
      <point x="450" y="-19" type="line"/>
      <point x="392" y="-19"/>
      <point x="423" y="-19"/>
    </contour>
  </outline>
</glyph>
<glyph name="bar" format="1">
  <advance width="300"/>
  <unicode hex="007C"/>
  <outline>
    <contour>
      <point x="70" y="760" type="curve"/>
      <point x="70" y="724"/>
      <point x="70" y="689"/>
      <point x="70" y="653" type="curve" smooth="yes"/>
      <point x="70" y="-149" type="line" smooth="yes"/>
      <point x="70" y="-155"/>
      <point x="75" y="-160"/>
      <point x="81" y="-160" type="curve" smooth="yes"/>
      <point x="131" y="-160"/>
      <point x="180" y="-160"/>
      <point x="230" y="-160" type="curve"/>
      <point x="230" y="749" type="line" smooth="yes"/>
      <point x="230" y="752"/>
      <point x="229" y="755"/>
      <point x="227" y="757" type="curve" smooth="yes"/>
      <point x="225" y="759"/>
      <point x="222" y="760"/>
      <point x="219" y="760" type="curve" smooth="yes"/>
      <point x="169" y="760"/>
      <point x="120" y="760"/>
    </contour>
  </outline>
</glyph>
<glyph name="braceright" format="1">
  <advance width="500"/>
  <unicode hex="007D"/>
  <outline>
    <contour>
      <point x="149" y="21" type="curve" smooth="yes"/>
      <point x="77" y="21"/>
      <point x="108" y="21"/>
      <point x="50" y="21" type="curve"/>
      <point x="30" y="21" type="line"/>
      <point x="30" y="-23"/>
      <point x="30" y="-66"/>
      <point x="30" y="-110" type="curve"/>
      <point x="30" y="-117"/>
      <point x="34" y="-121"/>
      <point x="41" y="-121" type="curve" smooth="yes"/>
      <point x="218" y="-121" type="line" smooth="yes"/>
      <point x="302" y="-121"/>
      <point x="331" y="-57"/>
      <point x="331" y="-18" type="curve" smooth="yes"/>
      <point x="331" y="-14" type="line" smooth="yes"/>
      <point x="331" y="-6"/>
      <point x="324" y="1"/>
      <point x="181" y="49" type="curve"/>
      <point x="181" y="26"/>
      <point x="173" y="21"/>
    </contour>
    <contour>
      <point x="130" y="197" type="curve" smooth="yes"/>
      <point x="130" y="114"/>
      <point x="181" y="86"/>
      <point x="181" y="49" type="curve" smooth="yes"/>
      <point x="181" y="48"/>
      <point x="181" y="-9"/>
      <point x="181" y="-28" type="curve"/>
      <point x="327" y="-28"/>
      <point x="331" y="-24"/>
      <point x="331" y="-18" type="curve" smooth="yes"/>
      <point x="331" y="23" type="line" smooth="yes"/>
      <point x="331" y="119"/>
      <point x="280" y="135"/>
      <point x="280" y="195" type="curve" smooth="yes"/>
      <point x="280" y="244"/>
      <point x="333" y="268"/>
      <point x="438" y="268" type="curve" smooth="yes"/>
      <point x="470" y="268" type="line"/>
      <point x="470" y="361" type="line" smooth="yes"/>
      <point x="470" y="369"/>
      <point x="466" y="372"/>
      <point x="459" y="372" type="curve" smooth="yes"/>
      <point x="438" y="372" type="line" smooth="yes"/>
      <point x="204" y="372"/>
      <point x="130" y="291"/>
    </contour>
    <contour>
      <point x="130" y="482" type="curve" smooth="yes"/>
      <point x="130" y="383"/>
      <point x="204" y="306"/>
      <point x="438" y="306" type="curve" smooth="yes"/>
      <point x="449" y="306"/>
      <point x="459" y="306"/>
      <point x="470" y="306" type="curve"/>
      <point x="470" y="399" type="line" smooth="yes"/>
      <point x="470" y="406"/>
      <point x="466" y="410"/>
      <point x="459" y="410" type="curve" smooth="yes"/>
      <point x="438" y="410" type="line" smooth="yes"/>
      <point x="333" y="410"/>
      <point x="280" y="438"/>
      <point x="280" y="484" type="curve" smooth="yes"/>
      <point x="280" y="544"/>
      <point x="331" y="560"/>
      <point x="331" y="656" type="curve" smooth="yes"/>
      <point x="331" y="697" type="line" smooth="yes"/>
      <point x="331" y="703"/>
      <point x="327" y="707"/>
      <point x="181" y="707" type="curve"/>
      <point x="181" y="681"/>
      <point x="181" y="656"/>
      <point x="181" y="630" type="curve" smooth="yes"/>
      <point x="181" y="593"/>
      <point x="130" y="565"/>
    </contour>
    <contour>
      <point x="149" y="658" type="curve" smooth="yes"/>
      <point x="173" y="658"/>
      <point x="181" y="653"/>
      <point x="181" y="630" type="curve"/>
      <point x="322" y="678"/>
      <point x="331" y="685"/>
      <point x="331" y="693" type="curve" smooth="yes"/>
      <point x="331" y="697" type="line" smooth="yes"/>
      <point x="331" y="736"/>
      <point x="302" y="800"/>
      <point x="218" y="800" type="curve" smooth="yes"/>
      <point x="41" y="800" type="line" smooth="yes"/>
      <point x="34" y="800"/>
      <point x="30" y="796"/>
      <point x="30" y="789" type="curve"/>
      <point x="30" y="658" type="line"/>
      <point x="50" y="658" type="line"/>
      <point x="108" y="658"/>
      <point x="77" y="658"/>
    </contour>
  </outline>
</glyph>
<glyph name="exclamdown" format="1">
  <advance width="400"/>
  <unicode hex="00A1"/>
  <outline>
    <contour>
      <point x="146" y="250" type="line"/>
      <point x="134" y="179"/>
      <point x="122" y="109"/>
      <point x="110" y="38" type="curve"/>
      <point x="110" y="-149" type="line" smooth="yes"/>
      <point x="110" y="-156"/>
      <point x="115" y="-160"/>
      <point x="121" y="-160" type="curve" smooth="yes"/>
      <point x="193" y="-160"/>
      <point x="249" y="-160"/>
      <point x="290" y="-160" type="curve"/>
      <point x="290" y="-122"/>
      <point x="290" y="-87"/>
      <point x="290" y="-50" type="curve" smooth="yes"/>
      <point x="290" y="38" type="line"/>
      <point x="257" y="241"/>
      <point x="256" y="243"/>
      <point x="252" y="247" type="curve" smooth="yes"/>
      <point x="250" y="249"/>
      <point x="248" y="250"/>
      <point x="244" y="250" type="curve"/>
    </contour>
    <contour>
      <point x="100" y="550" type="curve"/>
      <point x="100" y="361" type="line" smooth="yes"/>
      <point x="100" y="355"/>
      <point x="105" y="350"/>
      <point x="111" y="350" type="curve" smooth="yes"/>
      <point x="174" y="350"/>
      <point x="237" y="350"/>
      <point x="300" y="350" type="curve"/>
      <point x="300" y="539" type="line" smooth="yes"/>
      <point x="300" y="545"/>
      <point x="295" y="550"/>
      <point x="289" y="550" type="curve" smooth="yes"/>
      <point x="226" y="550"/>
      <point x="163" y="550"/>
    </contour>
  </outline>
</glyph>
<glyph name="yen" format="1">
  <advance width="600"/>
  <unicode hex="00A5"/>
  <outline>
    <contour>
      <point x="10" y="468" type="line"/>
      <point x="10" y="422"/>
      <point x="10" y="415"/>
      <point x="10" y="369" type="curve" smooth="yes"/>
      <point x="10" y="366"/>
      <point x="11" y="363"/>
      <point x="13" y="361" type="curve" smooth="yes"/>
      <point x="15" y="359"/>
      <point x="18" y="358"/>
      <point x="21" y="358" type="curve"/>
      <point x="210" y="358" type="line"/>
      <point x="210" y="404"/>
      <point x="210" y="411"/>
      <point x="210" y="457" type="curve" smooth="yes"/>
      <point x="210" y="463"/>
      <point x="205" y="468"/>
      <point x="199" y="468" type="curve"/>
    </contour>
    <contour>
      <point x="390" y="468" type="line"/>
      <point x="390" y="422"/>
      <point x="390" y="415"/>
      <point x="390" y="369" type="curve" smooth="yes"/>
      <point x="390" y="363"/>
      <point x="395" y="358"/>
      <point x="401" y="358" type="curve"/>
      <point x="590" y="358" type="line"/>
      <point x="590" y="404"/>
      <point x="590" y="411"/>
      <point x="590" y="457" type="curve" smooth="yes"/>
      <point x="590" y="463"/>
      <point x="585" y="468"/>
      <point x="579" y="468" type="curve"/>
    </contour>
    <contour>
      <point x="590" y="130" type="line"/>
      <point x="590" y="176"/>
      <point x="590" y="183"/>
      <point x="590" y="229" type="curve" smooth="yes"/>
      <point x="590" y="232"/>
      <point x="589" y="235"/>
      <point x="587" y="237" type="curve" smooth="yes"/>
      <point x="585" y="239"/>
      <point x="582" y="240"/>
      <point x="579" y="240" type="curve"/>
      <point x="10" y="240" type="line"/>
      <point x="10" y="194"/>
      <point x="10" y="187"/>
      <point x="10" y="141" type="curve" smooth="yes"/>
      <point x="10" y="135"/>
      <point x="15" y="130"/>
      <point x="21" y="130" type="curve"/>
    </contour>
    <contour>
      <point x="15" y="700" type="line"/>
      <point x="85" y="547"/>
      <point x="159" y="393"/>
      <point x="228" y="239" type="curve"/>
      <point x="232" y="229"/>
      <point x="239" y="225"/>
      <point x="249" y="225" type="curve"/>
      <point x="314" y="225"/>
      <point x="345" y="302"/>
      <point x="327" y="335" type="curve"/>
      <point x="281" y="451"/>
      <point x="234" y="567"/>
      <point x="189" y="683" type="curve"/>
      <point x="186" y="694"/>
      <point x="181" y="700"/>
      <point x="172" y="700" type="curve" smooth="yes"/>
    </contour>
    <contour>
      <point x="417" y="700" type="line"/>
      <point x="372" y="578"/>
      <point x="327" y="457"/>
      <point x="282" y="335" type="curve"/>
      <point x="257" y="274"/>
      <point x="259" y="251"/>
      <point x="249" y="225" type="curve"/>
      <point x="365" y="225" type="line"/>
      <point x="436" y="377"/>
      <point x="507" y="529"/>
      <point x="578" y="681" type="curve"/>
      <point x="581" y="691"/>
      <point x="576" y="700"/>
      <point x="565" y="700" type="curve"/>
    </contour>
    <contour>
      <point x="380" y="0" type="curve"/>
      <point x="380" y="33"/>
      <point x="380" y="67"/>
      <point x="380" y="100" type="curve" smooth="yes"/>
      <point x="380" y="289" type="line" smooth="yes"/>
      <point x="380" y="295"/>
      <point x="375" y="300"/>
      <point x="220" y="300" type="curve"/>
      <point x="220" y="11" type="line" smooth="yes"/>
      <point x="220" y="8"/>
      <point x="221" y="5"/>
      <point x="223" y="3" type="curve" smooth="yes"/>
      <point x="225" y="1"/>
      <point x="228" y="0"/>
      <point x="231" y="0" type="curve" smooth="yes"/>
      <point x="281" y="0"/>
      <point x="330" y="0"/>
    </contour>
  </outline>
</glyph>
<glyph name="uni00AD" format="1">
  <advance width="600"/>
  <unicode hex="00AD"/>
  <outline>
    <contour>
      <point x="110" y="371" type="line"/>
      <point x="110" y="325"/>
      <point x="110" y="285"/>
      <point x="110" y="239" type="curve" smooth="yes"/>
      <point x="110" y="236"/>
      <point x="111" y="233"/>
      <point x="113" y="231" type="curve" smooth="yes"/>
      <point x="115" y="229"/>
      <point x="118" y="228"/>
      <point x="121" y="228" type="curve"/>
      <point x="490" y="228" type="line"/>
      <point x="490" y="274"/>
      <point x="490" y="314"/>
      <point x="490" y="360" type="curve" smooth="yes"/>
      <point x="490" y="366"/>
      <point x="485" y="371"/>
      <point x="479" y="371" type="curve"/>
    </contour>
  </outline>
</glyph>
<glyph name="paragraph" format="1">
  <advance width="600"/>
  <unicode hex="00B6"/>
  <outline>
    <contour>
      <point x="330" y="-150" type="curve"/>
      <point x="330" y="619" type="line"/>
      <point x="330" y="625"/>
      <point x="325" y="630"/>
      <point x="319" y="630" type="curve" smooth="yes"/>
      <point x="282" y="630"/>
      <point x="247" y="630"/>
      <point x="210" y="630" type="curve"/>
      <point x="210" y="-139" type="line" smooth="yes"/>
      <point x="210" y="-146"/>
      <point x="214" y="-150"/>
      <point x="221" y="-150" type="curve" smooth="yes"/>
      <point x="258" y="-150"/>
      <point x="293" y="-150"/>
    </contour>
    <contour>
      <point x="530" y="-150" type="curve"/>
      <point x="530" y="-118"/>
      <point x="530" y="-80"/>
      <point x="530" y="-40" type="curve" smooth="yes"/>
      <point x="530" y="619" type="line" smooth="yes"/>
      <point x="530" y="625"/>
      <point x="525" y="630"/>
      <point x="519" y="630" type="curve" smooth="yes"/>
      <point x="482" y="630"/>
      <point x="447" y="630"/>
      <point x="410" y="630" type="curve"/>
      <point x="410" y="-139" type="line" smooth="yes"/>
      <point x="410" y="-146"/>
      <point x="414" y="-150"/>
      <point x="421" y="-150" type="curve" smooth="yes"/>
      <point x="458" y="-150"/>
      <point x="493" y="-150"/>
    </contour>
    <contour>
      <point x="258" y="700" type="line" smooth="yes"/>
      <point x="124" y="700"/>
      <point x="31" y="631"/>
      <point x="31" y="488" type="curve" smooth="yes"/>
      <point x="31" y="402" type="line" smooth="yes"/>
      <point x="31" y="294"/>
      <point x="98" y="218"/>
      <point x="199" y="218" type="curve" smooth="yes"/>
      <point x="309" y="218" type="line" smooth="yes"/>
      <point x="317" y="218"/>
      <point x="324" y="225"/>
      <point x="324" y="330" type="curve"/>
      <point x="315" y="330" type="line" smooth="yes"/>
      <point x="293" y="330"/>
      <point x="270" y="346"/>
      <point x="270" y="395" type="curve" smooth="yes"/>
      <point x="270" y="492" type="line" smooth="yes"/>
      <point x="270" y="541"/>
      <point x="294" y="563"/>
      <point x="329" y="563" type="curve" smooth="yes"/>
      <point x="410" y="563"/>
      <point x="501" y="563"/>
      <point x="568" y="563" type="curve"/>
      <point x="579" y="563" type="line"/>
      <point x="579" y="583"/>
      <point x="579" y="598"/>
      <point x="579" y="689" type="curve" smooth="yes"/>
      <point x="579" y="692"/>
      <point x="578" y="695"/>
      <point x="576" y="697" type="curve" smooth="yes"/>
      <point x="574" y="699"/>
      <point x="571" y="700"/>
      <point x="568" y="700" type="curve" smooth="yes"/>
    </contour>
  </outline>
</glyph>
<glyph name="Atilde" format="1">
  <advance width="600"/>
  <unicode hex="00C3"/>
  <outline>
    <contour>
      <point x="186" y="0" type="curve"/>
      <point x="266" y="433"/>
      <point x="280" y="511"/>
      <point x="302" y="628" type="curve"/>
      <point x="308" y="660"/>
      <point x="329" y="681"/>
      <point x="421" y="700" type="curve"/>
      <point x="169" y="700" type="line"/>
      <point x="149" y="596"/>
      <point x="103" y="355"/>
      <point x="37" y="13" type="curve"/>
      <point x="35" y="3"/>
      <point x="41" y="0"/>
      <point x="45" y="0" type="curve" smooth="yes"/>
      <point x="92" y="0"/>
      <point x="139" y="0"/>
    </contour>
    <contour>
      <point x="566" y="0" type="curve"/>
      <point x="512" y="277"/>
      <point x="467" y="515"/>
      <point x="433" y="689" type="curve"/>
      <point x="432" y="694"/>
      <point x="431" y="695"/>
      <point x="429" y="697" type="curve" smooth="yes"/>
      <point x="426" y="700"/>
      <point x="425" y="700"/>
      <point x="421" y="700" type="curve"/>
      <point x="277" y="700"/>
      <point x="257" y="689"/>
      <point x="257" y="556" type="curve"/>
      <point x="273" y="556"/>
      <point x="294" y="556"/>
      <point x="306" y="556" type="curve" smooth="yes"/>
      <point x="310" y="556"/>
      <point x="313" y="555"/>
      <point x="314" y="550" type="curve"/>
      <point x="335" y="432"/>
      <point x="359" y="304"/>
      <point x="412" y="11" type="curve"/>
      <point x="413" y="6"/>
      <point x="414" y="4"/>
      <point x="415" y="3" type="curve" smooth="yes"/>
      <point x="417" y="1"/>
      <point x="419" y="0"/>
      <point x="423" y="0" type="curve" smooth="yes"/>
      <point x="471" y="0"/>
      <point x="518" y="0"/>
    </contour>
    <contour>
      <point x="147" y="292" type="line"/>
      <point x="147" y="161" type="line" smooth="yes"/>
      <point x="147" y="158"/>
      <point x="148" y="155"/>
      <point x="150" y="153" type="curve" smooth="yes"/>
      <point x="152" y="151"/>
      <point x="155" y="150"/>
      <point x="158" y="150" type="curve"/>
      <point x="467" y="150" type="line"/>
      <point x="467" y="288"/>
      <point x="462" y="292"/>
      <point x="456" y="292" type="curve" smooth="yes"/>
    </contour>
    <contour>
      <point x="410" y="907" type="curve" smooth="yes"/>
      <point x="337" y="907"/>
      <point x="286" y="962"/>
      <point x="196" y="962" type="curve" smooth="yes"/>
      <point x="151" y="962"/>
      <point x="121" y="948"/>
      <point x="100" y="925" type="curve" smooth="yes"/>
      <point x="93" y="917"/>
      <point x="93" y="913"/>
      <point x="93" y="902" type="curve" smooth="yes"/>
      <point x="93" y="873"/>
      <point x="93" y="817"/>
      <point x="93" y="780" type="curve"/>
      <point x="113" y="780" type="line"/>
      <point x="133" y="808"/>
      <point x="159" y="820"/>
      <point x="190" y="820" type="curve" smooth="yes"/>
      <point x="263" y="820"/>
      <point x="314" y="765"/>
      <point x="404" y="765" type="curve" smooth="yes"/>
      <point x="449" y="765"/>
      <point x="479" y="779"/>
      <point x="500" y="802" type="curve" smooth="yes"/>
      <point x="507" y="809"/>
      <point x="507" y="813"/>
      <point x="507" y="825" type="curve" smooth="yes"/>
      <point x="507" y="853"/>
      <point x="507" y="910"/>
      <point x="507" y="947" type="curve"/>
      <point x="487" y="947" type="line"/>
      <point x="467" y="918"/>
      <point x="441" y="907"/>
    </contour>
  </outline>
</glyph>
<glyph name="AE" format="1">
  <advance width="800"/>
  <unicode hex="00C6"/>
  <outline>
    <contour>
      <point x="166" y="0" type="curve"/>
      <point x="224" y="192"/>
      <point x="285" y="396"/>
      <point x="337" y="572" type="curve" smooth="yes"/>
      <point x="364" y="662"/>
      <point x="373" y="688"/>
      <point x="436" y="700" type="curve"/>
      <point x="220" y="700" type="line"/>
      <point x="156" y="482"/>
      <point x="81" y="234"/>
      <point x="14" y="13" type="curve" smooth="yes"/>
      <point x="11" y="3"/>
      <point x="19" y="0"/>
      <point x="23" y="0" type="curve" smooth="yes"/>
      <point x="71" y="0"/>
      <point x="118" y="0"/>
    </contour>
    <contour>
      <point x="502" y="0" type="curve"/>
      <point x="502" y="229"/>
      <point x="502" y="459"/>
      <point x="502" y="689" type="curve" smooth="yes"/>
      <point x="502" y="696"/>
      <point x="497" y="700"/>
      <point x="490" y="700" type="curve"/>
      <point x="343" y="700"/>
      <point x="270" y="714"/>
      <point x="270" y="561" type="curve"/>
      <point x="342" y="561" type="line"/>
      <point x="347" y="561"/>
      <point x="350" y="560"/>
      <point x="350" y="550" type="curve" smooth="yes"/>
      <point x="350" y="369"/>
      <point x="350" y="190"/>
      <point x="350" y="7" type="curve" smooth="yes"/>
      <point x="350" y="1"/>
      <point x="355" y="0"/>
      <point x="361" y="0" type="curve" smooth="yes"/>
      <point x="407" y="0"/>
      <point x="456" y="0"/>
    </contour>
    <contour>
      <point x="158" y="259" type="line"/>
      <point x="158" y="136" type="line"/>
      <point x="158" y="130"/>
      <point x="163" y="125"/>
      <point x="169" y="125" type="curve"/>
      <point x="376" y="125" type="line"/>
      <point x="376" y="248" type="line"/>
      <point x="376" y="256"/>
      <point x="373" y="259"/>
      <point x="365" y="259" type="curve"/>
    </contour>
    <contour>
      <point x="386" y="700" type="line"/>
      <point x="386" y="572" type="line"/>
      <point x="386" y="566"/>
      <point x="391" y="561"/>
      <point x="397" y="561" type="curve" smooth="yes"/>
      <point x="755" y="561" type="line"/>
      <point x="755" y="605"/>
      <point x="755" y="645"/>
      <point x="755" y="689" type="curve" smooth="yes"/>
      <point x="755" y="692"/>
      <point x="754" y="695"/>
      <point x="752" y="697" type="curve" smooth="yes"/>
      <point x="750" y="699"/>
      <point x="747" y="700"/>
      <point x="744" y="700" type="curve"/>
    </contour>
    <contour>
      <point x="390" y="418" type="line"/>
      <point x="390" y="297" type="line"/>
      <point x="390" y="290"/>
      <point x="394" y="286"/>
      <point x="401" y="286" type="curve" smooth="yes"/>
      <point x="715" y="286" type="line"/>
      <point x="715" y="328"/>
      <point x="715" y="365"/>
      <point x="715" y="407" type="curve" smooth="yes"/>
      <point x="715" y="414"/>
      <point x="711" y="418"/>
      <point x="704" y="418" type="curve"/>
    </contour>
    <contour>
      <point x="440" y="139" type="line"/>
      <point x="440" y="11" type="line" smooth="yes"/>
      <point x="440" y="5"/>
      <point x="445" y="0"/>
      <point x="451" y="0" type="curve" smooth="yes"/>
      <point x="755" y="0" type="line"/>
      <point x="755" y="44"/>
      <point x="755" y="84"/>
      <point x="755" y="128" type="curve" smooth="yes"/>
      <point x="755" y="134"/>
      <point x="750" y="139"/>
      <point x="744" y="139" type="curve" smooth="yes"/>
    </contour>
    <contour>
      <point x="429" y="711" type="move" name="top"/>
    </contour>
  </outline>
</glyph>
<glyph name="Eacute" format="1">
  <advance width="550"/>
  <unicode hex="00C9"/>
  <outline>
    <contour>
      <point x="30" y="700" type="line"/>
      <point x="30" y="657"/>
      <point x="30" y="612"/>
      <point x="30" y="569" type="curve" smooth="yes"/>
      <point x="30" y="566"/>
      <point x="31" y="563"/>
      <point x="33" y="561" type="curve" smooth="yes"/>
      <point x="35" y="559"/>
      <point x="38" y="558"/>
      <point x="41" y="558" type="curve" smooth="yes"/>
      <point x="500" y="558" type="line"/>
      <point x="500" y="601"/>
      <point x="500" y="646"/>
      <point x="500" y="689" type="curve" smooth="yes"/>
      <point x="500" y="692"/>
      <point x="499" y="695"/>
      <point x="497" y="697" type="curve" smooth="yes"/>
      <point x="495" y="699"/>
      <point x="492" y="700"/>
      <point x="489" y="700" type="curve" smooth="yes"/>
    </contour>
    <contour>
      <point x="235" y="100" type="curve"/>
      <point x="235" y="639" type="line" smooth="yes"/>
      <point x="235" y="645"/>
      <point x="230" y="650"/>
      <point x="75" y="650" type="curve"/>
      <point x="75" y="111" type="line"/>
      <point x="75" y="105"/>
      <point x="80" y="100"/>
    </contour>
    <contour>
      <point x="75" y="142" type="line"/>
      <point x="75" y="11" type="line" smooth="yes"/>
      <point x="75" y="5"/>
      <point x="80" y="0"/>
      <point x="86" y="0" type="curve" smooth="yes"/>
      <point x="500" y="0" type="line"/>
      <point x="500" y="43"/>
      <point x="500" y="88"/>
      <point x="500" y="131" type="curve" smooth="yes"/>
      <point x="500" y="137"/>
      <point x="495" y="142"/>
      <point x="489" y="142" type="curve" smooth="yes"/>
    </contour>
    <contour>
      <point x="145" y="420" type="line"/>
      <point x="145" y="291"/>
      <point x="150" y="282"/>
      <point x="156" y="282" type="curve" smooth="yes"/>
      <point x="440" y="282" type="line"/>
      <point x="440" y="320"/>
      <point x="440" y="363"/>
      <point x="440" y="409" type="curve" smooth="yes"/>
      <point x="440" y="412"/>
      <point x="439" y="415"/>
      <point x="437" y="417" type="curve" smooth="yes"/>
      <point x="435" y="419"/>
      <point x="432" y="420"/>
      <point x="429" y="420" type="curve" smooth="yes"/>
    </contour>
    <contour>
      <point x="315" y="775" type="curve" smooth="yes"/>
      <point x="323" y="775"/>
      <point x="328" y="778"/>
      <point x="331" y="781" type="curve" smooth="yes"/>
      <point x="403" y="858"/>
      <point x="428" y="887"/>
      <point x="479" y="943" type="curve" smooth="yes"/>
      <point x="484" y="949"/>
      <point x="481" y="957"/>
      <point x="473" y="957" type="curve" smooth="yes"/>
      <point x="402" y="957"/>
      <point x="384" y="957"/>
      <point x="301" y="957" type="curve"/>
      <point x="266" y="896"/>
      <point x="230" y="836"/>
      <point x="195" y="775" type="curve"/>
      <point x="233" y="775"/>
      <point x="252" y="775"/>
    </contour>
  </outline>
</glyph>
<glyph name="Ecircumflex" format="1">
  <advance width="550"/>
  <unicode hex="00CA"/>
  <outline>
    <contour>
      <point x="30" y="700" type="line"/>
      <point x="30" y="657"/>
      <point x="30" y="612"/>
      <point x="30" y="569" type="curve" smooth="yes"/>
      <point x="30" y="566"/>
      <point x="31" y="563"/>
      <point x="33" y="561" type="curve" smooth="yes"/>
      <point x="35" y="559"/>
      <point x="38" y="558"/>
      <point x="41" y="558" type="curve" smooth="yes"/>
      <point x="500" y="558" type="line"/>
      <point x="500" y="601"/>
      <point x="500" y="646"/>
      <point x="500" y="689" type="curve" smooth="yes"/>
      <point x="500" y="692"/>
      <point x="499" y="695"/>
      <point x="497" y="697" type="curve" smooth="yes"/>
      <point x="495" y="699"/>
      <point x="492" y="700"/>
      <point x="489" y="700" type="curve" smooth="yes"/>
    </contour>
    <contour>
      <point x="235" y="100" type="curve"/>
      <point x="235" y="639" type="line" smooth="yes"/>
      <point x="235" y="645"/>
      <point x="230" y="650"/>
      <point x="75" y="650" type="curve"/>
      <point x="75" y="111" type="line"/>
      <point x="75" y="105"/>
      <point x="80" y="100"/>
    </contour>
    <contour>
      <point x="75" y="142" type="line"/>
      <point x="75" y="11" type="line" smooth="yes"/>
      <point x="75" y="5"/>
      <point x="80" y="0"/>
      <point x="86" y="0" type="curve" smooth="yes"/>
      <point x="500" y="0" type="line"/>
      <point x="500" y="43"/>
      <point x="500" y="88"/>
      <point x="500" y="131" type="curve" smooth="yes"/>
      <point x="500" y="137"/>
      <point x="495" y="142"/>
      <point x="489" y="142" type="curve" smooth="yes"/>
    </contour>
    <contour>
      <point x="145" y="420" type="line"/>
      <point x="145" y="291"/>
      <point x="150" y="282"/>
      <point x="156" y="282" type="curve" smooth="yes"/>
      <point x="440" y="282" type="line"/>
      <point x="440" y="320"/>
      <point x="440" y="363"/>
      <point x="440" y="409" type="curve" smooth="yes"/>
      <point x="440" y="412"/>
      <point x="439" y="415"/>
      <point x="437" y="417" type="curve" smooth="yes"/>
      <point x="435" y="419"/>
      <point x="432" y="420"/>
      <point x="429" y="420" type="curve" smooth="yes"/>
    </contour>
    <contour>
      <point x="163" y="775" type="line"/>
      <point x="208" y="813"/>
      <point x="255" y="852"/>
      <point x="318" y="905" type="curve"/>
      <point x="267" y="946"/>
      <point x="255" y="947"/>
      <point x="247" y="947" type="curve"/>
      <point x="178" y="947" type="line"/>
      <point x="152" y="920"/>
      <point x="72" y="837"/>
      <point x="43" y="807" type="curve" smooth="yes"/>
      <point x="27" y="790"/>
      <point x="25" y="788"/>
      <point x="25" y="783" type="curve" smooth="yes"/>
      <point x="25" y="779"/>
      <point x="28" y="775"/>
      <point x="36" y="775" type="curve"/>
    </contour>
    <contour>
      <point x="509" y="775" type="curve"/>
      <point x="462" y="825"/>
      <point x="381" y="909"/>
      <point x="362" y="928" type="curve" smooth="yes"/>
      <point x="346" y="944"/>
      <point x="342" y="947"/>
      <point x="332" y="947" type="curve" smooth="yes"/>
      <point x="244" y="947" type="line"/>
      <point x="239" y="947"/>
      <point x="232" y="944"/>
      <point x="205" y="905" type="curve"/>
      <point x="269" y="851"/>
      <point x="327" y="802"/>
      <point x="348" y="785" type="curve" smooth="yes"/>
      <point x="357" y="777"/>
      <point x="362" y="775"/>
      <point x="377" y="775" type="curve" smooth="yes"/>
      <point x="429" y="775"/>
      <point x="481" y="775"/>
    </contour>
  </outline>
</glyph>
<glyph name="Edieresis" format="1">
  <advance width="550"/>
  <unicode hex="00CB"/>
  <outline>
    <contour>
      <point x="30" y="700" type="line"/>
      <point x="30" y="657"/>
      <point x="30" y="612"/>
      <point x="30" y="569" type="curve" smooth="yes"/>
      <point x="30" y="566"/>
      <point x="31" y="563"/>
      <point x="33" y="561" type="curve" smooth="yes"/>
      <point x="35" y="559"/>
      <point x="38" y="558"/>
      <point x="41" y="558" type="curve" smooth="yes"/>
      <point x="500" y="558" type="line"/>
      <point x="500" y="601"/>
      <point x="500" y="646"/>
      <point x="500" y="689" type="curve" smooth="yes"/>
      <point x="500" y="692"/>
      <point x="499" y="695"/>
      <point x="497" y="697" type="curve" smooth="yes"/>
      <point x="495" y="699"/>
      <point x="492" y="700"/>
      <point x="489" y="700" type="curve" smooth="yes"/>
    </contour>
    <contour>
      <point x="235" y="100" type="curve"/>
      <point x="235" y="639" type="line" smooth="yes"/>
      <point x="235" y="645"/>
      <point x="230" y="650"/>
      <point x="75" y="650" type="curve"/>
      <point x="75" y="111" type="line"/>
      <point x="75" y="105"/>
      <point x="80" y="100"/>
    </contour>
    <contour>
      <point x="75" y="142" type="line"/>
      <point x="75" y="11" type="line" smooth="yes"/>
      <point x="75" y="5"/>
      <point x="80" y="0"/>
      <point x="86" y="0" type="curve" smooth="yes"/>
      <point x="500" y="0" type="line"/>
      <point x="500" y="43"/>
      <point x="500" y="88"/>
      <point x="500" y="131" type="curve" smooth="yes"/>
      <point x="500" y="137"/>
      <point x="495" y="142"/>
      <point x="489" y="142" type="curve" smooth="yes"/>
    </contour>
    <contour>
      <point x="145" y="420" type="line"/>
      <point x="145" y="291"/>
      <point x="150" y="282"/>
      <point x="156" y="282" type="curve" smooth="yes"/>
      <point x="440" y="282" type="line"/>
      <point x="440" y="320"/>
      <point x="440" y="363"/>
      <point x="440" y="409" type="curve" smooth="yes"/>
      <point x="440" y="412"/>
      <point x="439" y="415"/>
      <point x="437" y="417" type="curve" smooth="yes"/>
      <point x="435" y="419"/>
      <point x="432" y="420"/>
      <point x="429" y="420" type="curve" smooth="yes"/>
    </contour>
    <contour>
      <point x="228" y="788" type="curve"/>
      <point x="228" y="924" type="line" smooth="yes"/>
      <point x="228" y="930"/>
      <point x="223" y="935"/>
      <point x="217" y="935" type="curve" smooth="yes"/>
      <point x="169" y="935"/>
      <point x="120" y="935"/>
      <point x="72" y="935" type="curve"/>
      <point x="72" y="799" type="line" smooth="yes"/>
      <point x="72" y="793"/>
      <point x="77" y="788"/>
      <point x="83" y="788" type="curve" smooth="yes"/>
      <point x="131" y="788"/>
      <point x="180" y="788"/>
    </contour>
    <contour>
      <point x="448" y="788" type="curve"/>
      <point x="448" y="924" type="line" smooth="yes"/>
      <point x="448" y="930"/>
      <point x="443" y="935"/>
      <point x="437" y="935" type="curve" smooth="yes"/>
      <point x="389" y="935"/>
      <point x="340" y="935"/>
      <point x="292" y="935" type="curve"/>
      <point x="292" y="799" type="line" smooth="yes"/>
      <point x="292" y="793"/>
      <point x="297" y="788"/>
      <point x="303" y="788" type="curve" smooth="yes"/>
      <point x="351" y="788"/>
      <point x="400" y="788"/>
    </contour>
  </outline>
</glyph>
<glyph name="Igrave" format="1">
  <advance width="500"/>
  <unicode hex="00CC"/>
  <outline>
    <contour>
      <point x="330" y="50" type="curve"/>
      <point x="330" y="639" type="line" smooth="yes"/>
      <point x="330" y="645"/>
      <point x="325" y="650"/>
      <point x="170" y="650" type="curve"/>
      <point x="170" y="61" type="line" smooth="yes"/>
      <point x="170" y="55"/>
      <point x="175" y="50"/>
    </contour>
    <contour>
      <point x="70" y="700" type="line"/>
      <point x="70" y="657"/>
      <point x="70" y="612"/>
      <point x="70" y="569" type="curve"/>
      <point x="70" y="566"/>
      <point x="71" y="563"/>
      <point x="73" y="561" type="curve" smooth="yes"/>
      <point x="75" y="559"/>
      <point x="78" y="558"/>
      <point x="81" y="558" type="curve" smooth="yes"/>
      <point x="430" y="558" type="line"/>
      <point x="430" y="601"/>
      <point x="430" y="646"/>
      <point x="430" y="689" type="curve" smooth="yes"/>
      <point x="430" y="695"/>
      <point x="425" y="700"/>
      <point x="419" y="700" type="curve" smooth="yes"/>
    </contour>
    <contour>
      <point x="70" y="142" type="line"/>
      <point x="70" y="99"/>
      <point x="70" y="54"/>
      <point x="70" y="11" type="curve"/>
      <point x="70" y="8"/>
      <point x="71" y="5"/>
      <point x="73" y="3" type="curve" smooth="yes"/>
      <point x="75" y="1"/>
      <point x="78" y="0"/>
      <point x="81" y="0" type="curve" smooth="yes"/>
      <point x="430" y="0" type="line"/>
      <point x="430" y="43"/>
      <point x="430" y="88"/>
      <point x="430" y="131" type="curve" smooth="yes"/>
      <point x="430" y="137"/>
      <point x="425" y="142"/>
      <point x="419" y="142" type="curve" smooth="yes"/>
    </contour>
    <contour>
      <point x="315" y="775" type="curve"/>
      <point x="280" y="836"/>
      <point x="244" y="896"/>
      <point x="209" y="957" type="curve"/>
      <point x="126" y="957"/>
      <point x="108" y="957"/>
      <point x="37" y="957" type="curve" smooth="yes"/>
      <point x="29" y="957"/>
      <point x="26" y="949"/>
      <point x="31" y="943" type="curve" smooth="yes"/>
      <point x="82" y="887"/>
      <point x="107" y="858"/>
      <point x="179" y="781" type="curve" smooth="yes"/>
      <point x="182" y="778"/>
      <point x="187" y="775"/>
      <point x="195" y="775" type="curve" smooth="yes"/>
      <point x="258" y="775"/>
      <point x="277" y="775"/>
    </contour>
  </outline>
</glyph>
<glyph name="Iacute" format="1">
  <advance width="500"/>
  <unicode hex="00CD"/>
  <outline>
    <contour>
      <point x="330" y="50" type="curve"/>
      <point x="330" y="639" type="line" smooth="yes"/>
      <point x="330" y="645"/>
      <point x="325" y="650"/>
      <point x="170" y="650" type="curve"/>
      <point x="170" y="61" type="line" smooth="yes"/>
      <point x="170" y="55"/>
      <point x="175" y="50"/>
    </contour>
    <contour>
      <point x="70" y="700" type="line"/>
      <point x="70" y="657"/>
      <point x="70" y="612"/>
      <point x="70" y="569" type="curve"/>
      <point x="70" y="566"/>
      <point x="71" y="563"/>
      <point x="73" y="561" type="curve" smooth="yes"/>
      <point x="75" y="559"/>
      <point x="78" y="558"/>
      <point x="81" y="558" type="curve" smooth="yes"/>
      <point x="430" y="558" type="line"/>
      <point x="430" y="601"/>
      <point x="430" y="646"/>
      <point x="430" y="689" type="curve" smooth="yes"/>
      <point x="430" y="695"/>
      <point x="425" y="700"/>
      <point x="419" y="700" type="curve" smooth="yes"/>
    </contour>
    <contour>
      <point x="70" y="142" type="line"/>
      <point x="70" y="99"/>
      <point x="70" y="54"/>
      <point x="70" y="11" type="curve"/>
      <point x="70" y="8"/>
      <point x="71" y="5"/>
      <point x="73" y="3" type="curve" smooth="yes"/>
      <point x="75" y="1"/>
      <point x="78" y="0"/>
      <point x="81" y="0" type="curve" smooth="yes"/>
      <point x="430" y="0" type="line"/>
      <point x="430" y="43"/>
      <point x="430" y="88"/>
      <point x="430" y="131" type="curve" smooth="yes"/>
      <point x="430" y="137"/>
      <point x="425" y="142"/>
      <point x="419" y="142" type="curve" smooth="yes"/>
    </contour>
    <contour>
      <point x="305" y="775" type="curve" smooth="yes"/>
      <point x="313" y="775"/>
      <point x="318" y="778"/>
      <point x="321" y="781" type="curve" smooth="yes"/>
      <point x="393" y="858"/>
      <point x="418" y="887"/>
      <point x="469" y="943" type="curve" smooth="yes"/>
      <point x="474" y="949"/>
      <point x="471" y="957"/>
      <point x="463" y="957" type="curve" smooth="yes"/>
      <point x="392" y="957"/>
      <point x="374" y="957"/>
      <point x="291" y="957" type="curve"/>
      <point x="256" y="896"/>
      <point x="220" y="836"/>
      <point x="185" y="775" type="curve"/>
      <point x="223" y="775"/>
      <point x="242" y="775"/>
    </contour>
  </outline>
</glyph>
<glyph name="Icircumflex" format="1">
  <advance width="500"/>
  <unicode hex="00CE"/>
  <outline>
    <contour>
      <point x="330" y="50" type="curve"/>
      <point x="330" y="639" type="line" smooth="yes"/>
      <point x="330" y="645"/>
      <point x="325" y="650"/>
      <point x="170" y="650" type="curve"/>
      <point x="170" y="61" type="line" smooth="yes"/>
      <point x="170" y="55"/>
      <point x="175" y="50"/>
    </contour>
    <contour>
      <point x="70" y="700" type="line"/>
      <point x="70" y="657"/>
      <point x="70" y="612"/>
      <point x="70" y="569" type="curve"/>
      <point x="70" y="566"/>
      <point x="71" y="563"/>
      <point x="73" y="561" type="curve" smooth="yes"/>
      <point x="75" y="559"/>
      <point x="78" y="558"/>
      <point x="81" y="558" type="curve" smooth="yes"/>
      <point x="430" y="558" type="line"/>
      <point x="430" y="601"/>
      <point x="430" y="646"/>
      <point x="430" y="689" type="curve" smooth="yes"/>
      <point x="430" y="695"/>
      <point x="425" y="700"/>
      <point x="419" y="700" type="curve" smooth="yes"/>
    </contour>
    <contour>
      <point x="70" y="142" type="line"/>
      <point x="70" y="99"/>
      <point x="70" y="54"/>
      <point x="70" y="11" type="curve"/>
      <point x="70" y="8"/>
      <point x="71" y="5"/>
      <point x="73" y="3" type="curve" smooth="yes"/>
      <point x="75" y="1"/>
      <point x="78" y="0"/>
      <point x="81" y="0" type="curve" smooth="yes"/>
      <point x="430" y="0" type="line"/>
      <point x="430" y="43"/>
      <point x="430" y="88"/>
      <point x="430" y="131" type="curve" smooth="yes"/>
      <point x="430" y="137"/>
      <point x="425" y="142"/>
      <point x="419" y="142" type="curve" smooth="yes"/>
    </contour>
    <contour>
      <point x="153" y="775" type="line"/>
      <point x="198" y="813"/>
      <point x="245" y="852"/>
      <point x="308" y="905" type="curve"/>
      <point x="257" y="946"/>
      <point x="245" y="947"/>
      <point x="237" y="947" type="curve"/>
      <point x="168" y="947" type="line"/>
      <point x="142" y="920"/>
      <point x="62" y="837"/>
      <point x="33" y="807" type="curve" smooth="yes"/>
      <point x="17" y="790"/>
      <point x="15" y="788"/>
      <point x="15" y="783" type="curve" smooth="yes"/>
      <point x="15" y="779"/>
      <point x="18" y="775"/>
      <point x="26" y="775" type="curve"/>
    </contour>
    <contour>
      <point x="499" y="775" type="curve"/>
      <point x="452" y="825"/>
      <point x="371" y="909"/>
      <point x="352" y="928" type="curve" smooth="yes"/>
      <point x="336" y="944"/>
      <point x="332" y="947"/>
      <point x="322" y="947" type="curve" smooth="yes"/>
      <point x="234" y="947" type="line"/>
      <point x="229" y="947"/>
      <point x="222" y="944"/>
      <point x="195" y="905" type="curve"/>
      <point x="259" y="851"/>
      <point x="317" y="802"/>
      <point x="338" y="785" type="curve" smooth="yes"/>
      <point x="347" y="777"/>
      <point x="352" y="775"/>
      <point x="367" y="775" type="curve" smooth="yes"/>
      <point x="419" y="775"/>
      <point x="471" y="775"/>
    </contour>
  </outline>
</glyph>
<glyph name="Idieresis" format="1">
  <advance width="500"/>
  <unicode hex="00CF"/>
  <outline>
    <contour>
      <point x="330" y="50" type="curve"/>
      <point x="330" y="639" type="line" smooth="yes"/>
      <point x="330" y="645"/>
      <point x="325" y="650"/>
      <point x="170" y="650" type="curve"/>
      <point x="170" y="61" type="line" smooth="yes"/>
      <point x="170" y="55"/>
      <point x="175" y="50"/>
    </contour>
    <contour>
      <point x="70" y="700" type="line"/>
      <point x="70" y="657"/>
      <point x="70" y="612"/>
      <point x="70" y="569" type="curve"/>
      <point x="70" y="566"/>
      <point x="71" y="563"/>
      <point x="73" y="561" type="curve" smooth="yes"/>
      <point x="75" y="559"/>
      <point x="78" y="558"/>
      <point x="81" y="558" type="curve" smooth="yes"/>
      <point x="430" y="558" type="line"/>
      <point x="430" y="601"/>
      <point x="430" y="646"/>
      <point x="430" y="689" type="curve" smooth="yes"/>
      <point x="430" y="695"/>
      <point x="425" y="700"/>
      <point x="419" y="700" type="curve" smooth="yes"/>
    </contour>
    <contour>
      <point x="70" y="142" type="line"/>
      <point x="70" y="99"/>
      <point x="70" y="54"/>
      <point x="70" y="11" type="curve"/>
      <point x="70" y="8"/>
      <point x="71" y="5"/>
      <point x="73" y="3" type="curve" smooth="yes"/>
      <point x="75" y="1"/>
      <point x="78" y="0"/>
      <point x="81" y="0" type="curve" smooth="yes"/>
      <point x="430" y="0" type="line"/>
      <point x="430" y="43"/>
      <point x="430" y="88"/>
      <point x="430" y="131" type="curve" smooth="yes"/>
      <point x="430" y="137"/>
      <point x="425" y="142"/>
      <point x="419" y="142" type="curve" smooth="yes"/>
    </contour>
    <contour>
      <point x="218" y="788" type="curve"/>
      <point x="218" y="924" type="line" smooth="yes"/>
      <point x="218" y="930"/>
      <point x="213" y="935"/>
      <point x="207" y="935" type="curve" smooth="yes"/>
      <point x="159" y="935"/>
      <point x="110" y="935"/>
      <point x="62" y="935" type="curve"/>
      <point x="62" y="799" type="line" smooth="yes"/>
      <point x="62" y="793"/>
      <point x="67" y="788"/>
      <point x="73" y="788" type="curve" smooth="yes"/>
      <point x="121" y="788"/>
      <point x="170" y="788"/>
    </contour>
    <contour>
      <point x="438" y="788" type="curve"/>
      <point x="438" y="924" type="line" smooth="yes"/>
      <point x="438" y="930"/>
      <point x="433" y="935"/>
      <point x="427" y="935" type="curve" smooth="yes"/>
      <point x="379" y="935"/>
      <point x="330" y="935"/>
      <point x="282" y="935" type="curve"/>
      <point x="282" y="799" type="line" smooth="yes"/>
      <point x="282" y="793"/>
      <point x="287" y="788"/>
      <point x="293" y="788" type="curve" smooth="yes"/>
      <point x="341" y="788"/>
      <point x="390" y="788"/>
    </contour>
  </outline>
</glyph>
<glyph name="Eth" format="1">
  <advance width="600"/>
  <unicode hex="00D0"/>
  <outline>
    <contour>
      <point x="10" y="410" type="line"/>
      <point x="10" y="376"/>
      <point x="10" y="345"/>
      <point x="10" y="311" type="curve" smooth="yes"/>
      <point x="10" y="304"/>
      <point x="14" y="300"/>
      <point x="21" y="300" type="curve" smooth="yes"/>
      <point x="320" y="300" type="line"/>
      <point x="320" y="334"/>
      <point x="320" y="365"/>
      <point x="320" y="399" type="curve" smooth="yes"/>
      <point x="320" y="405"/>
      <point x="315" y="410"/>
      <point x="309" y="410" type="curve"/>
    </contour>
    <contour>
      <point x="235" y="50" type="curve"/>
      <point x="235" y="639" type="line" smooth="yes"/>
      <point x="235" y="645"/>
      <point x="230" y="650"/>
      <point x="75" y="650" type="curve"/>
      <point x="75" y="61" type="line" smooth="yes"/>
      <point x="75" y="55"/>
      <point x="80" y="50"/>
    </contour>
    <contour>
      <point x="30" y="700" type="curve"/>
      <point x="30" y="657"/>
      <point x="30" y="612"/>
      <point x="30" y="569" type="curve"/>
      <point x="30" y="566"/>
      <point x="31" y="563"/>
      <point x="33" y="561" type="curve" smooth="yes"/>
      <point x="35" y="559"/>
      <point x="38" y="558"/>
      <point x="41" y="558" type="curve" smooth="yes"/>
      <point x="55" y="558"/>
      <point x="78" y="558"/>
      <point x="92" y="558" type="curve" smooth="yes"/>
      <point x="155" y="558"/>
      <point x="238" y="558"/>
      <point x="300" y="558" type="curve"/>
      <point x="366" y="558"/>
      <point x="389" y="558"/>
      <point x="426" y="558" type="curve"/>
      <point x="426" y="641"/>
      <point x="427" y="700"/>
      <point x="298" y="700" type="curve" smooth="yes"/>
      <point x="221" y="700"/>
      <point x="108" y="700"/>
    </contour>
    <contour>
      <point x="595" y="281" type="curve" smooth="yes"/>
      <point x="595" y="432" type="line" smooth="yes"/>
      <point x="595" y="614"/>
      <point x="484" y="700"/>
      <point x="298" y="700" type="curve" smooth="yes"/>
      <point x="287" y="700"/>
      <point x="276" y="691"/>
      <point x="300" y="558" type="curve"/>
      <point x="404" y="558"/>
      <point x="445" y="515"/>
      <point x="445" y="432" type="curve" smooth="yes"/>
      <point x="445" y="281" type="line" smooth="yes"/>
      <point x="445" y="190"/>
      <point x="391" y="142"/>
      <point x="310" y="142" type="curve" smooth="yes"/>
      <point x="261" y="142"/>
      <point x="116" y="142"/>
      <point x="75" y="142" type="curve"/>
      <point x="75" y="95"/>
      <point x="75" y="66"/>
      <point x="75" y="11" type="curve" smooth="yes"/>
      <point x="75" y="5"/>
      <point x="80" y="0"/>
      <point x="86" y="0" type="curve" smooth="yes"/>
      <point x="314" y="0" type="line" smooth="yes"/>
      <point x="488" y="0"/>
      <point x="595" y="106"/>
    </contour>
  </outline>
</glyph>
<glyph name="Ntilde" format="1">
  <advance width="700"/>
  <unicode hex="00D1"/>
  <outline>
    <contour>
      <point x="220" y="0" type="curve"/>
      <point x="220" y="163" type="line"/>
      <point x="202" y="534"/>
      <point x="192" y="692"/>
      <point x="187" y="697" type="curve" smooth="yes"/>
      <point x="185" y="699"/>
      <point x="182" y="700"/>
      <point x="179" y="700" type="curve"/>
      <point x="146" y="700"/>
      <point x="75" y="700"/>
      <point x="70" y="700" type="curve"/>
      <point x="70" y="653"/>
      <point x="70" y="607"/>
      <point x="70" y="560" type="curve" smooth="yes"/>
      <point x="70" y="11" type="line"/>
      <point x="70" y="5"/>
      <point x="75" y="0"/>
      <point x="81" y="0" type="curve"/>
      <point x="127" y="0"/>
      <point x="174" y="0"/>
    </contour>
    <contour>
      <point x="630" y="0" type="line"/>
      <point x="630" y="689" type="line"/>
      <point x="630" y="695"/>
      <point x="625" y="700"/>
      <point x="619" y="700" type="curve"/>
      <point x="480" y="700" type="line"/>
      <point x="480" y="494" type="line"/>
      <point x="502" y="194"/>
      <point x="519" y="5"/>
      <point x="521" y="3" type="curve" smooth="yes"/>
      <point x="523" y="1"/>
      <point x="526" y="0"/>
      <point x="529" y="0" type="curve"/>
    </contour>
    <contour>
      <point x="169" y="700" type="line"/>
      <point x="158" y="700"/>
      <point x="153" y="697"/>
      <point x="94" y="626" type="curve"/>
      <point x="226" y="420"/>
      <point x="357" y="214"/>
      <point x="489" y="8" type="curve"/>
      <point x="492" y="1"/>
      <point x="497" y="0"/>
      <point x="501" y="0" type="curve" smooth="yes"/>
      <point x="505" y="0"/>
      <point x="537" y="0"/>
      <point x="540" y="0" type="curve"/>
      <point x="555" y="0"/>
      <point x="570" y="100"/>
      <point x="570" y="155" type="curve"/>
      <point x="456" y="333"/>
      <point x="341" y="512"/>
      <point x="227" y="690" type="curve"/>
      <point x="222" y="699"/>
      <point x="220" y="700"/>
      <point x="209" y="700" type="curve"/>
    </contour>
    <contour>
      <point x="460" y="907" type="curve" smooth="yes"/>
      <point x="387" y="907"/>
      <point x="336" y="962"/>
      <point x="246" y="962" type="curve" smooth="yes"/>
      <point x="201" y="962"/>
      <point x="171" y="948"/>
      <point x="150" y="925" type="curve" smooth="yes"/>
      <point x="143" y="917"/>
      <point x="143" y="913"/>
      <point x="143" y="902" type="curve" smooth="yes"/>
      <point x="143" y="873"/>
      <point x="143" y="817"/>
      <point x="143" y="780" type="curve"/>
      <point x="163" y="780" type="line"/>
      <point x="183" y="808"/>
      <point x="209" y="820"/>
      <point x="240" y="820" type="curve" smooth="yes"/>
      <point x="313" y="820"/>
      <point x="364" y="765"/>
      <point x="454" y="765" type="curve" smooth="yes"/>
      <point x="499" y="765"/>
      <point x="529" y="779"/>
      <point x="550" y="802" type="curve" smooth="yes"/>
      <point x="557" y="809"/>
      <point x="557" y="813"/>
      <point x="557" y="825" type="curve" smooth="yes"/>
      <point x="557" y="853"/>
      <point x="557" y="910"/>
      <point x="557" y="947" type="curve"/>
      <point x="537" y="947" type="line"/>
      <point x="517" y="918"/>
      <point x="491" y="907"/>
    </contour>
  </outline>
</glyph>
<glyph name="Ograve" format="1">
  <advance width="650"/>
  <unicode hex="00D2"/>
  <outline>
    <contour>
      <point x="325" y="720" type="curve" smooth="yes"/>
      <point x="169" y="720"/>
      <point x="55" y="592"/>
      <point x="55" y="434" type="curve" smooth="yes"/>
      <point x="55" y="258" type="line" smooth="yes"/>
      <point x="55" y="88"/>
      <point x="167" y="-20"/>
      <point x="325" y="-20" type="curve" smooth="yes"/>
      <point x="334" y="-20"/>
      <point x="342" y="-2"/>
      <point x="325" y="122" type="curve"/>
      <point x="248" y="122"/>
      <point x="205" y="175"/>
      <point x="205" y="258" type="curve" smooth="yes"/>
      <point x="205" y="434" type="line" smooth="yes"/>
      <point x="205" y="523"/>
      <point x="252" y="578"/>
      <point x="325" y="578" type="curve" smooth="yes"/>
      <point x="391" y="578"/>
      <point x="424" y="578"/>
      <point x="453" y="578" type="curve"/>
      <point x="453" y="639"/>
      <point x="438" y="720"/>
    </contour>
    <contour>
      <point x="325" y="-20" type="curve" smooth="yes"/>
      <point x="481" y="-20"/>
      <point x="595" y="108"/>
      <point x="595" y="266" type="curve" smooth="yes"/>
      <point x="595" y="442" type="line" smooth="yes"/>
      <point x="595" y="612"/>
      <point x="483" y="720"/>
      <point x="325" y="720" type="curve" smooth="yes"/>
      <point x="316" y="720"/>
      <point x="308" y="702"/>
      <point x="325" y="578" type="curve"/>
      <point x="402" y="578"/>
      <point x="445" y="525"/>
      <point x="445" y="442" type="curve" smooth="yes"/>
      <point x="445" y="266" type="line" smooth="yes"/>
      <point x="445" y="177"/>
      <point x="398" y="122"/>
      <point x="325" y="122" type="curve" smooth="yes"/>
      <point x="259" y="122"/>
      <point x="226" y="122"/>
      <point x="197" y="122" type="curve"/>
      <point x="197" y="61"/>
      <point x="212" y="-20"/>
    </contour>
    <contour>
      <point x="390" y="775" type="curve"/>
      <point x="355" y="836"/>
      <point x="319" y="896"/>
      <point x="284" y="957" type="curve"/>
      <point x="201" y="957"/>
      <point x="183" y="957"/>
      <point x="112" y="957" type="curve" smooth="yes"/>
      <point x="104" y="957"/>
      <point x="101" y="949"/>
      <point x="106" y="943" type="curve" smooth="yes"/>
      <point x="157" y="887"/>
      <point x="182" y="858"/>
      <point x="254" y="781" type="curve" smooth="yes"/>
      <point x="257" y="778"/>
      <point x="262" y="775"/>
      <point x="270" y="775" type="curve" smooth="yes"/>
      <point x="333" y="775"/>
      <point x="352" y="775"/>
    </contour>
  </outline>
</glyph>
<glyph name="Ocircumflex" format="1">
  <advance width="650"/>
  <unicode hex="00D4"/>
  <outline>
    <contour>
      <point x="325" y="720" type="curve" smooth="yes"/>
      <point x="169" y="720"/>
      <point x="55" y="592"/>
      <point x="55" y="434" type="curve" smooth="yes"/>
      <point x="55" y="258" type="line" smooth="yes"/>
      <point x="55" y="88"/>
      <point x="167" y="-20"/>
      <point x="325" y="-20" type="curve" smooth="yes"/>
      <point x="334" y="-20"/>
      <point x="342" y="-2"/>
      <point x="325" y="122" type="curve"/>
      <point x="248" y="122"/>
      <point x="205" y="175"/>
      <point x="205" y="258" type="curve" smooth="yes"/>
      <point x="205" y="434" type="line" smooth="yes"/>
      <point x="205" y="523"/>
      <point x="252" y="578"/>
      <point x="325" y="578" type="curve" smooth="yes"/>
      <point x="391" y="578"/>
      <point x="424" y="578"/>
      <point x="453" y="578" type="curve"/>
      <point x="453" y="639"/>
      <point x="438" y="720"/>
    </contour>
    <contour>
      <point x="325" y="-20" type="curve" smooth="yes"/>
      <point x="481" y="-20"/>
      <point x="595" y="108"/>
      <point x="595" y="266" type="curve" smooth="yes"/>
      <point x="595" y="442" type="line" smooth="yes"/>
      <point x="595" y="612"/>
      <point x="483" y="720"/>
      <point x="325" y="720" type="curve" smooth="yes"/>
      <point x="316" y="720"/>
      <point x="308" y="702"/>
      <point x="325" y="578" type="curve"/>
      <point x="402" y="578"/>
      <point x="445" y="525"/>
      <point x="445" y="442" type="curve" smooth="yes"/>
      <point x="445" y="266" type="line" smooth="yes"/>
      <point x="445" y="177"/>
      <point x="398" y="122"/>
      <point x="325" y="122" type="curve" smooth="yes"/>
      <point x="259" y="122"/>
      <point x="226" y="122"/>
      <point x="197" y="122" type="curve"/>
      <point x="197" y="61"/>
      <point x="212" y="-20"/>
    </contour>
    <contour>
      <point x="228" y="775" type="line"/>
      <point x="273" y="813"/>
      <point x="320" y="852"/>
      <point x="383" y="905" type="curve"/>
      <point x="332" y="946"/>
      <point x="320" y="947"/>
      <point x="312" y="947" type="curve"/>
      <point x="243" y="947" type="line"/>
      <point x="217" y="920"/>
      <point x="137" y="837"/>
      <point x="108" y="807" type="curve" smooth="yes"/>
      <point x="92" y="790"/>
      <point x="90" y="788"/>
      <point x="90" y="783" type="curve" smooth="yes"/>
      <point x="90" y="779"/>
      <point x="93" y="775"/>
      <point x="101" y="775" type="curve"/>
    </contour>
    <contour>
      <point x="574" y="775" type="curve"/>
      <point x="527" y="825"/>
      <point x="446" y="909"/>
      <point x="427" y="928" type="curve" smooth="yes"/>
      <point x="411" y="944"/>
      <point x="407" y="947"/>
      <point x="397" y="947" type="curve" smooth="yes"/>
      <point x="309" y="947" type="line"/>
      <point x="304" y="947"/>
      <point x="297" y="944"/>
      <point x="270" y="905" type="curve"/>
      <point x="334" y="851"/>
      <point x="392" y="802"/>
      <point x="413" y="785" type="curve" smooth="yes"/>
      <point x="422" y="777"/>
      <point x="427" y="775"/>
      <point x="442" y="775" type="curve" smooth="yes"/>
      <point x="494" y="775"/>
      <point x="546" y="775"/>
    </contour>
  </outline>
</glyph>
<glyph name="Otilde" format="1">
  <advance width="650"/>
  <unicode hex="00D5"/>
  <outline>
    <contour>
      <point x="325" y="720" type="curve" smooth="yes"/>
      <point x="169" y="720"/>
      <point x="55" y="592"/>
      <point x="55" y="434" type="curve" smooth="yes"/>
      <point x="55" y="258" type="line" smooth="yes"/>
      <point x="55" y="88"/>
      <point x="167" y="-20"/>
      <point x="325" y="-20" type="curve" smooth="yes"/>
      <point x="334" y="-20"/>
      <point x="342" y="-2"/>
      <point x="325" y="122" type="curve"/>
      <point x="248" y="122"/>
      <point x="205" y="175"/>
      <point x="205" y="258" type="curve" smooth="yes"/>
      <point x="205" y="434" type="line" smooth="yes"/>
      <point x="205" y="523"/>
      <point x="252" y="578"/>
      <point x="325" y="578" type="curve" smooth="yes"/>
      <point x="391" y="578"/>
      <point x="424" y="578"/>
      <point x="453" y="578" type="curve"/>
      <point x="453" y="639"/>
      <point x="438" y="720"/>
    </contour>
    <contour>
      <point x="325" y="-20" type="curve" smooth="yes"/>
      <point x="481" y="-20"/>
      <point x="595" y="108"/>
      <point x="595" y="266" type="curve" smooth="yes"/>
      <point x="595" y="442" type="line" smooth="yes"/>
      <point x="595" y="612"/>
      <point x="483" y="720"/>
      <point x="325" y="720" type="curve" smooth="yes"/>
      <point x="316" y="720"/>
      <point x="308" y="702"/>
      <point x="325" y="578" type="curve"/>
      <point x="402" y="578"/>
      <point x="445" y="525"/>
      <point x="445" y="442" type="curve" smooth="yes"/>
      <point x="445" y="266" type="line" smooth="yes"/>
      <point x="445" y="177"/>
      <point x="398" y="122"/>
      <point x="325" y="122" type="curve" smooth="yes"/>
      <point x="259" y="122"/>
      <point x="226" y="122"/>
      <point x="197" y="122" type="curve"/>
      <point x="197" y="61"/>
      <point x="212" y="-20"/>
    </contour>
    <contour>
      <point x="435" y="907" type="curve" smooth="yes"/>
      <point x="362" y="907"/>
      <point x="311" y="962"/>
      <point x="221" y="962" type="curve" smooth="yes"/>
      <point x="176" y="962"/>
      <point x="146" y="948"/>
      <point x="125" y="925" type="curve" smooth="yes"/>
      <point x="118" y="917"/>
      <point x="118" y="913"/>
      <point x="118" y="902" type="curve" smooth="yes"/>
      <point x="118" y="873"/>
      <point x="118" y="817"/>
      <point x="118" y="780" type="curve"/>
      <point x="138" y="780" type="line"/>
      <point x="158" y="808"/>
      <point x="184" y="820"/>
      <point x="215" y="820" type="curve" smooth="yes"/>
      <point x="288" y="820"/>
      <point x="339" y="765"/>
      <point x="429" y="765" type="curve" smooth="yes"/>
      <point x="474" y="765"/>
      <point x="504" y="779"/>
      <point x="525" y="802" type="curve" smooth="yes"/>
      <point x="532" y="809"/>
      <point x="532" y="813"/>
      <point x="532" y="825" type="curve" smooth="yes"/>
      <point x="532" y="853"/>
      <point x="532" y="910"/>
      <point x="532" y="947" type="curve"/>
      <point x="512" y="947" type="line"/>
      <point x="492" y="918"/>
      <point x="466" y="907"/>
    </contour>
  </outline>
</glyph>
<glyph name="Odieresis" format="1">
  <advance width="650"/>
  <unicode hex="00D6"/>
  <outline>
    <contour>
      <point x="325" y="720" type="curve" smooth="yes"/>
      <point x="169" y="720"/>
      <point x="55" y="592"/>
      <point x="55" y="434" type="curve" smooth="yes"/>
      <point x="55" y="258" type="line" smooth="yes"/>
      <point x="55" y="88"/>
      <point x="167" y="-20"/>
      <point x="325" y="-20" type="curve" smooth="yes"/>
      <point x="334" y="-20"/>
      <point x="342" y="-2"/>
      <point x="325" y="122" type="curve"/>
      <point x="248" y="122"/>
      <point x="205" y="175"/>
      <point x="205" y="258" type="curve" smooth="yes"/>
      <point x="205" y="434" type="line" smooth="yes"/>
      <point x="205" y="523"/>
      <point x="252" y="578"/>
      <point x="325" y="578" type="curve" smooth="yes"/>
      <point x="391" y="578"/>
      <point x="424" y="578"/>
      <point x="453" y="578" type="curve"/>
      <point x="453" y="639"/>
      <point x="438" y="720"/>
    </contour>
    <contour>
      <point x="325" y="-20" type="curve" smooth="yes"/>
      <point x="481" y="-20"/>
      <point x="595" y="108"/>
      <point x="595" y="266" type="curve" smooth="yes"/>
      <point x="595" y="442" type="line" smooth="yes"/>
      <point x="595" y="612"/>
      <point x="483" y="720"/>
      <point x="325" y="720" type="curve" smooth="yes"/>
      <point x="316" y="720"/>
      <point x="308" y="702"/>
      <point x="325" y="578" type="curve"/>
      <point x="402" y="578"/>
      <point x="445" y="525"/>
      <point x="445" y="442" type="curve" smooth="yes"/>
      <point x="445" y="266" type="line" smooth="yes"/>
      <point x="445" y="177"/>
      <point x="398" y="122"/>
      <point x="325" y="122" type="curve" smooth="yes"/>
      <point x="259" y="122"/>
      <point x="226" y="122"/>
      <point x="197" y="122" type="curve"/>
      <point x="197" y="61"/>
      <point x="212" y="-20"/>
    </contour>
    <contour>
      <point x="293" y="788" type="curve"/>
      <point x="293" y="924" type="line" smooth="yes"/>
      <point x="293" y="930"/>
      <point x="288" y="935"/>
      <point x="282" y="935" type="curve" smooth="yes"/>
      <point x="234" y="935"/>
      <point x="185" y="935"/>
      <point x="137" y="935" type="curve"/>
      <point x="137" y="799" type="line" smooth="yes"/>
      <point x="137" y="793"/>
      <point x="142" y="788"/>
      <point x="148" y="788" type="curve" smooth="yes"/>
      <point x="196" y="788"/>
      <point x="245" y="788"/>
    </contour>
    <contour>
      <point x="513" y="788" type="curve"/>
      <point x="513" y="924" type="line" smooth="yes"/>
      <point x="513" y="930"/>
      <point x="508" y="935"/>
      <point x="502" y="935" type="curve" smooth="yes"/>
      <point x="454" y="935"/>
      <point x="405" y="935"/>
      <point x="357" y="935" type="curve"/>
      <point x="357" y="799" type="line" smooth="yes"/>
      <point x="357" y="793"/>
      <point x="362" y="788"/>
      <point x="368" y="788" type="curve" smooth="yes"/>
      <point x="416" y="788"/>
      <point x="465" y="788"/>
    </contour>
  </outline>
</glyph>
<glyph name="Ugrave" format="1">
  <advance width="650"/>
  <unicode hex="00D9"/>
  <outline>
    <contour>
      <point x="70" y="700" type="curve"/>
      <point x="70" y="667"/>
      <point x="70" y="633"/>
      <point x="70" y="600" type="curve" smooth="yes"/>
      <point x="70" y="178" type="line"/>
      <point x="70" y="107"/>
      <point x="131" y="108"/>
      <point x="230" y="108" type="curve"/>
      <point x="230" y="141"/>
      <point x="230" y="156"/>
      <point x="230" y="197" type="curve"/>
      <point x="230" y="689" type="line"/>
      <point x="230" y="695"/>
      <point x="225" y="700"/>
      <point x="219" y="700" type="curve"/>
      <point x="169" y="700"/>
      <point x="120" y="700"/>
    </contour>
    <contour>
      <point x="235" y="-10" type="curve" smooth="yes"/>
      <point x="312" y="-10"/>
      <point x="363" y="24"/>
      <point x="433" y="104" type="curve" smooth="yes"/>
      <point x="464" y="140"/>
      <point x="463" y="198"/>
      <point x="442" y="234" type="curve"/>
      <point x="381" y="172"/>
      <point x="329" y="142"/>
      <point x="279" y="142" type="curve" smooth="yes"/>
      <point x="240" y="142"/>
      <point x="230" y="157"/>
      <point x="230" y="197" type="curve"/>
      <point x="130" y="197"/>
      <point x="70" y="186"/>
      <point x="70" y="178" type="curve" smooth="yes"/>
      <point x="70" y="65"/>
      <point x="123" y="-10"/>
    </contour>
    <contour>
      <point x="580" y="0" type="curve"/>
      <point x="580" y="32"/>
      <point x="580" y="70"/>
      <point x="580" y="110" type="curve" smooth="yes"/>
      <point x="580" y="689" type="line" smooth="yes"/>
      <point x="580" y="695"/>
      <point x="575" y="700"/>
      <point x="569" y="700" type="curve" smooth="yes"/>
      <point x="519" y="700"/>
      <point x="470" y="700"/>
      <point x="420" y="700" type="curve"/>
      <point x="420" y="11" type="line" smooth="yes"/>
      <point x="420" y="8"/>
      <point x="421" y="5"/>
      <point x="423" y="3" type="curve" smooth="yes"/>
      <point x="425" y="1"/>
      <point x="428" y="0"/>
      <point x="431" y="0" type="curve" smooth="yes"/>
      <point x="481" y="0"/>
      <point x="530" y="0"/>
    </contour>
    <contour>
      <point x="390" y="775" type="curve"/>
      <point x="355" y="836"/>
      <point x="319" y="896"/>
      <point x="284" y="957" type="curve"/>
      <point x="201" y="957"/>
      <point x="183" y="957"/>
      <point x="112" y="957" type="curve" smooth="yes"/>
      <point x="104" y="957"/>
      <point x="101" y="949"/>
      <point x="106" y="943" type="curve" smooth="yes"/>
      <point x="157" y="887"/>
      <point x="182" y="858"/>
      <point x="254" y="781" type="curve" smooth="yes"/>
      <point x="257" y="778"/>
      <point x="262" y="775"/>
      <point x="270" y="775" type="curve" smooth="yes"/>
      <point x="333" y="775"/>
      <point x="352" y="775"/>
    </contour>
  </outline>
</glyph>
<glyph name="Uacute" format="1">
  <advance width="650"/>
  <unicode hex="00DA"/>
  <outline>
    <contour>
      <point x="70" y="700" type="curve"/>
      <point x="70" y="667"/>
      <point x="70" y="633"/>
      <point x="70" y="600" type="curve" smooth="yes"/>
      <point x="70" y="178" type="line"/>
      <point x="70" y="107"/>
      <point x="131" y="108"/>
      <point x="230" y="108" type="curve"/>
      <point x="230" y="141"/>
      <point x="230" y="156"/>
      <point x="230" y="197" type="curve"/>
      <point x="230" y="689" type="line"/>
      <point x="230" y="695"/>
      <point x="225" y="700"/>
      <point x="219" y="700" type="curve"/>
      <point x="169" y="700"/>
      <point x="120" y="700"/>
    </contour>
    <contour>
      <point x="235" y="-10" type="curve" smooth="yes"/>
      <point x="312" y="-10"/>
      <point x="363" y="24"/>
      <point x="433" y="104" type="curve" smooth="yes"/>
      <point x="464" y="140"/>
      <point x="463" y="198"/>
      <point x="442" y="234" type="curve"/>
      <point x="381" y="172"/>
      <point x="329" y="142"/>
      <point x="279" y="142" type="curve" smooth="yes"/>
      <point x="240" y="142"/>
      <point x="230" y="157"/>
      <point x="230" y="197" type="curve"/>
      <point x="130" y="197"/>
      <point x="70" y="186"/>
      <point x="70" y="178" type="curve" smooth="yes"/>
      <point x="70" y="65"/>
      <point x="123" y="-10"/>
    </contour>
    <contour>
      <point x="580" y="0" type="curve"/>
      <point x="580" y="32"/>
      <point x="580" y="70"/>
      <point x="580" y="110" type="curve" smooth="yes"/>
      <point x="580" y="689" type="line" smooth="yes"/>
      <point x="580" y="695"/>
      <point x="575" y="700"/>
      <point x="569" y="700" type="curve" smooth="yes"/>
      <point x="519" y="700"/>
      <point x="470" y="700"/>
      <point x="420" y="700" type="curve"/>
      <point x="420" y="11" type="line" smooth="yes"/>
      <point x="420" y="8"/>
      <point x="421" y="5"/>
      <point x="423" y="3" type="curve" smooth="yes"/>
      <point x="425" y="1"/>
      <point x="428" y="0"/>
      <point x="431" y="0" type="curve" smooth="yes"/>
      <point x="481" y="0"/>
      <point x="530" y="0"/>
    </contour>
    <contour>
      <point x="380" y="775" type="curve" smooth="yes"/>
      <point x="388" y="775"/>
      <point x="393" y="778"/>
      <point x="396" y="781" type="curve" smooth="yes"/>
      <point x="468" y="858"/>
      <point x="493" y="887"/>
      <point x="544" y="943" type="curve" smooth="yes"/>
      <point x="549" y="949"/>
      <point x="546" y="957"/>
      <point x="538" y="957" type="curve" smooth="yes"/>
      <point x="467" y="957"/>
      <point x="449" y="957"/>
      <point x="366" y="957" type="curve"/>
      <point x="331" y="896"/>
      <point x="295" y="836"/>
      <point x="260" y="775" type="curve"/>
      <point x="298" y="775"/>
      <point x="317" y="775"/>
    </contour>
  </outline>
</glyph>
<glyph name="Ucircumflex" format="1">
  <advance width="650"/>
  <unicode hex="00DB"/>
  <outline>
    <contour>
      <point x="70" y="700" type="curve"/>
      <point x="70" y="667"/>
      <point x="70" y="633"/>
      <point x="70" y="600" type="curve" smooth="yes"/>
      <point x="70" y="178" type="line"/>
      <point x="70" y="107"/>
      <point x="131" y="108"/>
      <point x="230" y="108" type="curve"/>
      <point x="230" y="141"/>
      <point x="230" y="156"/>
      <point x="230" y="197" type="curve"/>
      <point x="230" y="689" type="line"/>
      <point x="230" y="695"/>
      <point x="225" y="700"/>
      <point x="219" y="700" type="curve"/>
      <point x="169" y="700"/>
      <point x="120" y="700"/>
    </contour>
    <contour>
      <point x="235" y="-10" type="curve" smooth="yes"/>
      <point x="312" y="-10"/>
      <point x="363" y="24"/>
      <point x="433" y="104" type="curve" smooth="yes"/>
      <point x="464" y="140"/>
      <point x="463" y="198"/>
      <point x="442" y="234" type="curve"/>
      <point x="381" y="172"/>
      <point x="329" y="142"/>
      <point x="279" y="142" type="curve" smooth="yes"/>
      <point x="240" y="142"/>
      <point x="230" y="157"/>
      <point x="230" y="197" type="curve"/>
      <point x="130" y="197"/>
      <point x="70" y="186"/>
      <point x="70" y="178" type="curve" smooth="yes"/>
      <point x="70" y="65"/>
      <point x="123" y="-10"/>
    </contour>
    <contour>
      <point x="580" y="0" type="curve"/>
      <point x="580" y="32"/>
      <point x="580" y="70"/>
      <point x="580" y="110" type="curve" smooth="yes"/>
      <point x="580" y="689" type="line" smooth="yes"/>
      <point x="580" y="695"/>
      <point x="575" y="700"/>
      <point x="569" y="700" type="curve" smooth="yes"/>
      <point x="519" y="700"/>
      <point x="470" y="700"/>
      <point x="420" y="700" type="curve"/>
      <point x="420" y="11" type="line" smooth="yes"/>
      <point x="420" y="8"/>
      <point x="421" y="5"/>
      <point x="423" y="3" type="curve" smooth="yes"/>
      <point x="425" y="1"/>
      <point x="428" y="0"/>
      <point x="431" y="0" type="curve" smooth="yes"/>
      <point x="481" y="0"/>
      <point x="530" y="0"/>
    </contour>
    <contour>
      <point x="228" y="775" type="line"/>
      <point x="273" y="813"/>
      <point x="320" y="852"/>
      <point x="383" y="905" type="curve"/>
      <point x="332" y="946"/>
      <point x="320" y="947"/>
      <point x="312" y="947" type="curve"/>
      <point x="243" y="947" type="line"/>
      <point x="217" y="920"/>
      <point x="137" y="837"/>
      <point x="108" y="807" type="curve" smooth="yes"/>
      <point x="92" y="790"/>
      <point x="90" y="788"/>
      <point x="90" y="783" type="curve" smooth="yes"/>
      <point x="90" y="779"/>
      <point x="93" y="775"/>
      <point x="101" y="775" type="curve"/>
    </contour>
    <contour>
      <point x="574" y="775" type="curve"/>
      <point x="527" y="825"/>
      <point x="446" y="909"/>
      <point x="427" y="928" type="curve" smooth="yes"/>
      <point x="411" y="944"/>
      <point x="407" y="947"/>
      <point x="397" y="947" type="curve" smooth="yes"/>
      <point x="309" y="947" type="line"/>
      <point x="304" y="947"/>
      <point x="297" y="944"/>
      <point x="270" y="905" type="curve"/>
      <point x="334" y="851"/>
      <point x="392" y="802"/>
      <point x="413" y="785" type="curve" smooth="yes"/>
      <point x="422" y="777"/>
      <point x="427" y="775"/>
      <point x="442" y="775" type="curve" smooth="yes"/>
      <point x="494" y="775"/>
      <point x="546" y="775"/>
    </contour>
  </outline>
</glyph>
<glyph name="Udieresis" format="1">
  <advance width="650"/>
  <unicode hex="00DC"/>
  <outline>
    <contour>
      <point x="70" y="700" type="curve"/>
      <point x="70" y="667"/>
      <point x="70" y="633"/>
      <point x="70" y="600" type="curve" smooth="yes"/>
      <point x="70" y="178" type="line"/>
      <point x="70" y="107"/>
      <point x="131" y="108"/>
      <point x="230" y="108" type="curve"/>
      <point x="230" y="141"/>
      <point x="230" y="156"/>
      <point x="230" y="197" type="curve"/>
      <point x="230" y="689" type="line"/>
      <point x="230" y="695"/>
      <point x="225" y="700"/>
      <point x="219" y="700" type="curve"/>
      <point x="169" y="700"/>
      <point x="120" y="700"/>
    </contour>
    <contour>
      <point x="235" y="-10" type="curve" smooth="yes"/>
      <point x="312" y="-10"/>
      <point x="363" y="24"/>
      <point x="433" y="104" type="curve" smooth="yes"/>
      <point x="464" y="140"/>
      <point x="463" y="198"/>
      <point x="442" y="234" type="curve"/>
      <point x="381" y="172"/>
      <point x="329" y="142"/>
      <point x="279" y="142" type="curve" smooth="yes"/>
      <point x="240" y="142"/>
      <point x="230" y="157"/>
      <point x="230" y="197" type="curve"/>
      <point x="130" y="197"/>
      <point x="70" y="186"/>
      <point x="70" y="178" type="curve" smooth="yes"/>
      <point x="70" y="65"/>
      <point x="123" y="-10"/>
    </contour>
    <contour>
      <point x="580" y="0" type="curve"/>
      <point x="580" y="32"/>
      <point x="580" y="70"/>
      <point x="580" y="110" type="curve" smooth="yes"/>
      <point x="580" y="689" type="line" smooth="yes"/>
      <point x="580" y="695"/>
      <point x="575" y="700"/>
      <point x="569" y="700" type="curve" smooth="yes"/>
      <point x="519" y="700"/>
      <point x="470" y="700"/>
      <point x="420" y="700" type="curve"/>
      <point x="420" y="11" type="line" smooth="yes"/>
      <point x="420" y="8"/>
      <point x="421" y="5"/>
      <point x="423" y="3" type="curve" smooth="yes"/>
      <point x="425" y="1"/>
      <point x="428" y="0"/>
      <point x="431" y="0" type="curve" smooth="yes"/>
      <point x="481" y="0"/>
      <point x="530" y="0"/>
    </contour>
    <contour>
      <point x="293" y="788" type="curve"/>
      <point x="293" y="924" type="line" smooth="yes"/>
      <point x="293" y="930"/>
      <point x="288" y="935"/>
      <point x="282" y="935" type="curve" smooth="yes"/>
      <point x="234" y="935"/>
      <point x="185" y="935"/>
      <point x="137" y="935" type="curve"/>
      <point x="137" y="799" type="line" smooth="yes"/>
      <point x="137" y="793"/>
      <point x="142" y="788"/>
      <point x="148" y="788" type="curve" smooth="yes"/>
      <point x="196" y="788"/>
      <point x="245" y="788"/>
    </contour>
    <contour>
      <point x="513" y="788" type="curve"/>
      <point x="513" y="924" type="line" smooth="yes"/>
      <point x="513" y="930"/>
      <point x="508" y="935"/>
      <point x="502" y="935" type="curve" smooth="yes"/>
      <point x="454" y="935"/>
      <point x="405" y="935"/>
      <point x="357" y="935" type="curve"/>
      <point x="357" y="799" type="line" smooth="yes"/>
      <point x="357" y="793"/>
      <point x="362" y="788"/>
      <point x="368" y="788" type="curve" smooth="yes"/>
      <point x="416" y="788"/>
      <point x="465" y="788"/>
    </contour>
  </outline>
</glyph>
<glyph name="Yacute" format="1">
  <advance width="600"/>
  <unicode hex="00DD"/>
  <outline>
    <contour>
      <point x="15" y="700" type="line"/>
      <point x="85" y="547"/>
      <point x="159" y="393"/>
      <point x="228" y="239" type="curve"/>
      <point x="232" y="229"/>
      <point x="239" y="225"/>
      <point x="249" y="225" type="curve"/>
      <point x="314" y="225"/>
      <point x="345" y="302"/>
      <point x="327" y="335" type="curve"/>
      <point x="281" y="451"/>
      <point x="234" y="567"/>
      <point x="189" y="683" type="curve"/>
      <point x="186" y="694"/>
      <point x="181" y="700"/>
      <point x="172" y="700" type="curve" smooth="yes"/>
    </contour>
    <contour>
      <point x="417" y="700" type="line"/>
      <point x="372" y="578"/>
      <point x="327" y="457"/>
      <point x="282" y="335" type="curve"/>
      <point x="257" y="274"/>
      <point x="259" y="251"/>
      <point x="249" y="225" type="curve"/>
      <point x="365" y="225" type="line"/>
      <point x="436" y="377"/>
      <point x="507" y="529"/>
      <point x="578" y="681" type="curve"/>
      <point x="581" y="691"/>
      <point x="576" y="700"/>
      <point x="565" y="700" type="curve"/>
    </contour>
    <contour>
      <point x="380" y="0" type="curve"/>
      <point x="380" y="33"/>
      <point x="380" y="67"/>
      <point x="380" y="100" type="curve" smooth="yes"/>
      <point x="380" y="289" type="line" smooth="yes"/>
      <point x="380" y="295"/>
      <point x="375" y="300"/>
      <point x="220" y="300" type="curve"/>
      <point x="220" y="11" type="line" smooth="yes"/>
      <point x="220" y="8"/>
      <point x="221" y="5"/>
      <point x="223" y="3" type="curve" smooth="yes"/>
      <point x="225" y="1"/>
      <point x="228" y="0"/>
      <point x="231" y="0" type="curve" smooth="yes"/>
      <point x="281" y="0"/>
      <point x="330" y="0"/>
    </contour>
    <contour>
      <point x="355" y="775" type="curve" smooth="yes"/>
      <point x="363" y="775"/>
      <point x="368" y="778"/>
      <point x="371" y="781" type="curve" smooth="yes"/>
      <point x="443" y="858"/>
      <point x="468" y="887"/>
      <point x="519" y="943" type="curve" smooth="yes"/>
      <point x="524" y="949"/>
      <point x="521" y="957"/>
      <point x="513" y="957" type="curve" smooth="yes"/>
      <point x="442" y="957"/>
      <point x="424" y="957"/>
      <point x="341" y="957" type="curve"/>
      <point x="306" y="896"/>
      <point x="270" y="836"/>
      <point x="235" y="775" type="curve"/>
      <point x="273" y="775"/>
      <point x="292" y="775"/>
    </contour>
  </outline>
</glyph>
<glyph name="ccedilla" format="1">
  <advance width="500"/>
  <unicode hex="00E7"/>
  <outline>
    <contour>
      <point x="314" y="552" type="curve" smooth="yes"/>
      <point x="159" y="552"/>
      <point x="55" y="447"/>
      <point x="55" y="301" type="curve" smooth="yes"/>
      <point x="55" y="235" type="line" smooth="yes"/>
      <point x="55" y="79"/>
      <point x="152" y="-12"/>
      <point x="314" y="-12" type="curve" smooth="yes"/>
      <point x="348" y="-12"/>
      <point x="350" y="7"/>
      <point x="313" y="130" type="curve"/>
      <point x="245" y="130"/>
      <point x="210" y="167"/>
      <point x="210" y="243" type="curve" smooth="yes"/>
      <point x="210" y="299" type="line" smooth="yes"/>
      <point x="210" y="379"/>
      <point x="254" y="410"/>
      <point x="313" y="410" type="curve" smooth="yes"/>
      <point x="354" y="410"/>
      <point x="392" y="404"/>
      <point x="430" y="390" type="curve"/>
      <point x="450" y="390" type="line"/>
      <point x="450" y="435"/>
      <point x="450" y="474"/>
      <point x="450" y="519" type="curve"/>
      <point x="450" y="522"/>
      <point x="449" y="525"/>
      <point x="447" y="527" type="curve" smooth="yes"/>
      <point x="436" y="538"/>
      <point x="388" y="552"/>
    </contour>
    <contour>
      <point x="314" y="-12" type="curve" smooth="yes"/>
      <point x="388" y="-12"/>
      <point x="436" y="2"/>
      <point x="447" y="13" type="curve" smooth="yes"/>
      <point x="449" y="15"/>
      <point x="450" y="18"/>
      <point x="450" y="21" type="curve"/>
      <point x="450" y="63"/>
      <point x="450" y="107"/>
      <point x="450" y="150" type="curve"/>
      <point x="430" y="150" type="line"/>
      <point x="392" y="136"/>
      <point x="354" y="130"/>
      <point x="313" y="130" type="curve" smooth="yes"/>
      <point x="244" y="130"/>
      <point x="195" y="154"/>
      <point x="141" y="191" type="curve"/>
      <point x="109" y="95"/>
      <point x="154" y="-12"/>
    </contour>
    <contour>
      <point x="406" y="-112" type="curve" smooth="yes"/>
      <point x="406" y="-52"/>
      <point x="370" y="-15"/>
      <point x="311" y="-1" type="curve"/>
      <point x="316" y="23"/>
      <point x="319" y="38"/>
      <point x="323" y="55" type="curve"/>
      <point x="271" y="55"/>
      <point x="263" y="50"/>
      <point x="258" y="40" type="curve" smooth="yes"/>
      <point x="246" y="16"/>
      <point x="241" y="2"/>
      <point x="227" y="-26" type="curve" smooth="yes"/>
      <point x="223" y="-35"/>
      <point x="228" y="-41"/>
      <point x="235" y="-41" type="curve" smooth="yes"/>
      <point x="272" y="-41"/>
      <point x="285" y="-53"/>
      <point x="285" y="-80" type="curve" smooth="yes"/>
      <point x="285" y="-105"/>
      <point x="264" y="-121"/>
      <point x="229" y="-121" type="curve" smooth="yes"/>
      <point x="203" y="-121"/>
      <point x="186" y="-116"/>
      <point x="167" y="-106" type="curve"/>
      <point x="155" y="-106" type="line"/>
      <point x="155" y="-131"/>
      <point x="155" y="-187"/>
      <point x="155" y="-221" type="curve" smooth="yes"/>
      <point x="155" y="-230"/>
      <point x="177" y="-251"/>
      <point x="247" y="-251" type="curve" smooth="yes"/>
      <point x="356" y="-251"/>
      <point x="406" y="-189"/>
    </contour>
  </outline>
</glyph>
<glyph name="ecircumflex" format="1">
  <advance width="600"/>
  <unicode hex="00EA"/>
  <outline>
    <contour>
      <point x="305" y="417" type="curve" smooth="yes"/>
      <point x="362" y="417"/>
      <point x="384" y="400"/>
      <point x="420" y="346" type="curve"/>
      <point x="446" y="372"/>
      <point x="463" y="406"/>
      <point x="463" y="446" type="curve"/>
      <point x="463" y="506"/>
      <point x="382" y="552"/>
      <point x="304" y="552" type="curve"/>
      <point x="151" y="552"/>
      <point x="65" y="455"/>
      <point x="65" y="325" type="curve" smooth="yes"/>
      <point x="65" y="222" type="line" smooth="yes"/>
      <point x="65" y="74"/>
      <point x="155" y="-12"/>
      <point x="319" y="-12" type="curve" smooth="yes"/>
      <point x="350" y="-12"/>
      <point x="365" y="15"/>
      <point x="332" y="133" type="curve"/>
      <point x="261" y="133"/>
      <point x="215" y="150"/>
      <point x="215" y="220" type="curve" smooth="yes"/>
      <point x="215" y="332" type="line" smooth="yes"/>
      <point x="215" y="392"/>
      <point x="236" y="417"/>
    </contour>
    <contour>
      <point x="510" y="19" type="curve" smooth="yes"/>
      <point x="514" y="21"/>
      <point x="515" y="24"/>
      <point x="515" y="27" type="curve" smooth="yes"/>
      <point x="515" y="70"/>
      <point x="515" y="119"/>
      <point x="515" y="156" type="curve"/>
      <point x="495" y="156" type="line"/>
      <point x="450" y="142"/>
      <point x="403" y="133"/>
      <point x="332" y="133" type="curve" smooth="yes"/>
      <point x="262" y="133"/>
      <point x="241" y="136"/>
      <point x="197" y="144" type="curve"/>
      <point x="196" y="55"/>
      <point x="255" y="-12"/>
      <point x="319" y="-12" type="curve" smooth="yes"/>
      <point x="412" y="-12"/>
      <point x="491" y="10"/>
    </contour>
    <contour>
      <point x="520" y="230" type="line" smooth="yes"/>
      <point x="526" y="230"/>
      <point x="530" y="234"/>
      <point x="530" y="240" type="curve" smooth="yes"/>
      <point x="530" y="310" type="line" smooth="yes"/>
      <point x="530" y="489"/>
      <point x="439" y="552"/>
      <point x="304" y="552" type="curve" smooth="yes"/>
      <point x="291" y="552"/>
      <point x="284" y="537"/>
      <point x="305" y="417" type="curve"/>
      <point x="363" y="417"/>
      <point x="380" y="388"/>
      <point x="380" y="339" type="curve" smooth="yes"/>
      <point x="380" y="331" type="line" smooth="yes"/>
      <point x="380" y="330"/>
      <point x="380" y="330"/>
      <point x="379" y="330" type="curve" smooth="yes"/>
      <point x="240" y="330"/>
      <point x="199" y="330"/>
      <point x="110" y="330" type="curve"/>
      <point x="110" y="292"/>
      <point x="112" y="266"/>
      <point x="128" y="250" type="curve" smooth="yes"/>
      <point x="142" y="236"/>
      <point x="162" y="230"/>
      <point x="185" y="230" type="curve" smooth="yes"/>
    </contour>
    <contour>
      <point x="211" y="610" type="line"/>
      <point x="256" y="654"/>
      <point x="303" y="700"/>
      <point x="366" y="763" type="curve"/>
      <point x="315" y="811"/>
      <point x="293" y="812"/>
      <point x="285" y="812" type="curve"/>
      <point x="246" y="812" type="line"/>
      <point x="220" y="780"/>
      <point x="140" y="683"/>
      <point x="111" y="647" type="curve" smooth="yes"/>
      <point x="95" y="627"/>
      <point x="93" y="625"/>
      <point x="93" y="619" type="curve" smooth="yes"/>
      <point x="93" y="614"/>
      <point x="96" y="610"/>
      <point x="104" y="610" type="curve"/>
    </contour>
    <contour>
      <point x="517" y="610" type="curve"/>
      <point x="470" y="668"/>
      <point x="389" y="767"/>
      <point x="370" y="790" type="curve" smooth="yes"/>
      <point x="354" y="809"/>
      <point x="350" y="812"/>
      <point x="340" y="812" type="curve" smooth="yes"/>
      <point x="282" y="812" type="line"/>
      <point x="277" y="812"/>
      <point x="260" y="809"/>
      <point x="233" y="763" type="curve"/>
      <point x="297" y="699"/>
      <point x="355" y="642"/>
      <point x="376" y="621" type="curve" smooth="yes"/>
      <point x="385" y="612"/>
      <point x="390" y="610"/>
      <point x="405" y="610" type="curve" smooth="yes"/>
      <point x="457" y="610"/>
      <point x="489" y="610"/>
    </contour>
  </outline>
</glyph>
<glyph name="edieresis" format="1">
  <advance width="600"/>
  <unicode hex="00EB"/>
  <outline>
    <contour>
      <point x="305" y="417" type="curve" smooth="yes"/>
      <point x="362" y="417"/>
      <point x="384" y="400"/>
      <point x="420" y="346" type="curve"/>
      <point x="446" y="372"/>
      <point x="463" y="406"/>
      <point x="463" y="446" type="curve"/>
      <point x="463" y="506"/>
      <point x="382" y="552"/>
      <point x="304" y="552" type="curve"/>
      <point x="151" y="552"/>
      <point x="65" y="455"/>
      <point x="65" y="325" type="curve" smooth="yes"/>
      <point x="65" y="222" type="line" smooth="yes"/>
      <point x="65" y="74"/>
      <point x="155" y="-12"/>
      <point x="319" y="-12" type="curve" smooth="yes"/>
      <point x="350" y="-12"/>
      <point x="365" y="15"/>
      <point x="332" y="133" type="curve"/>
      <point x="261" y="133"/>
      <point x="215" y="150"/>
      <point x="215" y="220" type="curve" smooth="yes"/>
      <point x="215" y="332" type="line" smooth="yes"/>
      <point x="215" y="392"/>
      <point x="236" y="417"/>
    </contour>
    <contour>
      <point x="510" y="19" type="curve" smooth="yes"/>
      <point x="514" y="21"/>
      <point x="515" y="24"/>
      <point x="515" y="27" type="curve" smooth="yes"/>
      <point x="515" y="70"/>
      <point x="515" y="119"/>
      <point x="515" y="156" type="curve"/>
      <point x="495" y="156" type="line"/>
      <point x="450" y="142"/>
      <point x="403" y="133"/>
      <point x="332" y="133" type="curve" smooth="yes"/>
      <point x="262" y="133"/>
      <point x="241" y="136"/>
      <point x="197" y="144" type="curve"/>
      <point x="196" y="55"/>
      <point x="255" y="-12"/>
      <point x="319" y="-12" type="curve" smooth="yes"/>
      <point x="412" y="-12"/>
      <point x="491" y="10"/>
    </contour>
    <contour>
      <point x="520" y="230" type="line" smooth="yes"/>
      <point x="526" y="230"/>
      <point x="530" y="234"/>
      <point x="530" y="240" type="curve" smooth="yes"/>
      <point x="530" y="310" type="line" smooth="yes"/>
      <point x="530" y="489"/>
      <point x="439" y="552"/>
      <point x="304" y="552" type="curve" smooth="yes"/>
      <point x="291" y="552"/>
      <point x="284" y="537"/>
      <point x="305" y="417" type="curve"/>
      <point x="363" y="417"/>
      <point x="380" y="388"/>
      <point x="380" y="339" type="curve" smooth="yes"/>
      <point x="380" y="331" type="line" smooth="yes"/>
      <point x="380" y="330"/>
      <point x="380" y="330"/>
      <point x="379" y="330" type="curve" smooth="yes"/>
      <point x="240" y="330"/>
      <point x="199" y="330"/>
      <point x="110" y="330" type="curve"/>
      <point x="110" y="292"/>
      <point x="112" y="266"/>
      <point x="128" y="250" type="curve" smooth="yes"/>
      <point x="142" y="236"/>
      <point x="162" y="230"/>
      <point x="185" y="230" type="curve" smooth="yes"/>
    </contour>
    <contour>
      <point x="268" y="611" type="curve"/>
      <point x="268" y="757" type="line" smooth="yes"/>
      <point x="268" y="763"/>
      <point x="263" y="768"/>
      <point x="257" y="768" type="curve" smooth="yes"/>
      <point x="209" y="768"/>
      <point x="160" y="768"/>
      <point x="112" y="768" type="curve"/>
      <point x="112" y="622" type="line" smooth="yes"/>
      <point x="112" y="616"/>
      <point x="117" y="611"/>
      <point x="123" y="611" type="curve" smooth="yes"/>
      <point x="171" y="611"/>
      <point x="220" y="611"/>
    </contour>
    <contour>
      <point x="488" y="611" type="curve"/>
      <point x="488" y="757" type="line" smooth="yes"/>
      <point x="488" y="763"/>
      <point x="483" y="768"/>
      <point x="477" y="768" type="curve" smooth="yes"/>
      <point x="429" y="768"/>
      <point x="380" y="768"/>
      <point x="332" y="768" type="curve"/>
      <point x="332" y="622" type="line" smooth="yes"/>
      <point x="332" y="616"/>
      <point x="337" y="611"/>
      <point x="343" y="611" type="curve" smooth="yes"/>
      <point x="391" y="611"/>
      <point x="440" y="611"/>
    </contour>
  </outline>
</glyph>
<glyph name="igrave" format="1">
  <advance width="350"/>
  <unicode hex="00EC"/>
  <outline>
    <contour>
      <point x="30" y="540" type="curve"/>
      <point x="30" y="499"/>
      <point x="30" y="457"/>
      <point x="30" y="417" type="curve" smooth="yes"/>
      <point x="30" y="411"/>
      <point x="35" y="406"/>
      <point x="41" y="406" type="curve" smooth="yes"/>
      <point x="78" y="406"/>
      <point x="113" y="406"/>
      <point x="150" y="406" type="curve"/>
      <point x="150" y="529"/>
      <point x="147" y="540"/>
      <point x="135" y="540" type="curve" smooth="yes"/>
      <point x="98" y="540"/>
      <point x="67" y="540"/>
    </contour>
    <contour>
      <point x="260" y="0" type="curve"/>
      <point x="260" y="36"/>
      <point x="260" y="71"/>
      <point x="260" y="107" type="curve" smooth="yes"/>
      <point x="260" y="529" type="line" smooth="yes"/>
      <point x="260" y="535"/>
      <point x="255" y="540"/>
      <point x="249" y="540" type="curve" smooth="yes"/>
      <point x="110" y="540" type="line"/>
      <point x="110" y="11" type="line" smooth="yes"/>
      <point x="110" y="5"/>
      <point x="115" y="0"/>
      <point x="121" y="0" type="curve" smooth="yes"/>
      <point x="171" y="0"/>
      <point x="210" y="0"/>
    </contour>
    <contour>
      <point x="245" y="619" type="curve"/>
      <point x="210" y="681"/>
      <point x="175" y="743"/>
      <point x="139" y="807" type="curve"/>
      <point x="76" y="807"/>
      <point x="29" y="807"/>
      <point x="-32" y="807" type="curve" smooth="yes"/>
      <point x="-40" y="807"/>
      <point x="-45" y="799"/>
      <point x="-39" y="792" type="curve"/>
      <point x="12" y="735"/>
      <point x="51" y="692"/>
      <point x="110" y="627" type="curve" smooth="yes"/>
      <point x="113" y="623"/>
      <point x="119" y="619"/>
      <point x="127" y="619" type="curve" smooth="yes"/>
      <point x="170" y="619"/>
      <point x="207" y="619"/>
    </contour>
  </outline>
</glyph>
<glyph name="iacute" format="1">
  <advance width="350"/>
  <unicode hex="00ED"/>
  <outline>
    <contour>
      <point x="30" y="540" type="curve"/>
      <point x="30" y="499"/>
      <point x="30" y="457"/>
      <point x="30" y="417" type="curve" smooth="yes"/>
      <point x="30" y="411"/>
      <point x="35" y="406"/>
      <point x="41" y="406" type="curve" smooth="yes"/>
      <point x="78" y="406"/>
      <point x="113" y="406"/>
      <point x="150" y="406" type="curve"/>
      <point x="150" y="529"/>
      <point x="147" y="540"/>
      <point x="135" y="540" type="curve" smooth="yes"/>
      <point x="98" y="540"/>
      <point x="67" y="540"/>
    </contour>
    <contour>
      <point x="260" y="0" type="curve"/>
      <point x="260" y="36"/>
      <point x="260" y="71"/>
      <point x="260" y="107" type="curve" smooth="yes"/>
      <point x="260" y="529" type="line" smooth="yes"/>
      <point x="260" y="535"/>
      <point x="255" y="540"/>
      <point x="249" y="540" type="curve" smooth="yes"/>
      <point x="110" y="540" type="line"/>
      <point x="110" y="11" type="line" smooth="yes"/>
      <point x="110" y="5"/>
      <point x="115" y="0"/>
      <point x="121" y="0" type="curve" smooth="yes"/>
      <point x="171" y="0"/>
      <point x="210" y="0"/>
    </contour>
    <contour>
      <point x="227" y="619" type="curve" smooth="yes"/>
      <point x="235" y="619"/>
      <point x="241" y="623"/>
      <point x="244" y="627" type="curve" smooth="yes"/>
      <point x="303" y="692"/>
      <point x="342" y="735"/>
      <point x="393" y="792" type="curve"/>
      <point x="399" y="799"/>
      <point x="394" y="807"/>
      <point x="386" y="807" type="curve" smooth="yes"/>
      <point x="325" y="807"/>
      <point x="278" y="807"/>
      <point x="215" y="807" type="curve"/>
      <point x="179" y="743"/>
      <point x="144" y="681"/>
      <point x="109" y="619" type="curve"/>
      <point x="147" y="619"/>
      <point x="184" y="619"/>
    </contour>
  </outline>
</glyph>
<glyph name="icircumflex" format="1">
  <advance width="350"/>
  <unicode hex="00EE"/>
  <outline>
    <contour>
      <point x="30" y="540" type="curve"/>
      <point x="30" y="499"/>
      <point x="30" y="457"/>
      <point x="30" y="417" type="curve" smooth="yes"/>
      <point x="30" y="411"/>
      <point x="35" y="406"/>
      <point x="41" y="406" type="curve" smooth="yes"/>
      <point x="78" y="406"/>
      <point x="113" y="406"/>
      <point x="150" y="406" type="curve"/>
      <point x="150" y="529"/>
      <point x="147" y="540"/>
      <point x="135" y="540" type="curve" smooth="yes"/>
      <point x="98" y="540"/>
      <point x="67" y="540"/>
    </contour>
    <contour>
      <point x="260" y="0" type="curve"/>
      <point x="260" y="36"/>
      <point x="260" y="71"/>
      <point x="260" y="107" type="curve" smooth="yes"/>
      <point x="260" y="529" type="line" smooth="yes"/>
      <point x="260" y="535"/>
      <point x="255" y="540"/>
      <point x="249" y="540" type="curve" smooth="yes"/>
      <point x="110" y="540" type="line"/>
      <point x="110" y="11" type="line" smooth="yes"/>
      <point x="110" y="5"/>
      <point x="115" y="0"/>
      <point x="121" y="0" type="curve" smooth="yes"/>
      <point x="171" y="0"/>
      <point x="210" y="0"/>
    </contour>
    <contour>
      <point x="88" y="610" type="line"/>
      <point x="133" y="654"/>
      <point x="180" y="700"/>
      <point x="243" y="763" type="curve"/>
      <point x="192" y="811"/>
      <point x="170" y="812"/>
      <point x="162" y="812" type="curve"/>
      <point x="123" y="812" type="line"/>
      <point x="97" y="780"/>
      <point x="17" y="683"/>
      <point x="-12" y="647" type="curve" smooth="yes"/>
      <point x="-28" y="627"/>
      <point x="-30" y="625"/>
      <point x="-30" y="619" type="curve" smooth="yes"/>
      <point x="-30" y="614"/>
      <point x="-27" y="610"/>
      <point x="-19" y="610" type="curve"/>
    </contour>
    <contour>
      <point x="394" y="610" type="curve"/>
      <point x="347" y="668"/>
      <point x="266" y="767"/>
      <point x="247" y="790" type="curve" smooth="yes"/>
      <point x="231" y="809"/>
      <point x="227" y="812"/>
      <point x="217" y="812" type="curve" smooth="yes"/>
      <point x="159" y="812" type="line"/>
      <point x="154" y="812"/>
      <point x="137" y="809"/>
      <point x="110" y="763" type="curve"/>
      <point x="174" y="699"/>
      <point x="232" y="642"/>
      <point x="253" y="621" type="curve" smooth="yes"/>
      <point x="262" y="612"/>
      <point x="267" y="610"/>
      <point x="282" y="610" type="curve" smooth="yes"/>
      <point x="334" y="610"/>
      <point x="366" y="610"/>
    </contour>
  </outline>
</glyph>
<glyph name="eth" format="1">
  <advance width="600"/>
  <unicode hex="00F0"/>
  <outline>
    <contour>
      <point x="234" y="490" type="curve" smooth="yes"/>
      <point x="132" y="490"/>
      <point x="55" y="409"/>
      <point x="55" y="290" type="curve" smooth="yes"/>
      <point x="55" y="211" type="line" smooth="yes"/>
      <point x="55" y="74"/>
      <point x="153" y="-12"/>
      <point x="298" y="-12" type="curve" smooth="yes"/>
      <point x="311" y="-12"/>
      <point x="320" y="2"/>
      <point x="295" y="128" type="curve"/>
      <point x="231" y="128"/>
      <point x="205" y="163"/>
      <point x="205" y="221" type="curve" smooth="yes"/>
      <point x="205" y="276" type="line" smooth="yes"/>
      <point x="205" y="333"/>
      <point x="234" y="364"/>
      <point x="282" y="364" type="curve" smooth="yes"/>
      <point x="335" y="364"/>
      <point x="366" y="346"/>
      <point x="406" y="314" type="curve"/>
      <point x="413" y="326"/>
      <point x="416" y="336"/>
      <point x="416" y="350" type="curve" smooth="yes"/>
      <point x="416" y="414"/>
      <point x="342" y="490"/>
    </contour>
    <contour>
      <point x="298" y="-12" type="curve" smooth="yes"/>
      <point x="444" y="-12"/>
      <point x="545" y="90"/>
      <point x="545" y="238" type="curve" smooth="yes"/>
      <point x="545" y="326" type="line" smooth="yes"/>
      <point x="545" y="484"/>
      <point x="468" y="615"/>
      <point x="341" y="742" type="curve"/>
      <point x="333" y="750"/>
      <point x="328" y="750"/>
      <point x="321" y="750" type="curve"/>
      <point x="266" y="750"/>
      <point x="210" y="750"/>
      <point x="155" y="750" type="curve"/>
      <point x="155" y="730" type="line"/>
      <point x="302" y="592"/>
      <point x="395" y="482"/>
      <point x="395" y="326" type="curve" smooth="yes"/>
      <point x="395" y="233" type="line" smooth="yes"/>
      <point x="395" y="166"/>
      <point x="358" y="128"/>
      <point x="295" y="128" type="curve" smooth="yes"/>
      <point x="247" y="128"/>
      <point x="214" y="128"/>
      <point x="187" y="128" type="curve"/>
      <point x="187" y="44"/>
      <point x="219" y="-12"/>
    </contour>
    <contour>
      <point x="550" y="748" type="curve"/>
      <point x="344" y="690" type="line" smooth="yes"/>
      <point x="321" y="684"/>
      <point x="290" y="690"/>
      <point x="252" y="680" type="curve" smooth="yes"/>
      <point x="131" y="648" type="line" smooth="yes"/>
      <point x="120" y="645"/>
      <point x="117" y="642"/>
      <point x="117" y="630" type="curve" smooth="yes"/>
      <point x="117" y="601"/>
      <point x="117" y="573"/>
      <point x="117" y="543" type="curve"/>
      <point x="318" y="598" type="line" smooth="yes"/>
      <point x="346" y="606"/>
      <point x="383" y="600"/>
      <point x="408" y="607" type="curve" smooth="yes"/>
      <point x="537" y="642" type="line" smooth="yes"/>
      <point x="548" y="645"/>
      <point x="550" y="650"/>
      <point x="550" y="660" type="curve" smooth="yes"/>
      <point x="550" y="689"/>
      <point x="550" y="719"/>
    </contour>
  </outline>
</glyph>
<glyph name="ograve" format="1">
  <advance width="600"/>
  <unicode hex="00F2"/>
  <outline>
    <contour>
      <point x="302" y="552" type="curve" smooth="yes"/>
      <point x="155" y="552"/>
      <point x="55" y="450"/>
      <point x="55" y="302" type="curve" smooth="yes"/>
      <point x="55" y="248" type="line" smooth="yes"/>
      <point x="55" y="89"/>
      <point x="153" y="-12"/>
      <point x="298" y="-12" type="curve" smooth="yes"/>
      <point x="312" y="-12"/>
      <point x="320" y="1"/>
      <point x="295" y="128" type="curve"/>
      <point x="231" y="128"/>
      <point x="205" y="161"/>
      <point x="205" y="238" type="curve" smooth="yes"/>
      <point x="205" y="307" type="line" smooth="yes"/>
      <point x="205" y="374"/>
      <point x="241" y="412"/>
      <point x="305" y="412" type="curve" smooth="yes"/>
      <point x="353" y="412"/>
      <point x="382" y="402"/>
      <point x="412" y="374" type="curve"/>
      <point x="456" y="453"/>
      <point x="402" y="552"/>
    </contour>
    <contour>
      <point x="298" y="-12" type="curve" smooth="yes"/>
      <point x="444" y="-12"/>
      <point x="545" y="90"/>
      <point x="545" y="238" type="curve" smooth="yes"/>
      <point x="545" y="292" type="line" smooth="yes"/>
      <point x="545" y="451"/>
      <point x="446" y="552"/>
      <point x="302" y="552" type="curve" smooth="yes"/>
      <point x="295" y="552"/>
      <point x="291" y="545"/>
      <point x="305" y="412" type="curve"/>
      <point x="368" y="412"/>
      <point x="395" y="380"/>
      <point x="395" y="302" type="curve" smooth="yes"/>
      <point x="395" y="233" type="line" smooth="yes"/>
      <point x="395" y="166"/>
      <point x="358" y="128"/>
      <point x="295" y="128" type="curve" smooth="yes"/>
      <point x="247" y="128"/>
      <point x="216" y="138"/>
      <point x="186" y="166" type="curve"/>
      <point x="142" y="87"/>
      <point x="197" y="-12"/>
    </contour>
    <contour>
      <point x="368" y="619" type="curve"/>
      <point x="333" y="681"/>
      <point x="298" y="743"/>
      <point x="262" y="807" type="curve"/>
      <point x="199" y="807"/>
      <point x="152" y="807"/>
      <point x="91" y="807" type="curve" smooth="yes"/>
      <point x="83" y="807"/>
      <point x="78" y="799"/>
      <point x="84" y="792" type="curve"/>
      <point x="135" y="735"/>
      <point x="174" y="692"/>
      <point x="233" y="627" type="curve" smooth="yes"/>
      <point x="236" y="623"/>
      <point x="242" y="619"/>
      <point x="250" y="619" type="curve" smooth="yes"/>
      <point x="293" y="619"/>
      <point x="330" y="619"/>
    </contour>
  </outline>
</glyph>
<glyph name="oacute" format="1">
  <advance width="600"/>
  <unicode hex="00F3"/>
  <outline>
    <contour>
      <point x="302" y="552" type="curve" smooth="yes"/>
      <point x="155" y="552"/>
      <point x="55" y="450"/>
      <point x="55" y="302" type="curve" smooth="yes"/>
      <point x="55" y="248" type="line" smooth="yes"/>
      <point x="55" y="89"/>
      <point x="153" y="-12"/>
      <point x="298" y="-12" type="curve" smooth="yes"/>
      <point x="312" y="-12"/>
      <point x="320" y="1"/>
      <point x="295" y="128" type="curve"/>
      <point x="231" y="128"/>
      <point x="205" y="161"/>
      <point x="205" y="238" type="curve" smooth="yes"/>
      <point x="205" y="307" type="line" smooth="yes"/>
      <point x="205" y="374"/>
      <point x="241" y="412"/>
      <point x="305" y="412" type="curve" smooth="yes"/>
      <point x="353" y="412"/>
      <point x="382" y="402"/>
      <point x="412" y="374" type="curve"/>
      <point x="456" y="453"/>
      <point x="402" y="552"/>
    </contour>
    <contour>
      <point x="298" y="-12" type="curve" smooth="yes"/>
      <point x="444" y="-12"/>
      <point x="545" y="90"/>
      <point x="545" y="238" type="curve" smooth="yes"/>
      <point x="545" y="292" type="line" smooth="yes"/>
      <point x="545" y="451"/>
      <point x="446" y="552"/>
      <point x="302" y="552" type="curve" smooth="yes"/>
      <point x="295" y="552"/>
      <point x="291" y="545"/>
      <point x="305" y="412" type="curve"/>
      <point x="368" y="412"/>
      <point x="395" y="380"/>
      <point x="395" y="302" type="curve" smooth="yes"/>
      <point x="395" y="233" type="line" smooth="yes"/>
      <point x="395" y="166"/>
      <point x="358" y="128"/>
      <point x="295" y="128" type="curve" smooth="yes"/>
      <point x="247" y="128"/>
      <point x="216" y="138"/>
      <point x="186" y="166" type="curve"/>
      <point x="142" y="87"/>
      <point x="197" y="-12"/>
    </contour>
    <contour>
      <point x="350" y="619" type="curve" smooth="yes"/>
      <point x="358" y="619"/>
      <point x="364" y="623"/>
      <point x="367" y="627" type="curve" smooth="yes"/>
      <point x="426" y="692"/>
      <point x="465" y="735"/>
      <point x="516" y="792" type="curve"/>
      <point x="522" y="799"/>
      <point x="517" y="807"/>
      <point x="509" y="807" type="curve" smooth="yes"/>
      <point x="448" y="807"/>
      <point x="401" y="807"/>
      <point x="338" y="807" type="curve"/>
      <point x="302" y="743"/>
      <point x="267" y="681"/>
      <point x="232" y="619" type="curve"/>
      <point x="270" y="619"/>
      <point x="307" y="619"/>
    </contour>
  </outline>
</glyph>
<glyph name="ocircumflex" format="1">
  <advance width="600"/>
  <unicode hex="00F4"/>
  <outline>
    <contour>
      <point x="302" y="552" type="curve" smooth="yes"/>
      <point x="155" y="552"/>
      <point x="55" y="450"/>
      <point x="55" y="302" type="curve" smooth="yes"/>
      <point x="55" y="248" type="line" smooth="yes"/>
      <point x="55" y="89"/>
      <point x="153" y="-12"/>
      <point x="298" y="-12" type="curve" smooth="yes"/>
      <point x="312" y="-12"/>
      <point x="320" y="1"/>
      <point x="295" y="128" type="curve"/>
      <point x="231" y="128"/>
      <point x="205" y="161"/>
      <point x="205" y="238" type="curve" smooth="yes"/>
      <point x="205" y="307" type="line" smooth="yes"/>
      <point x="205" y="374"/>
      <point x="241" y="412"/>
      <point x="305" y="412" type="curve" smooth="yes"/>
      <point x="353" y="412"/>
      <point x="382" y="402"/>
      <point x="412" y="374" type="curve"/>
      <point x="456" y="453"/>
      <point x="402" y="552"/>
    </contour>
    <contour>
      <point x="298" y="-12" type="curve" smooth="yes"/>
      <point x="444" y="-12"/>
      <point x="545" y="90"/>
      <point x="545" y="238" type="curve" smooth="yes"/>
      <point x="545" y="292" type="line" smooth="yes"/>
      <point x="545" y="451"/>
      <point x="446" y="552"/>
      <point x="302" y="552" type="curve" smooth="yes"/>
      <point x="295" y="552"/>
      <point x="291" y="545"/>
      <point x="305" y="412" type="curve"/>
      <point x="368" y="412"/>
      <point x="395" y="380"/>
      <point x="395" y="302" type="curve" smooth="yes"/>
      <point x="395" y="233" type="line" smooth="yes"/>
      <point x="395" y="166"/>
      <point x="358" y="128"/>
      <point x="295" y="128" type="curve" smooth="yes"/>
      <point x="247" y="128"/>
      <point x="216" y="138"/>
      <point x="186" y="166" type="curve"/>
      <point x="142" y="87"/>
      <point x="197" y="-12"/>
    </contour>
    <contour>
      <point x="211" y="610" type="line"/>
      <point x="256" y="654"/>
      <point x="303" y="700"/>
      <point x="366" y="763" type="curve"/>
      <point x="315" y="811"/>
      <point x="293" y="812"/>
      <point x="285" y="812" type="curve"/>
      <point x="246" y="812" type="line"/>
      <point x="220" y="780"/>
      <point x="140" y="683"/>
      <point x="111" y="647" type="curve" smooth="yes"/>
      <point x="95" y="627"/>
      <point x="93" y="625"/>
      <point x="93" y="619" type="curve" smooth="yes"/>
      <point x="93" y="614"/>
      <point x="96" y="610"/>
      <point x="104" y="610" type="curve"/>
    </contour>
    <contour>
      <point x="517" y="610" type="curve"/>
      <point x="470" y="668"/>
      <point x="389" y="767"/>
      <point x="370" y="790" type="curve" smooth="yes"/>
      <point x="354" y="809"/>
      <point x="350" y="812"/>
      <point x="340" y="812" type="curve" smooth="yes"/>
      <point x="282" y="812" type="line"/>
      <point x="277" y="812"/>
      <point x="260" y="809"/>
      <point x="233" y="763" type="curve"/>
      <point x="297" y="699"/>
      <point x="355" y="642"/>
      <point x="376" y="621" type="curve" smooth="yes"/>
      <point x="385" y="612"/>
      <point x="390" y="610"/>
      <point x="405" y="610" type="curve" smooth="yes"/>
      <point x="457" y="610"/>
      <point x="489" y="610"/>
    </contour>
  </outline>
</glyph>
<glyph name="divide" format="1">
  <advance width="600"/>
  <unicode hex="00F7"/>
  <outline>
    <contour>
      <point x="60" y="370" type="line"/>
      <point x="60" y="324"/>
      <point x="60" y="287"/>
      <point x="60" y="241" type="curve" smooth="yes"/>
      <point x="60" y="238"/>
      <point x="61" y="235"/>
      <point x="63" y="233" type="curve" smooth="yes"/>
      <point x="65" y="231"/>
      <point x="68" y="230"/>
      <point x="71" y="230" type="curve"/>
      <point x="540" y="230" type="line"/>
      <point x="540" y="276"/>
      <point x="540" y="313"/>
      <point x="540" y="359" type="curve" smooth="yes"/>
      <point x="540" y="365"/>
      <point x="535" y="370"/>
      <point x="529" y="370" type="curve"/>
    </contour>
    <contour>
      <point x="385" y="440" type="curve"/>
      <point x="385" y="569" type="line" smooth="yes"/>
      <point x="385" y="575"/>
      <point x="380" y="580"/>
      <point x="374" y="580" type="curve" smooth="yes"/>
      <point x="311" y="580"/>
      <point x="278" y="580"/>
      <point x="215" y="580" type="curve"/>
      <point x="215" y="451" type="line" smooth="yes"/>
      <point x="215" y="445"/>
      <point x="220" y="440"/>
      <point x="226" y="440" type="curve" smooth="yes"/>
      <point x="289" y="440"/>
      <point x="322" y="440"/>
    </contour>
    <contour>
      <point x="385" y="20" type="curve"/>
      <point x="385" y="149" type="line" smooth="yes"/>
      <point x="385" y="155"/>
      <point x="380" y="160"/>
      <point x="374" y="160" type="curve" smooth="yes"/>
      <point x="311" y="160"/>
      <point x="278" y="160"/>
      <point x="215" y="160" type="curve"/>
      <point x="215" y="31" type="line" smooth="yes"/>
      <point x="215" y="25"/>
      <point x="220" y="20"/>
      <point x="226" y="20" type="curve" smooth="yes"/>
      <point x="289" y="20"/>
      <point x="322" y="20"/>
    </contour>
  </outline>
</glyph>
<glyph name="ucircumflex" format="1">
  <advance width="600"/>
  <unicode hex="00FB"/>
  <outline>
    <contour>
      <point x="370" y="540" type="curve"/>
      <point x="370" y="11" type="line" smooth="yes"/>
      <point x="370" y="8"/>
      <point x="371" y="5"/>
      <point x="373" y="3" type="curve" smooth="yes"/>
      <point x="375" y="1"/>
      <point x="378" y="0"/>
      <point x="381" y="0" type="curve" smooth="yes"/>
      <point x="426" y="0"/>
      <point x="475" y="0"/>
      <point x="530" y="0" type="curve"/>
      <point x="530" y="28"/>
      <point x="530" y="62"/>
      <point x="530" y="98" type="curve" smooth="yes"/>
      <point x="530" y="529" type="line" smooth="yes"/>
      <point x="530" y="535"/>
      <point x="525" y="540"/>
      <point x="519" y="540" type="curve" smooth="yes"/>
      <point x="469" y="540"/>
      <point x="420" y="540"/>
    </contour>
    <contour>
      <point x="205" y="-12" type="curve" smooth="yes"/>
      <point x="255" y="-12"/>
      <point x="312" y="11"/>
      <point x="373" y="89" type="curve" smooth="yes"/>
      <point x="400" y="122"/>
      <point x="437" y="177"/>
      <point x="413" y="247" type="curve"/>
      <point x="345" y="171"/>
      <point x="305" y="148"/>
      <point x="262" y="148" type="curve" smooth="yes"/>
      <point x="240" y="148"/>
      <point x="230" y="159"/>
      <point x="230" y="182" type="curve"/>
      <point x="93" y="182"/>
      <point x="70" y="160"/>
      <point x="70" y="139" type="curve" smooth="yes"/>
      <point x="70" y="56"/>
      <point x="122" y="-12"/>
    </contour>
    <contour>
      <point x="70" y="540" type="curve"/>
      <point x="70" y="512"/>
      <point x="70" y="478"/>
      <point x="70" y="442" type="curve" smooth="yes"/>
      <point x="70" y="139" type="line"/>
      <point x="70" y="90"/>
      <point x="169" y="77"/>
      <point x="230" y="122" type="curve"/>
      <point x="230" y="138"/>
      <point x="230" y="156"/>
      <point x="230" y="182" type="curve" smooth="yes"/>
      <point x="230" y="529" type="line" smooth="yes"/>
      <point x="230" y="535"/>
      <point x="225" y="540"/>
      <point x="219" y="540" type="curve" smooth="yes"/>
      <point x="169" y="540"/>
      <point x="120" y="540"/>
    </contour>
    <contour>
      <point x="211" y="610" type="line"/>
      <point x="256" y="654"/>
      <point x="303" y="700"/>
      <point x="366" y="763" type="curve"/>
      <point x="315" y="811"/>
      <point x="293" y="812"/>
      <point x="285" y="812" type="curve"/>
      <point x="246" y="812" type="line"/>
      <point x="220" y="780"/>
      <point x="140" y="683"/>
      <point x="111" y="647" type="curve" smooth="yes"/>
      <point x="95" y="627"/>
      <point x="93" y="625"/>
      <point x="93" y="619" type="curve" smooth="yes"/>
      <point x="93" y="614"/>
      <point x="96" y="610"/>
      <point x="104" y="610" type="curve"/>
    </contour>
    <contour>
      <point x="517" y="610" type="curve"/>
      <point x="470" y="668"/>
      <point x="389" y="767"/>
      <point x="370" y="790" type="curve" smooth="yes"/>
      <point x="354" y="809"/>
      <point x="350" y="812"/>
      <point x="340" y="812" type="curve" smooth="yes"/>
      <point x="282" y="812" type="line"/>
      <point x="277" y="812"/>
      <point x="260" y="809"/>
      <point x="233" y="763" type="curve"/>
      <point x="297" y="699"/>
      <point x="355" y="642"/>
      <point x="376" y="621" type="curve" smooth="yes"/>
      <point x="385" y="612"/>
      <point x="390" y="610"/>
      <point x="405" y="610" type="curve" smooth="yes"/>
      <point x="457" y="610"/>
      <point x="489" y="610"/>
    </contour>
  </outline>
</glyph>
<glyph name="Abreve" format="1">
  <advance width="600"/>
  <unicode hex="0102"/>
  <outline>
    <contour>
      <point x="186" y="0" type="curve"/>
      <point x="266" y="433"/>
      <point x="280" y="511"/>
      <point x="302" y="628" type="curve"/>
      <point x="308" y="660"/>
      <point x="329" y="681"/>
      <point x="421" y="700" type="curve"/>
      <point x="169" y="700" type="line"/>
      <point x="149" y="596"/>
      <point x="103" y="355"/>
      <point x="37" y="13" type="curve"/>
      <point x="35" y="3"/>
      <point x="41" y="0"/>
      <point x="45" y="0" type="curve" smooth="yes"/>
      <point x="92" y="0"/>
      <point x="139" y="0"/>
    </contour>
    <contour>
      <point x="566" y="0" type="curve"/>
      <point x="512" y="277"/>
      <point x="467" y="515"/>
      <point x="433" y="689" type="curve"/>
      <point x="432" y="694"/>
      <point x="431" y="695"/>
      <point x="429" y="697" type="curve" smooth="yes"/>
      <point x="426" y="700"/>
      <point x="425" y="700"/>
      <point x="421" y="700" type="curve"/>
      <point x="277" y="700"/>
      <point x="257" y="689"/>
      <point x="257" y="556" type="curve"/>
      <point x="273" y="556"/>
      <point x="294" y="556"/>
      <point x="306" y="556" type="curve" smooth="yes"/>
      <point x="310" y="556"/>
      <point x="313" y="555"/>
      <point x="314" y="550" type="curve"/>
      <point x="335" y="432"/>
      <point x="359" y="304"/>
      <point x="412" y="11" type="curve"/>
      <point x="413" y="6"/>
      <point x="414" y="4"/>
      <point x="415" y="3" type="curve" smooth="yes"/>
      <point x="417" y="1"/>
      <point x="419" y="0"/>
      <point x="423" y="0" type="curve" smooth="yes"/>
      <point x="471" y="0"/>
      <point x="518" y="0"/>
    </contour>
    <contour>
      <point x="147" y="292" type="line"/>
      <point x="147" y="161" type="line" smooth="yes"/>
      <point x="147" y="158"/>
      <point x="148" y="155"/>
      <point x="150" y="153" type="curve" smooth="yes"/>
      <point x="152" y="151"/>
      <point x="155" y="150"/>
      <point x="158" y="150" type="curve"/>
      <point x="467" y="150" type="line"/>
      <point x="467" y="288"/>
      <point x="462" y="292"/>
      <point x="456" y="292" type="curve" smooth="yes"/>
    </contour>
    <contour>
      <point x="213" y="949" type="curve"/>
      <point x="187" y="949"/>
      <point x="142" y="949"/>
      <point x="120" y="949" type="curve"/>
      <point x="107" y="949"/>
      <point x="104" y="946"/>
      <point x="106" y="930" type="curve" smooth="yes"/>
      <point x="116" y="853"/>
      <point x="183" y="778"/>
      <point x="273" y="778" type="curve" smooth="yes"/>
      <point x="300" y="778" type="line"/>
      <point x="330" y="778"/>
      <point x="348" y="821"/>
      <point x="300" y="895" type="curve"/>
      <point x="255" y="895"/>
      <point x="229" y="909"/>
    </contour>
    <contour>
      <point x="387" y="949" type="curve"/>
      <point x="371" y="909"/>
      <point x="345" y="895"/>
      <point x="300" y="895" type="curve"/>
      <point x="252" y="821"/>
      <point x="270" y="778"/>
      <point x="300" y="778" type="curve"/>
      <point x="327" y="778" type="line" smooth="yes"/>
      <point x="417" y="778"/>
      <point x="484" y="853"/>
      <point x="494" y="930" type="curve" smooth="yes"/>
      <point x="496" y="946"/>
      <point x="493" y="949"/>
      <point x="480" y="949" type="curve"/>
      <point x="458" y="949"/>
      <point x="413" y="949"/>
    </contour>
  </outline>
</glyph>
<glyph name="aogonek" format="1">
  <advance width="600"/>
  <unicode hex="0105"/>
  <outline>
    <contour>
      <point x="255" y="550" type="curve" smooth="yes"/>
      <point x="191" y="550"/>
      <point x="97" y="536"/>
      <point x="83" y="522" type="curve" smooth="yes"/>
      <point x="81" y="520"/>
      <point x="80" y="517"/>
      <point x="80" y="514" type="curve" smooth="yes"/>
      <point x="80" y="473"/>
      <point x="80" y="431"/>
      <point x="80" y="390" type="curve"/>
      <point x="100" y="390" type="line"/>
      <point x="157" y="404"/>
      <point x="204" y="410"/>
      <point x="267" y="410" type="curve" smooth="yes"/>
      <point x="333" y="410"/>
      <point x="359" y="393"/>
      <point x="359" y="338" type="curve"/>
      <point x="494" y="302"/>
      <point x="514" y="303"/>
      <point x="514" y="324" type="curve"/>
      <point x="514" y="486"/>
      <point x="440" y="550"/>
    </contour>
    <contour>
      <point x="359" y="428" type="curve"/>
      <point x="359" y="405"/>
      <point x="359" y="380"/>
      <point x="359" y="357" type="curve" smooth="yes"/>
      <point x="359" y="277"/>
      <point x="359" y="222"/>
      <point x="359" y="121" type="curve" smooth="yes"/>
      <point x="359" y="75"/>
      <point x="436" y="33"/>
      <point x="514" y="33" type="curve"/>
      <point x="514" y="62"/>
      <point x="514" y="86"/>
      <point x="514" y="120" type="curve" smooth="yes"/>
      <point x="514" y="195"/>
      <point x="514" y="227"/>
      <point x="514" y="324" type="curve" smooth="yes"/>
      <point x="514" y="391"/>
      <point x="486" y="428"/>
    </contour>
    <contour>
      <point x="570" y="132" type="line"/>
      <point x="550" y="132" type="line"/>
      <point x="546" y="132"/>
      <point x="544" y="132"/>
      <point x="539" y="132" type="curve" smooth="yes"/>
      <point x="524" y="132"/>
      <point x="515" y="142"/>
      <point x="514" y="164" type="curve"/>
      <point x="370" y="159"/>
      <point x="359" y="139"/>
      <point x="359" y="121" type="curve" smooth="yes"/>
      <point x="359" y="53"/>
      <point x="419" y="-10"/>
      <point x="520" y="-10" type="curve" smooth="yes"/>
      <point x="559" y="-10" type="line" smooth="yes"/>
      <point x="566" y="-10"/>
      <point x="570" y="-6"/>
      <point x="570" y="1" type="curve"/>
    </contour>
    <contour>
      <point x="200" y="155" type="curve" smooth="yes"/>
      <point x="200" y="178" type="line" smooth="yes"/>
      <point x="200" y="210"/>
      <point x="200" y="232"/>
      <point x="200" y="257" type="curve"/>
      <point x="116" y="257"/>
      <point x="50" y="224"/>
      <point x="50" y="171" type="curve" smooth="yes"/>
      <point x="50" y="134" type="line" smooth="yes"/>
      <point x="50" y="51"/>
      <point x="110" y="-10"/>
      <point x="205" y="-10" type="curve" smooth="yes"/>
      <point x="273" y="-10"/>
      <point x="340" y="23"/>
      <point x="392" y="95" type="curve" smooth="yes"/>
      <point x="400" y="106"/>
      <point x="401" y="127"/>
      <point x="393" y="183" type="curve"/>
      <point x="347" y="140"/>
      <point x="306" y="125"/>
      <point x="239" y="125" type="curve" smooth="yes"/>
      <point x="236" y="125" type="line" smooth="yes"/>
      <point x="209" y="125"/>
      <point x="200" y="140"/>
    </contour>
    <contour>
      <point x="384" y="286" type="curve" smooth="yes"/>
      <point x="367" y="303"/>
      <point x="295" y="317"/>
      <point x="203" y="317" type="curve" smooth="yes"/>
      <point x="120" y="317"/>
      <point x="52" y="252"/>
      <point x="50" y="171" type="curve" smooth="yes"/>
      <point x="50" y="170"/>
      <point x="71" y="164"/>
      <point x="200" y="178" type="curve"/>
      <point x="200" y="197"/>
      <point x="213" y="212"/>
      <point x="236" y="212" type="curve" smooth="yes"/>
      <point x="285" y="212"/>
      <point x="376" y="212"/>
      <point x="410" y="212" type="curve"/>
      <point x="410" y="240"/>
      <point x="402" y="268"/>
    </contour>
    <contour>
      <point x="343" y="-120" type="curve" smooth="yes"/>
      <point x="343" y="-202"/>
      <point x="396" y="-249"/>
      <point x="483" y="-249" type="curve" smooth="yes"/>
      <point x="527" y="-249"/>
      <point x="565" y="-235"/>
      <point x="565" y="-214" type="curve" smooth="yes"/>
      <point x="565" y="-130"/>
      <point x="565" y="-113"/>
      <point x="565" y="-92" type="curve"/>
      <point x="545" y="-92" type="line"/>
      <point x="532" y="-100"/>
      <point x="517" y="-105"/>
      <point x="501" y="-105" type="curve" smooth="yes"/>
      <point x="476" y="-105"/>
      <point x="463" y="-95"/>
      <point x="463" y="-75" type="curve" smooth="yes"/>
      <point x="463" y="-44"/>
      <point x="496" y="-20"/>
      <point x="559" y="-10" type="curve" smooth="yes"/>
      <point x="569" y="-8"/>
      <point x="570" y="-3"/>
      <point x="570" y="1" type="curve" smooth="yes"/>
      <point x="559" y="19"/>
      <point x="536" y="43"/>
      <point x="512" y="43" type="curve" smooth="yes"/>
      <point x="417" y="43"/>
      <point x="343" y="-20"/>
    </contour>
  </outline>
</glyph>
<glyph name="cacute" format="1">
  <advance width="500"/>
  <unicode hex="0107"/>
  <outline>
    <contour>
      <point x="314" y="552" type="curve" smooth="yes"/>
      <point x="159" y="552"/>
      <point x="55" y="447"/>
      <point x="55" y="301" type="curve" smooth="yes"/>
      <point x="55" y="235" type="line" smooth="yes"/>
      <point x="55" y="79"/>
      <point x="152" y="-12"/>
      <point x="314" y="-12" type="curve" smooth="yes"/>
      <point x="348" y="-12"/>
      <point x="350" y="7"/>
      <point x="313" y="130" type="curve"/>
      <point x="245" y="130"/>
      <point x="210" y="167"/>
      <point x="210" y="243" type="curve" smooth="yes"/>
      <point x="210" y="299" type="line" smooth="yes"/>
      <point x="210" y="379"/>
      <point x="254" y="410"/>
      <point x="313" y="410" type="curve" smooth="yes"/>
      <point x="354" y="410"/>
      <point x="392" y="404"/>
      <point x="430" y="390" type="curve"/>
      <point x="450" y="390" type="line"/>
      <point x="450" y="435"/>
      <point x="450" y="474"/>
      <point x="450" y="519" type="curve"/>
      <point x="450" y="522"/>
      <point x="449" y="525"/>
      <point x="447" y="527" type="curve" smooth="yes"/>
      <point x="436" y="538"/>
      <point x="388" y="552"/>
    </contour>
    <contour>
      <point x="314" y="-12" type="curve" smooth="yes"/>
      <point x="388" y="-12"/>
      <point x="436" y="2"/>
      <point x="447" y="13" type="curve" smooth="yes"/>
      <point x="449" y="15"/>
      <point x="450" y="18"/>
      <point x="450" y="21" type="curve"/>
      <point x="450" y="63"/>
      <point x="450" y="107"/>
      <point x="450" y="150" type="curve"/>
      <point x="430" y="150" type="line"/>
      <point x="392" y="136"/>
      <point x="354" y="130"/>
      <point x="313" y="130" type="curve" smooth="yes"/>
      <point x="244" y="130"/>
      <point x="195" y="154"/>
      <point x="141" y="191" type="curve"/>
      <point x="109" y="95"/>
      <point x="154" y="-12"/>
    </contour>
    <contour>
      <point x="337" y="619" type="curve" smooth="yes"/>
      <point x="345" y="619"/>
      <point x="351" y="623"/>
      <point x="354" y="627" type="curve" smooth="yes"/>
      <point x="413" y="692"/>
      <point x="452" y="735"/>
      <point x="503" y="792" type="curve"/>
      <point x="509" y="799"/>
      <point x="504" y="807"/>
      <point x="496" y="807" type="curve" smooth="yes"/>
      <point x="435" y="807"/>
      <point x="388" y="807"/>
      <point x="325" y="807" type="curve"/>
      <point x="289" y="743"/>
      <point x="254" y="681"/>
      <point x="219" y="619" type="curve"/>
      <point x="257" y="619"/>
      <point x="294" y="619"/>
    </contour>
  </outline>
</glyph>
<glyph name="ccircumflex" format="1">
  <advance width="500"/>
  <unicode hex="0109"/>
  <outline>
    <contour>
      <point x="314" y="552" type="curve" smooth="yes"/>
      <point x="159" y="552"/>
      <point x="55" y="447"/>
      <point x="55" y="301" type="curve" smooth="yes"/>
      <point x="55" y="235" type="line" smooth="yes"/>
      <point x="55" y="79"/>
      <point x="152" y="-12"/>
      <point x="314" y="-12" type="curve" smooth="yes"/>
      <point x="348" y="-12"/>
      <point x="350" y="7"/>
      <point x="313" y="130" type="curve"/>
      <point x="245" y="130"/>
      <point x="210" y="167"/>
      <point x="210" y="243" type="curve" smooth="yes"/>
      <point x="210" y="299" type="line" smooth="yes"/>
      <point x="210" y="379"/>
      <point x="254" y="410"/>
      <point x="313" y="410" type="curve" smooth="yes"/>
      <point x="354" y="410"/>
      <point x="392" y="404"/>
      <point x="430" y="390" type="curve"/>
      <point x="450" y="390" type="line"/>
      <point x="450" y="435"/>
      <point x="450" y="474"/>
      <point x="450" y="519" type="curve"/>
      <point x="450" y="522"/>
      <point x="449" y="525"/>
      <point x="447" y="527" type="curve" smooth="yes"/>
      <point x="436" y="538"/>
      <point x="388" y="552"/>
    </contour>
    <contour>
      <point x="314" y="-12" type="curve" smooth="yes"/>
      <point x="388" y="-12"/>
      <point x="436" y="2"/>
      <point x="447" y="13" type="curve" smooth="yes"/>
      <point x="449" y="15"/>
      <point x="450" y="18"/>
      <point x="450" y="21" type="curve"/>
      <point x="450" y="63"/>
      <point x="450" y="107"/>
      <point x="450" y="150" type="curve"/>
      <point x="430" y="150" type="line"/>
      <point x="392" y="136"/>
      <point x="354" y="130"/>
      <point x="313" y="130" type="curve" smooth="yes"/>
      <point x="244" y="130"/>
      <point x="195" y="154"/>
      <point x="141" y="191" type="curve"/>
      <point x="109" y="95"/>
      <point x="154" y="-12"/>
    </contour>
    <contour>
      <point x="198" y="610" type="line"/>
      <point x="243" y="654"/>
      <point x="290" y="700"/>
      <point x="353" y="763" type="curve"/>
      <point x="302" y="811"/>
      <point x="280" y="812"/>
      <point x="272" y="812" type="curve"/>
      <point x="233" y="812" type="line"/>
      <point x="207" y="780"/>
      <point x="127" y="683"/>
      <point x="98" y="647" type="curve" smooth="yes"/>
      <point x="82" y="627"/>
      <point x="80" y="625"/>
      <point x="80" y="619" type="curve" smooth="yes"/>
      <point x="80" y="614"/>
      <point x="83" y="610"/>
      <point x="91" y="610" type="curve"/>
    </contour>
    <contour>
      <point x="504" y="610" type="curve"/>
      <point x="457" y="668"/>
      <point x="376" y="767"/>
      <point x="357" y="790" type="curve" smooth="yes"/>
      <point x="341" y="809"/>
      <point x="337" y="812"/>
      <point x="327" y="812" type="curve" smooth="yes"/>
      <point x="269" y="812" type="line"/>
      <point x="264" y="812"/>
      <point x="247" y="809"/>
      <point x="220" y="763" type="curve"/>
      <point x="284" y="699"/>
      <point x="342" y="642"/>
      <point x="363" y="621" type="curve" smooth="yes"/>
      <point x="372" y="612"/>
      <point x="377" y="610"/>
      <point x="392" y="610" type="curve" smooth="yes"/>
      <point x="444" y="610"/>
      <point x="476" y="610"/>
    </contour>
  </outline>
</glyph>
<glyph name="cdotaccent" format="1">
  <advance width="500"/>
  <unicode hex="010B"/>
  <outline>
    <contour>
      <point x="314" y="552" type="curve" smooth="yes"/>
      <point x="159" y="552"/>
      <point x="55" y="447"/>
      <point x="55" y="301" type="curve" smooth="yes"/>
      <point x="55" y="235" type="line" smooth="yes"/>
      <point x="55" y="79"/>
      <point x="152" y="-12"/>
      <point x="314" y="-12" type="curve" smooth="yes"/>
      <point x="348" y="-12"/>
      <point x="350" y="7"/>
      <point x="313" y="130" type="curve"/>
      <point x="245" y="130"/>
      <point x="210" y="167"/>
      <point x="210" y="243" type="curve" smooth="yes"/>
      <point x="210" y="299" type="line" smooth="yes"/>
      <point x="210" y="379"/>
      <point x="254" y="410"/>
      <point x="313" y="410" type="curve" smooth="yes"/>
      <point x="354" y="410"/>
      <point x="392" y="404"/>
      <point x="430" y="390" type="curve"/>
      <point x="450" y="390" type="line"/>
      <point x="450" y="435"/>
      <point x="450" y="474"/>
      <point x="450" y="519" type="curve"/>
      <point x="450" y="522"/>
      <point x="449" y="525"/>
      <point x="447" y="527" type="curve" smooth="yes"/>
      <point x="436" y="538"/>
      <point x="388" y="552"/>
    </contour>
    <contour>
      <point x="314" y="-12" type="curve" smooth="yes"/>
      <point x="388" y="-12"/>
      <point x="436" y="2"/>
      <point x="447" y="13" type="curve" smooth="yes"/>
      <point x="449" y="15"/>
      <point x="450" y="18"/>
      <point x="450" y="21" type="curve"/>
      <point x="450" y="63"/>
      <point x="450" y="107"/>
      <point x="450" y="150" type="curve"/>
      <point x="430" y="150" type="line"/>
      <point x="392" y="136"/>
      <point x="354" y="130"/>
      <point x="313" y="130" type="curve" smooth="yes"/>
      <point x="244" y="130"/>
      <point x="195" y="154"/>
      <point x="141" y="191" type="curve"/>
      <point x="109" y="95"/>
      <point x="154" y="-12"/>
    </contour>
    <contour>
      <point x="377" y="652" type="curve"/>
      <point x="377" y="791" type="line" smooth="yes"/>
      <point x="377" y="797"/>
      <point x="372" y="802"/>
      <point x="366" y="802" type="curve" smooth="yes"/>
      <point x="310" y="802"/>
      <point x="253" y="802"/>
      <point x="197" y="802" type="curve"/>
      <point x="197" y="663" type="line" smooth="yes"/>
      <point x="197" y="657"/>
      <point x="202" y="652"/>
      <point x="208" y="652" type="curve" smooth="yes"/>
      <point x="264" y="652"/>
      <point x="321" y="652"/>
    </contour>
  </outline>
</glyph>
